<svg width="97" height="35" viewBox="0 0 97 35" fill="none" xmlns="http://www.w3.org/2000/svg">
<path fill-rule="evenodd" clip-rule="evenodd" d="M17.0807 7.91192C15.7116 7.91192 14.6027 6.79714 14.6027 5.42131C14.6027 4.04548 15.7116 2.92982 17.0807 2.92982C18.4481 2.92982 19.5579 4.04548 19.5579 5.42131C19.5579 6.79714 18.4481 7.91192 17.0799 7.91192H17.0807ZM17.0807 0.000881946C14.0956 0.000881946 11.676 2.4324 11.676 5.43366C11.6739 6.61712 12.0591 7.76898 12.7734 8.71449L13.1327 9.21455L17.0799 14.0009L21.3872 8.7136C22.1011 7.76796 22.4861 6.61613 22.4837 5.43277C22.4837 2.4324 20.0641 0 17.0799 0L17.0807 0.000881946ZM19.1428 25.2421V16.1255H15.1399V20.4073L11.1397 15.5751L0 29.0301L3.70555 32.131L11.1397 23.1528L18.5738 32.131L22.2784 29.0301L19.1428 25.2421Z" fill="#006CFF"/>
<path fill-rule="evenodd" clip-rule="evenodd" d="M43.696 16.1162H40.1462V28.5428H33.129V16.1171H29.5801V31.8448H42.6517V35.0004H45.8678V28.5445H43.696V16.1153V16.1162ZM51.9001 26.7048V16.1162H48.3512V31.8439H51.9001L59.3342 21.2553V31.8439H62.884V16.1162H59.3351L51.901 26.7048H51.9001ZM93.4718 16.1162V22.296H86.2253V16.1162H82.6755V31.8439H86.2253V25.6191H93.4718V31.8439H97.0003V16.1162H93.4718ZM75.7069 25.2028C75.7069 26.4376 75.3591 27.4033 74.6741 28.0745C73.9803 28.7536 72.9731 29.0975 71.681 29.0975C70.0641 29.0975 69.1738 28.3655 69.1738 27.0346C69.1738 25.6473 70.3384 24.8192 72.2881 24.8192H75.706V25.2028H75.7069ZM72.7439 15.8154C70.8889 15.8154 69.2915 16.3146 68.1233 17.2592C67.0303 18.1411 66.3833 19.375 66.2957 20.734H69.795C69.9543 20.0038 70.7305 18.8652 72.7439 18.8652C74.5989 18.8652 75.706 19.9791 75.706 21.8444V21.922H72.1359C70.0225 21.922 68.3897 22.4027 67.2825 23.3508C66.2223 24.2592 65.6851 25.5494 65.6851 27.1872C65.6851 28.5992 66.2373 29.8666 67.2427 30.7547C68.2711 31.6657 69.7012 32.1473 71.3775 32.1473C74.0024 32.1473 75.4308 30.8596 75.922 30.3075L76.1654 31.6551L76.199 31.8412H79.1957V21.8444C79.1957 18.1261 76.7229 15.8154 72.7439 15.8154Z" fill="white"/>
</svg>
