<svg width="113" height="40" viewBox="0 0 113 40" fill="none" xmlns="http://www.w3.org/2000/svg">
<path d="M53.3099 7.31532H55.2V10.2951H53.3099V7.31532Z" fill="white"/>
<path d="M21.2413 7.44212H23.6354V10.5487H21.2413V7.44212Z" fill="white"/>
<path fill-rule="evenodd" clip-rule="evenodd" d="M23.0698 0L48.7948 15.8559L47.8076 17.4779L23.13 2.26755L1.08069 17.5453L0.00878906 15.9787L23.0698 0Z" fill="white"/>
<path fill-rule="evenodd" clip-rule="evenodd" d="M38.4404 0.235833L66.9852 16.9866L66.033 18.6296L38.505 2.47552L31.8759 6.90307L30.8307 5.31835L38.4404 0.235833Z" fill="white"/>
<path fill-rule="evenodd" clip-rule="evenodd" d="M2.55951 35.522C3.4258 35.7597 4.38725 35.8786 5.44387 35.8786C6.50705 35.8786 7.43569 35.7168 8.22979 35.3932C9.0239 35.0696 9.6408 34.6073 10.0805 34.0063C10.5202 33.4185 10.7401 32.7119 10.7401 31.8863C10.7401 30.7042 10.3299 29.7499 9.50955 29.0234C8.69576 28.2969 7.49804 27.7125 5.9164 27.27C4.49882 26.8011 3.62597 26.3421 3.29782 25.893C3.12063 25.6553 3.03203 25.3746 3.03203 25.051C3.03203 24.6745 3.13375 24.3542 3.3372 24.0901C3.54065 23.8259 3.81957 23.6245 4.17396 23.4858C4.52179 23.3471 4.92541 23.2777 5.38481 23.2777C5.92296 23.2777 6.40205 23.3372 6.82207 23.4561C7.24865 23.5749 7.58664 23.7136 7.83602 23.8721L8.21011 25.8534H10.366V22.6041C9.74253 22.1088 9.01077 21.7225 8.17073 21.4451C7.3635 21.1809 6.43486 21.0488 5.38481 21.0488H5.23714C4.23959 21.062 3.36017 21.2404 2.59888 21.5838C1.83759 21.9272 1.24366 22.3961 0.817073 22.9905C0.383926 23.5914 0.167352 24.2816 0.167352 25.0609C0.167352 25.8468 0.351112 26.5204 0.71863 27.0818C1.09271 27.6365 1.65383 28.112 2.402 28.5083C3.11735 28.9045 4.05583 29.2744 5.21745 29.6178C6.49064 30.014 7.28803 30.4697 7.60961 30.9849C7.77368 31.249 7.85571 31.5561 7.85571 31.9061C7.85571 32.6524 7.49148 33.1742 6.763 33.4713C6.40861 33.6166 5.9689 33.6893 5.44387 33.6893C4.83353 33.6893 4.26912 33.6133 3.75066 33.4614C3.2322 33.3029 2.8253 33.0982 2.52997 32.8472L2.2248 30.7966H0V34.2837C0.840043 34.8714 1.69321 35.2842 2.55951 35.522ZM13.841 35.0564C14.3792 35.6045 15.1437 35.8786 16.1347 35.8786C16.4694 35.8786 16.8074 35.8489 17.1487 35.7894C17.4965 35.7366 17.8181 35.6672 18.1134 35.5814L17.8673 33.4912C17.7361 33.5176 17.5786 33.544 17.3948 33.5704C17.211 33.5902 17.0404 33.6001 16.8829 33.6001C16.581 33.6001 16.3415 33.511 16.1643 33.3327C15.9936 33.1543 15.9083 32.8572 15.9083 32.4411V26.9827H17.8673V24.9519H15.9083V22.3267H13.0436V24.9519H11.5768V26.9827H13.0436V32.451C13.0436 33.6398 13.3094 34.5082 13.841 35.0564ZM25.0438 33.9369L23.6656 33.6398V28.3894C23.8625 28.0922 24.0889 27.8644 24.3448 27.7059C24.5745 27.5672 24.8567 27.4978 25.1914 27.4978H25.3293L26.7567 27.5771L27.0618 24.9123C26.9043 24.8661 26.7239 24.8297 26.5204 24.8033C26.317 24.7703 26.1299 24.7538 25.9593 24.7538C24.9158 24.7538 24.1283 25.3416 23.5967 26.5171L23.577 26.2794L23.4687 24.9519H19.2652V26.6954L20.7911 26.9926V33.6398L19.4129 33.9369V35.6705H25.0438V33.9369ZM30.2908 35.1851C31.0455 35.6474 31.9479 35.8786 32.9979 35.8786C34.0414 35.8786 34.9373 35.6474 35.6854 35.1851C36.4336 34.7162 37.0078 34.0723 37.4082 33.2534C37.8085 32.4411 38.0087 31.4967 38.0087 30.4202V30.2122C38.0087 29.1423 37.8085 28.1979 37.4082 27.379C37.0078 26.5534 36.4336 25.9095 35.6854 25.4472C34.9438 24.9849 34.0414 24.7538 32.9782 24.7538C31.9348 24.7538 31.0356 24.9849 30.2809 25.4472C29.5328 25.9095 28.9585 26.5534 28.5582 27.379C28.1578 28.1913 27.9577 29.1357 27.9577 30.2122V30.4202C27.9577 31.4901 28.1578 32.4378 28.5582 33.2633C28.9585 34.0822 29.536 34.7228 30.2908 35.1851ZM34.2186 33.2534C33.897 33.5242 33.4901 33.6596 32.9979 33.6596C32.4926 33.6596 32.0791 33.5275 31.7576 33.2633C31.4425 32.9925 31.2096 32.6128 31.0586 32.1241C30.9077 31.6288 30.8322 31.0608 30.8322 30.4202V30.2122C30.8322 29.5782 30.9044 29.0201 31.0488 28.538C31.1997 28.0493 31.436 27.6662 31.7576 27.3889C32.0857 27.1181 32.4926 26.9827 32.9782 26.9827C33.4836 26.9827 33.8938 27.1181 34.2088 27.3889C34.5304 27.6596 34.7666 28.0394 34.9176 28.5281C35.0685 29.0234 35.144 29.5848 35.144 30.2122V30.4202C35.144 31.0674 35.0685 31.6354 34.9176 32.1241C34.7666 32.6062 34.5336 32.9826 34.2186 33.2534ZM40.2531 39.7619C40.7913 39.9204 41.3196 39.9996 41.8381 39.9996C42.5206 39.9996 43.0981 39.8741 43.5707 39.6232C44.0432 39.3722 44.4304 39.042 44.7323 38.6325C45.0276 38.2231 45.277 37.7674 45.4804 37.2655L49.5461 26.8638L50.7471 26.6954V24.9519H45.4804V26.6954L46.7504 26.8737L44.7717 32.2033H44.7126L42.8323 26.8936L44.1318 26.6954V24.9519H38.4812V26.6954L39.7905 26.8836L43.3541 35.7894L43.1178 36.4531C42.8356 37.2985 42.2581 37.7212 41.3852 37.7212C41.1096 37.7212 40.8405 37.6947 40.578 37.6419L40.2531 39.7619ZM51.4756 35.6705H57.8055C59.0852 35.6705 60.2107 35.3668 61.182 34.7592C62.1599 34.1516 62.9179 33.3128 63.4561 32.243C63.9942 31.1863 64.2633 29.9711 64.2633 28.5974V28.33C64.2633 26.9497 63.9876 25.7246 63.4364 24.6547C62.8916 23.5848 62.1304 22.7494 61.1525 22.1484C60.1812 21.5474 59.0524 21.247 57.7661 21.247H51.4756V22.9905L53.0211 23.3273V33.61L51.4756 33.9369V35.6705ZM55.8957 23.466H57.6578C58.4519 23.466 59.1246 23.674 59.6759 24.0901C60.2271 24.4995 60.6504 25.0675 60.9458 25.794C61.2345 26.5336 61.3789 27.3757 61.3789 28.3201V28.5974C61.3789 29.5352 61.2313 30.3707 60.9359 31.1037C60.6472 31.8368 60.2271 32.4114 59.6759 32.8274C59.1311 33.2501 58.4585 33.4614 57.6578 33.4614H55.8957V23.466ZM66.6259 35.0266C67.2494 35.5946 68.0894 35.8786 69.146 35.8786C69.7695 35.8786 70.3109 35.7498 70.7703 35.4922C71.2363 35.2281 71.6399 34.878 71.9812 34.4422C72.014 34.6535 72.0665 34.8648 72.1387 35.0762C72.2109 35.2875 72.2831 35.4856 72.3553 35.6705H75.9189V33.9369L74.8065 33.7784C74.7868 33.6464 74.7737 33.511 74.7671 33.3723V28.5182C74.7671 27.3096 74.3635 26.3817 73.5563 25.7345C72.749 25.0807 71.6497 24.7538 70.2584 24.7538C69.4578 24.7538 68.7326 24.8529 68.0828 25.051C67.4331 25.2491 66.8293 25.5067 66.2715 25.8237L66.3109 28.6073H68.3782L68.6046 27.1907C68.8015 27.0521 69.0213 26.9464 69.2642 26.8737C69.5135 26.7945 69.7925 26.7549 70.1009 26.7549C70.6981 26.7549 71.1444 26.9167 71.4397 27.2403C71.7416 27.5573 71.8926 27.9733 71.8926 28.4885V29.281H70.4848C69.4414 29.281 68.5652 29.4263 67.8564 29.7169C67.1476 30.0074 66.6095 30.407 66.242 30.9155C65.8745 31.424 65.6907 32.0151 65.6907 32.6887C65.6907 33.6728 66.0024 34.4521 66.6259 35.0266ZM71.0558 33.4713C70.6948 33.6497 70.3142 33.7388 69.9139 33.7388C69.4873 33.7388 69.1526 33.6365 68.9098 33.4317C68.6735 33.2204 68.5554 32.9232 68.5554 32.5402C68.5554 32.1307 68.7162 31.7807 69.0377 31.4901C69.3659 31.1995 69.845 31.0542 70.475 31.0542H71.8926V32.7482C71.6957 33.0454 71.4168 33.2864 71.0558 33.4713ZM77.8976 39.7619C78.4357 39.9204 78.964 39.9996 79.4825 39.9996C80.165 39.9996 80.7426 39.8741 81.2151 39.6232C81.6876 39.3722 82.0748 39.042 82.3767 38.6325C82.672 38.2231 82.9214 37.7674 83.1249 37.2655L87.1905 26.8638L88.3915 26.6954V24.9519H83.1249V26.6954L84.3948 26.8737L82.4161 32.2033H82.357L80.4768 26.8936L81.7762 26.6954V24.9519H76.1256V26.6954L77.4349 26.8836L80.9985 35.7894L80.7622 36.4531C80.48 37.2985 79.9025 37.7212 79.0297 37.7212C78.754 37.7212 78.4849 37.6947 78.2224 37.6419L77.8976 39.7619ZM88.0273 33.1345V35.6705H90.892V33.1345H88.0273ZM98.3638 33.9369L96.9856 33.6398V28.3894C97.1825 28.0922 97.4089 27.8644 97.6648 27.7059C97.8945 27.5672 98.1767 27.4978 98.5114 27.4978H98.6493L100.077 27.5771L100.382 24.9123C100.224 24.8661 100.044 24.8297 99.8404 24.8033C99.637 24.7703 99.4499 24.7538 99.2793 24.7538C98.2358 24.7538 97.4482 25.3416 96.9167 26.5171L96.897 26.2794L96.7887 24.9519H92.5852V26.6954L94.1111 26.9926V33.6398L92.7329 33.9369V35.6705H98.3638V33.9369ZM103.109 34.8087C103.752 35.522 104.635 35.8786 105.757 35.8786C106.393 35.8786 106.964 35.7432 107.47 35.4724C107.975 35.2016 108.395 34.8153 108.73 34.3134L108.927 35.6705H112.727V33.9369L111.447 33.6398V24.9519H107.302V26.6954L108.572 26.9926V32.659C108.133 33.3062 107.486 33.6298 106.633 33.6298C106.095 33.6298 105.691 33.4647 105.422 33.1345C105.16 32.7977 105.028 32.2463 105.028 31.4802V24.9519H100.982V26.6954L102.154 26.9926V31.4604C102.154 32.9727 102.472 34.0888 103.109 34.8087Z" fill="white"/>
</svg>
