<svg width="135" height="42" viewBox="0 0 135 42" fill="none" xmlns="http://www.w3.org/2000/svg">
<path d="M16.3254 38.3974C17.8233 34.8687 21.2695 25.6379 21.8416 23.734C21.9674 23.3418 22.0771 22.9681 22.0771 22.7378C22.0771 22.5192 21.998 22.2442 21.7311 22.1211C21.4309 22.0123 21.0477 22.0123 20.759 22.0123C20.5984 22.0123 20.4711 21.9914 20.4711 21.8549C20.4711 21.7057 20.6347 21.6462 21.0477 21.6462C22.0771 21.6462 23.2577 21.7171 23.5763 21.7171C23.7211 21.7171 24.8247 21.6462 25.5816 21.6462C25.8592 21.6462 26.0156 21.7066 26.0156 21.831C26.0156 21.9676 25.9058 22.013 25.7101 22.013C25.5299 22.013 24.9678 22.013 24.4699 22.3396C24.1361 22.5768 23.7487 23.016 23.05 24.8236C22.7664 25.5618 21.4891 28.7265 20.1766 31.9823C18.5923 35.8359 17.4363 38.707 16.8286 39.9866C16.1147 41.577 16.0252 41.9984 15.7548 41.9984C15.442 41.9984 15.3192 41.63 14.8218 40.3616L8.50823 24.1547C7.94985 22.6856 7.55516 22.388 6.65851 22.1211C6.26808 22.0123 5.83128 22.0123 5.67792 22.0123C5.52655 22.0123 5.47217 21.9257 5.47217 21.8304C5.47217 21.6691 5.7353 21.6453 6.14378 21.6453C7.382 21.6453 8.85652 21.7161 9.16777 21.7161C9.41715 21.7161 10.5839 21.6453 11.556 21.6453C12.0236 21.6453 12.2547 21.7057 12.2547 21.8304C12.2547 21.9667 12.179 22.0123 11.99 22.0123C11.7166 22.0123 11.2507 22.0375 11.0187 22.145C10.736 22.2808 10.6886 22.482 10.6886 22.6848C10.6886 23.0151 10.9889 23.8324 11.3706 24.8719L16.3254 38.3974Z" fill="white"/>
<path d="M32.3498 33.96C32.3498 36.5015 32.3498 38.5946 32.4794 39.7012C32.5483 40.4677 32.7039 41.042 33.4775 41.1478C33.8491 41.2007 34.4102 41.2507 34.64 41.2507C34.8029 41.2507 34.848 41.3395 34.848 41.4104C34.848 41.5453 34.7207 41.6302 34.4431 41.6302C33.0166 41.6302 31.3923 41.5453 31.2694 41.5453C31.1314 41.5453 29.513 41.6302 28.7321 41.6302C28.455 41.6302 28.3206 41.5773 28.3206 41.4104C28.3206 41.3395 28.3723 41.2507 28.5241 41.2507C28.7605 41.2507 29.0744 41.2017 29.3108 41.1478C29.8255 41.0412 29.9586 40.4677 30.051 39.7012C30.1788 38.5946 30.1789 36.5015 30.1789 33.96V29.3144C30.1789 25.1921 30.1789 24.445 30.1259 23.6053C30.0778 22.6969 29.8255 22.2451 29.2549 22.122C28.9699 22.0387 28.6354 22.0132 28.4552 22.0132C28.3519 22.0132 28.2515 21.9685 28.2515 21.8558C28.2515 21.7068 28.3723 21.6471 28.6747 21.6471C29.513 21.6471 31.1314 21.718 31.2694 21.718C31.3923 21.718 33.0166 21.6471 33.7917 21.6471C34.0736 21.6471 34.201 21.7075 34.201 21.8558C34.201 21.9685 34.092 22.0132 33.9975 22.0132C33.8156 22.0132 33.6586 22.0387 33.3459 22.0907C32.6583 22.2288 32.4538 22.6858 32.4037 23.6045C32.3505 24.4443 32.3505 25.1913 32.3505 29.3137L32.3498 33.96Z" fill="white"/>
<path d="M57.2382 33.9996C57.2382 37.8883 57.3422 39.5773 57.8104 40.0575C58.2184 40.4774 58.8857 40.6667 60.9033 40.6667C62.2731 40.6667 63.4 40.6438 64.0188 39.8749C64.3423 39.4461 64.6141 38.7853 64.6833 38.2843C64.719 38.0719 64.764 37.9406 64.9197 37.9406C65.0424 37.9406 65.07 38.0471 65.07 38.3296C65.07 38.6324 64.8919 40.2156 64.6833 40.9933C64.5117 41.5795 64.4352 41.7047 63.0642 41.7047C61.2035 41.7047 59.8738 41.6393 58.787 41.6168C57.7044 41.5639 56.9075 41.5319 56.1615 41.5319C56.0569 41.5319 55.6191 41.5639 55.1044 41.5639C54.5969 41.5795 54.0241 41.6168 53.6371 41.6168C53.3472 41.6168 53.2206 41.5639 53.2206 41.397C53.2206 41.3261 53.2708 41.2373 53.4227 41.2373C53.6539 41.2373 53.9659 41.188 54.197 41.1344C54.7182 41.0276 54.8463 40.4543 54.9488 39.6877C55.0776 38.5811 55.0776 36.4878 55.0776 33.9466V29.301C55.0776 25.1786 55.0776 24.4316 55.0287 23.5918C54.9771 22.6835 54.7641 22.2683 53.9151 22.078C53.7171 22.026 53.2708 22.0005 53.0309 22.0005C52.937 22.0005 52.8447 21.9557 52.8447 21.8431C52.8447 21.6941 52.9603 21.6344 53.2447 21.6344C54.4115 21.6344 56.0241 21.7052 56.1622 21.7052C56.2845 21.7052 58.169 21.6344 58.9381 21.6344C59.2218 21.6344 59.3548 21.6948 59.3548 21.8431C59.3548 21.9557 59.2486 22.0005 59.1518 22.0005C58.9736 22.0005 58.6095 22.026 58.2956 22.078C57.5502 22.2161 57.3431 22.6731 57.2914 23.5918C57.2391 24.4316 57.2391 25.1786 57.2391 29.301L57.2382 33.9996Z" fill="white"/>
<path d="M42.7724 33.9996C42.7724 37.8883 42.8764 39.5773 43.3445 40.0575C43.7526 40.4774 44.4199 40.6667 46.4375 40.6667C47.8072 40.6667 48.9342 40.6438 49.5529 39.8749C49.8764 39.4461 50.1483 38.7853 50.2175 38.2843C50.2531 38.0719 50.2982 37.9406 50.4538 37.9406C50.5766 37.9406 50.6042 38.0471 50.6042 38.3296C50.6042 38.6324 50.426 40.2156 50.2175 40.9933C50.0459 41.5795 49.9694 41.7047 48.5984 41.7047C46.7377 41.7047 45.408 41.6393 44.3211 41.6168C43.2386 41.5639 42.4417 41.5319 41.6956 41.5319C41.5911 41.5319 41.1533 41.5639 40.6386 41.5639C40.1311 41.5795 39.5583 41.6168 39.1713 41.6168C38.8814 41.6168 38.7548 41.5639 38.7548 41.397C38.7548 41.3261 38.805 41.2373 38.9568 41.2373C39.1881 41.2373 39.5001 41.188 39.7312 41.1344C40.2524 41.0276 40.3805 40.4543 40.4829 39.6877C40.6118 38.5811 40.6118 36.4878 40.6118 33.9466V29.301C40.6118 25.1786 40.6118 24.4316 40.5629 23.5918C40.5113 22.6835 40.2983 22.2683 39.4492 22.078C39.2513 22.026 38.805 22.0005 38.5651 22.0005C38.4712 22.0005 38.3789 21.9557 38.3789 21.8431C38.3789 21.6941 38.4945 21.6344 38.7789 21.6344C39.9457 21.6344 41.5583 21.7052 41.6964 21.7052C41.8187 21.7052 43.7031 21.6344 44.4723 21.6344C44.7559 21.6344 44.889 21.6948 44.889 21.8431C44.889 21.9557 44.7828 22.0005 44.686 22.0005C44.5078 22.0005 44.1437 22.026 43.8298 22.078C43.0844 22.2161 42.8772 22.6731 42.8255 23.5918C42.7732 24.4316 42.7732 25.1786 42.7732 29.301L42.7724 33.9996Z" fill="white"/>
<path d="M78.2793 32.8877C78.4071 32.8877 78.4071 32.7991 78.3861 32.7037L75.9374 25.5613C75.8067 25.1571 75.6836 25.1571 75.5513 25.5613L73.2836 32.7037C73.2458 32.8148 73.2836 32.8877 73.3615 32.8877H78.2793ZM75.6001 22.3114C75.9039 21.4325 76.0094 21.278 76.1693 21.278C76.3322 21.278 76.4354 21.41 76.7409 22.2281C77.1188 23.2287 81.1735 34.1517 82.7451 38.1598C83.6687 40.52 84.4333 40.9449 84.9684 41.0942C85.3503 41.232 85.7273 41.25 85.9871 41.25C86.1486 41.25 86.242 41.2859 86.242 41.4097C86.242 41.5766 86.015 41.6295 85.7273 41.6295C85.3503 41.6295 83.4605 41.6295 81.6797 41.5766C81.2071 41.5446 80.9169 41.5446 80.9169 41.3924C80.9169 41.2859 80.9926 41.2329 81.0893 41.2009C81.2412 41.1478 81.4151 40.9159 81.2412 40.4895L78.8499 33.9861C78.7999 33.8832 78.7497 33.8303 78.6114 33.8303H73.0824C72.9559 33.8303 72.8825 33.9012 72.8162 34.0325L71.2726 38.7274C71.0385 39.3829 70.9085 40.0101 70.9085 40.4895C70.9085 41.0239 71.4595 41.2507 71.8943 41.2507H72.1429C72.3241 41.2507 72.4193 41.3074 72.4193 41.4103C72.4193 41.5772 72.2446 41.6304 72.0236 41.6304C71.4072 41.6304 70.3028 41.5452 70.0133 41.5452C69.7306 41.5452 68.3085 41.6304 67.0994 41.6304C66.7525 41.6304 66.6094 41.5772 66.6094 41.4103C66.6094 41.3074 66.7169 41.2507 66.8427 41.2507C67.0172 41.2507 67.393 41.2329 67.596 41.2016C68.7754 41.0419 69.2901 40.0398 69.7597 38.7281L75.6001 22.3114Z" fill="white"/>
<path d="M99.9533 34.893C99.9533 32.7523 99.8279 32.4629 98.7986 32.166C98.5774 32.102 98.1569 32.085 97.9217 32.085C97.8029 32.085 97.7111 32.0357 97.7111 31.9357C97.7111 31.7731 97.8283 31.7165 98.1201 31.7165C99.2871 31.7165 100.902 31.7911 101.035 31.7911C101.165 31.7911 102.787 31.7165 103.556 31.7165C103.856 31.7165 103.969 31.7731 103.969 31.9357C103.969 32.0357 103.866 32.085 103.77 32.085C103.585 32.085 103.437 32.102 103.121 32.166C102.431 32.2877 102.22 32.7523 102.177 33.6717C102.125 34.5144 102.125 35.3153 102.125 36.4167V39.3838C102.125 40.5687 102.089 40.6394 101.781 40.8177C100.135 41.7192 97.8029 41.9997 96.3229 41.9997C94.3585 41.9997 90.7043 41.7356 87.845 39.1689C86.2698 37.7774 84.7783 34.94 84.7783 31.6463C84.7783 27.4109 86.7722 24.4295 89.0882 22.9329C91.4041 21.4647 93.9438 21.2798 95.9262 21.2798C97.5456 21.2798 99.3936 21.6241 99.8607 21.7181C100.405 21.856 101.313 21.9686 101.972 21.9925C102.219 22.0134 102.273 22.1223 102.273 22.2297C102.273 22.6033 102.088 23.3431 102.088 25.9813C102.088 26.4153 102.042 26.5346 101.86 26.5346C101.728 26.5346 101.7 26.3863 101.679 26.1349C101.653 25.7696 101.528 25.0343 101.128 24.3975C100.497 23.3839 98.4028 22.2447 95.0838 22.2447C93.4546 22.2447 91.5189 22.4168 89.5643 23.9954C88.0736 25.2049 87.0295 27.6242 87.0295 30.7174C87.0295 34.436 88.8374 37.1385 89.7503 38.0355C91.7795 40.0704 94.1208 40.8693 96.49 40.8693C97.4259 40.8693 98.7617 40.6991 99.4395 40.3114C99.7689 40.1256 99.9533 39.8349 99.9533 39.3838V34.893Z" fill="white"/>
<path d="M109.839 33.96C109.839 36.5015 109.839 38.5946 109.973 39.7012C110.042 40.4677 110.198 41.042 110.969 41.1478C111.321 41.2007 111.898 41.2507 112.117 41.2507C112.274 41.2507 112.342 41.3395 112.342 41.4104C112.342 41.5453 112.198 41.6302 111.929 41.6302C110.498 41.6302 108.88 41.5453 108.749 41.5453C108.62 41.5453 107.019 41.6302 106.226 41.6302C105.938 41.6302 105.817 41.5773 105.817 41.4104C105.817 41.3395 105.864 41.2507 106.02 41.2507C106.237 41.2507 106.572 41.2017 106.791 41.1478C107.3 41.0412 107.435 40.4677 107.538 39.7012C107.66 38.5946 107.66 36.5015 107.66 33.96V29.3144C107.66 25.1921 107.66 24.445 107.607 23.6053C107.557 22.6969 107.3 22.2451 106.748 22.122C106.446 22.0387 106.127 22.0132 105.936 22.0132C105.838 22.0132 105.729 21.9685 105.729 21.8558C105.729 21.7068 105.864 21.6471 106.149 21.6471C107.017 21.6471 108.619 21.718 108.747 21.718C108.878 21.718 110.496 21.6471 111.262 21.6471C111.558 21.6471 111.677 21.7075 111.677 21.8558C111.677 21.9685 111.573 22.0132 111.482 22.0132C111.29 22.0132 111.151 22.0387 110.837 22.0907C110.155 22.2288 109.941 22.6858 109.884 23.6045C109.838 24.4443 109.838 25.1913 109.838 29.3137V33.96" fill="white"/>
<path d="M123.819 41.0065C126.144 41.0065 130.944 39.6164 130.944 31.9351C130.944 25.5891 127.169 22.1791 123.108 22.1791C118.794 22.1791 115.569 25.0792 115.569 30.8605C115.568 37.0213 119.188 41.0065 123.819 41.0065ZM123.271 21.2789C129.087 21.2789 133.412 25.0344 133.412 31.1885C133.412 37.1056 129.34 41.9988 123.127 41.9988C116.072 41.9988 113.13 36.369 113.13 31.6032C113.13 27.3214 116.169 21.2789 123.271 21.2789Z" fill="white"/>
<path d="M54.8042 0L67.2696 12.7895L68.0103 12.037L56.272 0H54.8042Z" fill="white"/>
<path d="M74.2119 0H72.7332L68.1309 4.71202L68.8639 5.47202L74.2119 0Z" fill="white"/>
<path d="M70.2779 6.91935L77.0277 0H75.549L69.5391 6.16548L70.2779 6.91935Z" fill="white"/>
<path d="M57.605 0L68.7236 11.4033L69.4632 10.6419L59.0853 0H57.605Z" fill="white"/>
<path d="M78.2694 0L70.9053 7.56669L71.638 8.31964L79.7439 0H78.2694Z" fill="white"/>
<path d="M60.5791 0L70.168 9.83061L70.909 9.07742L62.0579 0H60.5791Z" fill="white"/>
<path d="M62.8229 12.5471H0V13.2599H62.8229V12.5471Z" fill="white"/>
<path d="M134.4 12.5471H71.5762V13.2599H134.4V12.5471Z" fill="white"/>
</svg>
