<svg width="154" height="20" viewBox="0 0 154 20" fill="none" xmlns="http://www.w3.org/2000/svg">
<path fill-rule="evenodd" clip-rule="evenodd" d="M25.3793 10.005L19.1041 19.4673L13.0454 19.4673L19.3084 10.005L25.3793 10.005Z" fill="white"/>
<path fill-rule="evenodd" clip-rule="evenodd" d="M19.3148 10.0042L13.0454 0.546021L19.1041 0.54602L25.3793 10.0042L19.3148 10.0042Z" fill="white"/>
<path fill-rule="evenodd" clip-rule="evenodd" d="M0 0.546021L0.272967 0.54602L11.6453 0.54602L11.6453 5.08905L5.57963 5.08905L5.57963 7.73621L11.0747 7.73621L11.0747 11.8971L5.57963 11.8971L5.57963 14.9293L11.6453 14.9293L11.6453 19.4665L11.3701 19.4665L8.24771e-07 19.4665L0 0.546021Z" fill="white"/>
<path fill-rule="evenodd" clip-rule="evenodd" d="M33.2393 0.544434L41.4897 0.544433C43.5122 0.544433 45.0241 0.977289 46.0255 1.84302C46.948 2.59413 47.6449 3.58608 48.0395 4.70917C48.1623 5.07305 48.254 5.44668 48.3138 5.82606C48.4242 6.5165 48.4242 7.22014 48.3138 7.91058C48.2532 8.2931 48.1615 8.67001 48.0395 9.03751C47.6558 10.1645 46.9634 11.1606 46.0414 11.9122C45.0324 12.782 43.5122 13.2241 41.4897 13.2241L38.8117 13.2241L38.8117 19.4653L33.2393 19.4653L33.2393 0.544434ZM38.8117 9.05502L40.0565 9.05502C40.6512 9.1028 41.2464 8.96953 41.7642 8.67268C42.0767 8.47617 42.3295 8.19772 42.4952 7.86754C42.5607 7.68551 42.6056 7.49667 42.629 7.30459C42.643 7.12118 42.6528 6.97681 42.6528 6.86747C42.6528 6.76011 42.6499 6.6516 42.6397 6.54254C42.6332 6.43773 42.6122 6.33469 42.6044 6.22276C42.4928 5.81206 42.2548 5.44704 41.9242 5.17964C41.375 4.81047 40.7147 4.64414 40.0565 4.70917L38.8117 4.70917L38.8117 9.05502Z" fill="white"/>
<path fill-rule="evenodd" clip-rule="evenodd" d="M52.1642 17.0066C50.4542 15.0796 49.5259 12.5817 49.5619 10.0041C49.5323 7.44053 50.4412 4.95486 52.1167 3.01651C53.8269 1.00695 56.3681 0.00144978 59.7399 -4.4616e-07L60.0124 -4.58108e-07C63.3838 -6.05879e-07 65.9219 1.0055 67.6268 3.01651C69.3073 4.95224 70.2187 7.43921 70.187 10.0041C70.2285 12.5677 69.3159 15.055 67.6268 16.9818C65.9242 18.9561 63.3838 19.9631 60.0124 19.9791L59.7399 19.9992C56.4204 19.9992 53.8952 19.0017 52.1642 17.0066ZM60.4172 15.4286C60.6199 15.3999 60.8189 15.3501 61.0111 15.2796C61.9415 15.0043 62.7667 14.4533 63.3783 13.6991C64.0972 12.8788 64.4456 11.6488 64.4456 10.0041C64.4456 8.36364 64.0806 7.13535 63.3715 6.31098C62.7544 5.56626 61.9343 5.01733 61.0111 4.7311C60.8139 4.67825 60.6239 4.63433 60.4286 4.59817C60.2451 4.56529 60.059 4.5479 59.8727 4.54621C59.6646 4.54859 59.457 4.56596 59.2515 4.59817C59.0409 4.63411 58.8334 4.68679 58.6312 4.75573C57.7295 5.06212 56.9347 5.62146 56.3412 6.36723C55.6454 7.19018 55.3014 8.40061 55.3014 10.0041C55.3014 11.6083 55.6454 12.817 56.3412 13.6435C56.9343 14.39 57.7292 14.95 58.6312 15.2566C58.8336 15.3201 59.0299 15.3729 59.2408 15.4181C59.4414 15.4526 59.6444 15.4697 59.8479 15.4692C60.0384 15.4677 60.2285 15.4543 60.4172 15.4286Z" fill="white"/>
<path fill-rule="evenodd" clip-rule="evenodd" d="M82.7568 5.84648L82.484 5.84648C82.3945 5.7707 82.3028 5.6941 82.2179 5.61486C82.1245 5.53021 82.0327 5.45527 81.9439 5.37948C81.5192 5.05724 81.0664 4.77393 80.591 4.53302C80.1448 4.30547 79.6534 4.18082 79.1527 4.16818C78.762 4.15704 78.3767 4.26049 78.044 4.46581C77.8099 4.61978 77.623 4.83572 77.504 5.08961C77.4345 5.20697 77.3867 5.33589 77.363 5.47019C77.3493 5.5757 77.3416 5.68186 77.3395 5.78822C77.331 5.96466 77.3638 6.14065 77.4349 6.3023C77.506 6.46394 77.6136 6.60682 77.7493 6.7197C78.0151 6.94956 78.3271 7.11958 78.6643 7.21828C78.8228 7.27802 78.9862 7.32402 79.1527 7.35577C79.3223 7.39798 79.4605 7.43071 79.5872 7.4631C79.9117 7.53635 80.2862 7.63005 80.7108 7.74418C81.1627 7.87734 81.6039 8.04399 82.0311 8.24274C82.945 8.68637 83.754 9.32022 84.4038 10.1019C85.1273 10.9369 85.4942 12.1635 85.4942 13.7942C85.4942 15.9703 84.775 17.545 83.3369 18.5184C81.8712 19.5031 80.1389 20.0133 78.3742 19.98L78.1013 20.0001C77.6194 19.9956 77.1386 19.9528 76.6636 19.8723C76.2053 19.7999 75.7533 19.6916 75.3118 19.5482C74.5991 19.3107 73.9152 18.9935 73.2733 18.6027C72.4798 18.1211 71.7241 17.5795 71.0129 16.9827L73.5238 12.9503L73.7967 12.9503C73.8878 13.0435 73.9795 13.1254 74.0719 13.21C74.1573 13.2956 74.2478 13.3705 74.3385 13.471C74.8681 13.9198 75.4325 14.326 76.0261 14.6858C76.6122 15.0456 77.2596 15.2941 77.9356 15.4189L78.1511 15.4551C78.2251 15.4647 78.2996 15.4697 78.3742 15.47C78.7657 15.4846 79.1522 15.3789 79.4817 15.1669C79.6934 15.0155 79.8615 14.811 79.969 14.5739C80.0196 14.4552 80.0549 14.3306 80.074 14.2029C80.0859 14.0735 80.1008 13.9624 80.1008 13.878C80.1293 13.5864 80.0759 13.2926 79.9464 13.0297C79.8169 12.767 79.6166 12.5456 79.3682 12.3909C78.8 12.0637 78.1891 11.817 77.5533 11.6577L77.4249 11.6118L77.2593 11.5704C76.9726 11.5001 76.6601 11.4155 76.3294 11.3052C75.9957 11.1934 75.6512 11.0718 75.3118 10.9238C74.4308 10.51 73.6469 9.91435 73.0119 9.17592C72.3045 8.39634 71.9553 7.24125 71.9553 5.70469C71.9419 4.94598 72.0883 4.19294 72.3851 3.49476C72.682 2.79658 73.1226 2.16892 73.678 1.65281C74.82 0.549682 76.4641 0.00891089 78.6127 0.0089108L78.8844 0.00891079C79.6677 0.0392413 80.4473 0.13205 81.2158 0.286446C82.4065 0.540352 83.5303 1.0429 84.5138 1.76128L84.5866 1.81584L84.6503 1.8661L82.7568 5.84648Z" fill="white"/>
<path fill-rule="evenodd" clip-rule="evenodd" d="M89.782 5.08905L85.616 5.08905L85.616 0.546021L85.8807 0.54602L99.5255 0.54602L99.5255 5.08905L95.3605 5.08905L95.3605 19.4665L95.0876 19.4665L89.782 19.4665L89.782 5.08905Z" fill="white"/>
<path fill-rule="evenodd" clip-rule="evenodd" d="M101.381 0.544434L109.496 0.544433C109.684 0.544433 110.081 0.569127 110.714 0.610453C111.406 0.671357 112.085 0.842077 112.723 1.11625C113.604 1.49182 114.386 2.0645 115.01 2.79025C115.768 3.76642 116.14 4.98917 116.051 6.22276C116.051 7.87814 115.658 9.1397 114.874 9.99422C114.167 10.7954 113.282 11.4184 112.289 11.8127L112.175 11.862L112.071 11.8956L117.374 19.4653L110.687 19.4653L106.954 13.6532L106.954 19.4653L101.381 19.4653L101.381 0.544434ZM107.986 9.05502C108.328 9.09314 108.674 9.057 109.001 8.94907C109.328 8.84113 109.627 8.66393 109.88 8.42954C110.223 8.05905 110.434 7.58497 110.479 7.08163L110.479 6.59446C110.411 6.10724 110.191 5.65379 109.852 5.29844C109.597 5.07785 109.3 4.91176 108.979 4.81041C108.659 4.70906 108.32 4.67462 107.986 4.70917L106.954 4.70917L106.954 9.05502L107.986 9.05502Z" fill="white"/>
<path fill-rule="evenodd" clip-rule="evenodd" d="M119.746 17.0066C118.038 15.0787 117.11 12.5812 117.146 10.0041C117.118 7.43982 118.029 4.95405 119.706 3.01651C121.411 1.00695 123.951 0.00144978 127.325 -4.46222e-07L127.597 -4.58136e-07C130.973 -6.06116e-07 133.512 1.0055 135.215 3.01651C136.893 4.95357 137.803 7.43994 137.772 10.0041C137.813 12.5669 136.902 15.0536 135.215 16.9818C133.51 18.9561 130.973 19.9631 127.597 19.9791L127.325 19.9992C124.004 19.9992 121.478 19.0017 119.746 17.0066ZM128.003 15.4286C128.206 15.3999 128.406 15.3501 128.599 15.2796C129.528 15.0031 130.354 14.4523 130.966 13.6991C131.682 12.8788 132.039 11.6471 132.037 10.0041C132.037 8.36364 131.675 7.13535 130.953 6.31098C130.339 5.56562 129.521 5.01644 128.599 4.7311C128.401 4.67825 128.202 4.63433 128.017 4.59817C127.833 4.56537 127.646 4.548 127.458 4.54621C127.251 4.54846 127.042 4.56583 126.837 4.59817C126.626 4.63275 126.42 4.68547 126.218 4.75573C125.316 5.06179 124.52 5.62118 123.927 6.36723C123.236 7.19018 122.885 8.40061 122.885 10.0041C122.885 11.6083 123.236 12.817 123.927 13.6435C124.52 14.3903 125.316 14.9503 126.218 15.2566C126.417 15.3207 126.619 15.3746 126.825 15.4181C127.026 15.4526 127.231 15.4697 127.436 15.4692C127.626 15.4675 127.815 15.4539 128.003 15.4286Z" fill="white"/>
<path fill-rule="evenodd" clip-rule="evenodd" d="M154.002 0.54602L147.936 0.54602L144.746 5.35242L141.559 0.54602L135.491 0.546021L142.032 10.3975L142.032 19.4665L147.613 19.4665L147.613 10.1594L154.002 0.54602Z" fill="white"/>
<path fill-rule="evenodd" clip-rule="evenodd" d="M19.3263 10.0045L25.6033 19.4668L31.6637 19.4668L25.3938 10.0045L19.3263 10.0045Z" fill="#D59000"/>
<path fill-rule="evenodd" clip-rule="evenodd" d="M25.3938 10.0042L31.6637 0.54602L25.6033 0.54602L19.3263 10.0042L25.3938 10.0042Z" fill="#FCCE01"/>
</svg>
