<svg width="161" height="38" viewBox="0 0 161 38" fill="none" xmlns="http://www.w3.org/2000/svg">
<path fill-rule="evenodd" clip-rule="evenodd" d="M19.5423 1.04203C16.122 0.965526 12.7501 1.85354 9.81765 3.60303C6.88523 5.35252 4.51256 7.89177 2.97497 10.9261C1.43737 13.9605 0.797895 17.3655 1.13073 20.7461C1.46357 24.1268 2.75508 27.3444 4.8554 30.0257C6.95571 32.7069 9.77873 34.7419 12.9969 35.8944C16.215 37.0469 19.6963 37.2698 23.0369 36.5371C26.3775 35.8044 29.4403 34.1462 31.87 31.7549C34.2997 29.3636 35.9966 26.3373 36.7639 23.0271L37.7822 23.2598C36.9706 26.7612 35.1756 29.9623 32.6056 32.4917C30.0355 35.0212 26.7958 36.7751 23.2623 37.5501C19.7288 38.3252 16.0464 38.0894 12.6423 36.8703C9.23831 35.6512 6.25223 33.4987 4.03059 30.6626C1.80896 27.8265 0.442848 24.423 0.0907845 20.8471C-0.261278 17.2712 0.415138 13.6694 2.04154 10.4598C3.66795 7.25021 6.17767 4.5643 9.27948 2.71375C12.3813 0.863208 15.948 -0.0761015 19.5658 0.00482074L19.5423 1.04203Z" fill="white"/>
<path d="M9.99515 28.7898L18.4158 9.50843H19.9792L28.2353 28.7898H26.5073L24.313 23.5882H13.9175L11.7232 28.7898H9.99515ZM14.4935 22.1721H23.737L19.1564 11.1424L14.4935 22.1721Z" fill="white"/>
<path fill-rule="evenodd" clip-rule="evenodd" d="M73.3247 15.9894C72.7366 12.5566 71.1562 9.3675 68.7758 6.81029C66.3954 4.25308 63.3176 2.43802 59.9171 1.58602C56.5167 0.734008 52.9401 0.881791 49.6226 2.01138C46.3052 3.14097 43.39 5.20365 41.2318 7.94839C39.0736 10.6931 37.7656 14.0016 37.4668 17.471C37.168 20.9405 37.8913 24.4214 39.5489 27.4901C41.2064 30.5588 43.7266 33.083 46.8027 34.7554C49.8788 36.4278 53.3782 37.1763 56.875 36.9099L56.955 37.9443C53.2562 38.2261 49.5546 37.4343 46.3008 35.6653C43.047 33.8963 40.3813 31.2264 38.628 27.9804C36.8748 24.7345 36.1096 21.0525 36.4257 17.3827C36.7417 13.7128 38.1254 10.2132 40.4082 7.30996C42.691 4.40668 45.7746 2.22485 49.2837 1.03001C52.7927 -0.164823 56.5759 -0.321142 60.1728 0.58008C63.7697 1.4813 67.0252 3.4012 69.5431 6.10612C72.061 8.81103 73.7327 12.1843 74.3548 15.8154L73.3247 15.9894Z" fill="white"/>
<path d="M55.4258 29.3073C52.5366 29.3073 50.132 28.3541 48.212 26.4477C46.3103 24.5232 45.3594 22.0904 45.3594 19.1491C45.3594 16.2079 46.3103 13.7841 48.212 11.8777C50.132 9.95324 52.5366 8.99099 55.4258 8.99099C58.3332 8.99099 60.7378 9.95324 62.6395 11.8777C64.5596 13.7841 65.5196 16.2079 65.5196 19.1491C65.5196 22.0904 64.5596 24.5232 62.6395 26.4477C60.7378 28.3541 58.3332 29.3073 55.4258 29.3073ZM55.4258 27.9184C57.9492 27.9184 59.9881 27.0741 61.5424 25.3856C63.0967 23.679 63.8738 21.6002 63.8738 19.1491C63.8738 16.6981 63.0875 14.6283 61.515 12.9399C59.9607 11.2332 57.9309 10.3799 55.4258 10.3799C52.9206 10.3799 50.8909 11.2332 49.3366 12.9399C47.7823 14.6283 47.0051 16.6981 47.0051 19.1491C47.0051 21.6002 47.7823 23.679 49.3366 25.3856C50.8909 27.0741 52.9206 27.9184 55.4258 27.9184Z" fill="white"/>
<path fill-rule="evenodd" clip-rule="evenodd" d="M93.6693 1.10115C89.9984 0.793459 86.3204 1.60588 83.1272 3.42977C79.9339 5.25366 77.3776 8.00207 75.8001 11.3075C74.2226 14.6129 73.6991 18.3177 74.2996 21.9265C74.9001 25.5353 76.596 28.876 79.1605 31.502C81.7249 34.1279 85.0357 35.9139 88.6502 36.621C92.2646 37.3282 96.0103 36.9228 99.3864 35.4592C102.763 33.9955 105.608 31.5433 107.543 28.4305C109.477 25.3177 110.408 21.6926 110.212 18.0401L111.255 17.9847C111.463 21.8482 110.478 25.6826 108.432 28.9753C106.386 32.2679 103.376 34.8617 99.8046 36.41C96.2334 37.9582 92.2713 38.3869 88.4482 37.6389C84.625 36.8909 81.1229 35.0018 78.4103 32.2242C75.6977 29.4465 73.9039 25.9128 73.2687 22.0956C72.6335 18.2783 73.1872 14.3595 74.8559 10.8632C76.5245 7.36688 79.2285 4.45972 82.6062 2.53048C85.9839 0.601241 89.8743 -0.258108 93.7572 0.0673522L93.6693 1.10115Z" fill="white"/>
<path d="M85.0035 28.7898V9.50843H86.5669V18.0598H97.895V9.50843H99.4585V28.7898H97.895V19.5032H86.5669V28.7898H85.0035Z" fill="white"/>
<path d="M136.705 4.71907C136.22 5.2002 135.611 5.44076 134.877 5.44076C134.143 5.44076 133.534 5.2002 133.049 4.71907C132.565 4.23336 132.323 3.62164 132.323 2.88391C132.323 2.14618 132.565 1.53675 133.049 1.05563C133.534 0.569918 134.143 0.327063 134.877 0.327063C135.611 0.327063 136.22 0.569918 136.705 1.05563C137.189 1.53675 137.431 2.14618 137.431 2.88391C137.431 3.62164 137.189 4.23336 136.705 4.71907ZM133.403 4.38915C133.776 4.79697 134.268 5.00087 134.877 5.00087C135.486 5.00087 135.975 4.79697 136.345 4.38915C136.718 3.97676 136.905 3.47501 136.905 2.88391C136.905 2.29281 136.718 1.79106 136.345 1.37867C135.975 0.966275 135.486 0.760077 134.877 0.760077C134.268 0.760077 133.776 0.966275 133.403 1.37867C133.033 1.79106 132.849 2.29281 132.849 2.88391C132.849 3.47501 133.033 3.97676 133.403 4.38915Z" fill="white"/>
<path d="M128.185 5.31704V0.450781H129.645C129.848 0.450781 130.038 0.471401 130.213 0.51264C130.388 0.549298 130.555 0.613448 130.711 0.705092C130.868 0.792153 130.993 0.920453 131.085 1.08999C131.178 1.25953 131.224 1.46115 131.224 1.69484C131.224 1.95144 131.143 2.17597 130.981 2.36842C130.825 2.55629 130.617 2.68001 130.358 2.73957V2.75332C130.686 2.78998 130.951 2.91599 131.154 3.13135C131.362 3.34671 131.466 3.62622 131.466 3.96988C131.466 4.3777 131.302 4.70532 130.975 4.95276C130.647 5.19561 130.202 5.31704 129.638 5.31704H128.185ZM128.683 4.8909H129.611C130.003 4.8909 130.326 4.813 130.58 4.65721C130.834 4.50142 130.961 4.26314 130.961 3.94239C130.961 3.62622 130.852 3.38795 130.635 3.22757C130.418 3.0672 130.107 2.98701 129.701 2.98701H128.683V4.8909ZM128.683 2.58149H129.687C129.968 2.58149 130.211 2.51276 130.414 2.37529C130.621 2.23783 130.725 2.02246 130.725 1.72921C130.725 1.43595 130.617 1.22058 130.4 1.08312C130.183 0.945655 129.899 0.876923 129.548 0.876923H128.683V2.58149Z" fill="white"/>
<path d="M125.31 5.31704V0.890669H123.669V0.450781H127.449V0.890669H125.808V5.31704H125.31Z" fill="white"/>
<path d="M121.546 5.44076C120.807 5.44076 120.196 5.2002 119.711 4.71907C119.231 4.23336 118.991 3.62164 118.991 2.88391C118.991 2.14618 119.234 1.53675 119.718 1.05563C120.203 0.569918 120.812 0.327063 121.546 0.327063C121.906 0.327063 122.243 0.398086 122.556 0.540133C122.875 0.677598 123.12 0.863176 123.29 1.09687L122.875 1.39929C122.76 1.22517 122.582 1.07625 122.342 0.952528C122.107 0.824228 121.843 0.760077 121.553 0.760077C120.939 0.760077 120.445 0.966275 120.071 1.37867C119.702 1.79106 119.518 2.29281 119.518 2.88391C119.518 3.47501 119.704 3.97676 120.078 4.38915C120.452 4.80155 120.944 5.00775 121.553 5.00775C122.19 5.00775 122.67 4.76718 122.993 4.28605L123.38 4.53349C123.205 4.79926 122.958 5.01691 122.64 5.18645C122.326 5.35599 121.961 5.44076 121.546 5.44076Z" fill="white"/>
<path d="M116.589 5.31704V0.890669H114.948V0.450781H118.728V0.890669H117.087V5.31704H116.589Z" fill="white"/>
<path d="M110.547 5.31704V0.450781H111.046V2.56087H113.718V0.450781H114.216V5.31704H113.718V3.0145H111.046V5.31704H110.547Z" fill="white"/>
<path d="M106.451 5.31704V0.450781H109.49V0.890669H106.949V2.56774H109.323V3.00076H106.949V4.87715H109.573V5.31704H106.451Z" fill="white"/>
<path d="M102.935 5.31704V0.450781H105.718V0.890669H103.434V5.31704H102.935Z" fill="white"/>
<path d="M97.5066 5.31704L99.6249 0.450781H100.109L102.214 5.31704H101.66L101.12 4.03862H98.5865L98.0535 5.31704H97.5066ZM98.7734 3.58498H100.933L99.8533 1.00064L98.7734 3.58498Z" fill="white"/>
<path d="M156.77 14.2652L158.57 11.7084L156.93 9.39897H157.553L158.896 11.3647L160.232 9.39897H160.827L159.2 11.7153L161 14.2652H160.377L158.882 12.0727L157.393 14.2652H156.77Z" fill="white"/>
<path d="M151.624 14.2652V9.39897H152.123V11.5091H152.981C153.521 11.5091 153.95 11.6282 154.269 11.8665C154.587 12.1002 154.746 12.4415 154.746 12.8906C154.746 13.3396 154.59 13.681 154.276 13.9147C153.967 14.1484 153.54 14.2652 152.995 14.2652H151.624ZM152.123 13.8391H152.94C153.807 13.8391 154.241 13.5252 154.241 12.8975C154.241 12.5859 154.128 12.3476 153.902 12.1826C153.68 12.0177 153.36 11.9352 152.94 11.9352H152.123V13.8391ZM155.487 14.2652V9.39897H155.986V14.2652H155.487Z" fill="white"/>
<path d="M146.656 14.2652V9.39897H147.154V11.5091H149.826V9.39897H150.325V14.2652H149.826V11.9627H147.154V14.2652H146.656Z" fill="white"/>
<path d="M142.572 14.2652V9.39897H143.071V11.5091H143.929C144.469 11.5091 144.898 11.6282 145.217 11.8665C145.535 12.1002 145.695 12.4415 145.695 12.8906C145.695 13.3396 145.538 13.681 145.224 13.9147C144.915 14.1484 144.488 14.2652 143.943 14.2652H142.572ZM143.071 13.8391H143.888C144.755 13.8391 145.189 13.5252 145.189 12.8975C145.189 12.5859 145.076 12.3476 144.85 12.1826C144.628 12.0177 144.308 11.9352 143.888 11.9352H143.071V13.8391Z" fill="white"/>
<path d="M137.275 14.3133C137.109 14.3133 136.952 14.2927 136.804 14.2515L136.894 13.8047C137.014 13.8414 137.114 13.8597 137.192 13.8597C137.474 13.8597 137.695 13.7497 137.857 13.5298C138.023 13.3098 138.143 12.9547 138.217 12.4644C138.295 11.9696 138.334 11.2983 138.334 10.4506V9.39897H141.269V14.2652H140.771V9.83199H138.819V10.698C138.819 11.9398 138.703 12.8539 138.473 13.4404C138.242 14.0224 137.843 14.3133 137.275 14.3133Z" fill="white"/>
<path d="M131.938 14.2652L134.057 9.39897H134.541L136.646 14.2652H136.092L135.552 12.9868H133.018L132.485 14.2652H131.938ZM133.205 12.5332H135.365L134.285 9.94883L133.205 12.5332Z" fill="white"/>
<path d="M127.443 14.2652V9.39897H127.941V13.4954H127.955L130.655 9.39897H131.216V14.2652H130.717V10.1275H130.704L128.004 14.2652H127.443Z" fill="white"/>
<path d="M126.057 15.4612V14.2652H122.305V9.39897H122.804V13.8253H125.476V9.39897H125.974V13.8253H126.528V15.4612H126.057Z" fill="white"/>
<path d="M117.228 14.2652V9.39897H117.727V13.4954H117.741L120.44 9.39897H121.001V14.2652H120.503V10.1275H120.489L117.789 14.2652H117.228Z" fill="white"/>
<path d="M113.422 14.3958V13.8116C112.721 13.8024 112.16 13.6077 111.74 13.2274C111.32 12.8471 111.11 12.3568 111.11 11.7565C111.11 11.1425 111.322 10.6522 111.747 10.2856C112.176 9.91905 112.734 9.7266 113.422 9.70827V9.27525H113.92V9.70827C114.608 9.7266 115.164 9.91905 115.589 10.2856C116.018 10.6522 116.233 11.1425 116.233 11.7565C116.233 12.3568 116.023 12.8471 115.603 13.2274C115.183 13.6077 114.622 13.8024 113.92 13.8116V14.3958H113.422ZM113.422 13.3786V10.1413C112.859 10.1596 112.421 10.32 112.107 10.6224C111.793 10.9203 111.636 11.3006 111.636 11.7634C111.636 12.2399 111.788 12.6202 112.093 12.9043C112.402 13.1884 112.845 13.3465 113.422 13.3786ZM113.92 13.3786C114.497 13.3465 114.938 13.1884 115.243 12.9043C115.552 12.6202 115.706 12.2399 115.706 11.7634C115.706 11.3006 115.55 10.9203 115.236 10.6224C114.922 10.32 114.483 10.1596 113.92 10.1413V13.3786Z" fill="white"/>
<path d="M109.652 13.6673C109.167 14.1484 108.558 14.389 107.824 14.389C107.091 14.389 106.481 14.1484 105.997 13.6673C105.512 13.1816 105.27 12.5698 105.27 11.8321C105.27 11.0944 105.512 10.4849 105.997 10.0038C106.481 9.51811 107.091 9.27525 107.824 9.27525C108.558 9.27525 109.167 9.51811 109.652 10.0038C110.137 10.4849 110.379 11.0944 110.379 11.8321C110.379 12.5698 110.137 13.1816 109.652 13.6673ZM106.35 13.3373C106.724 13.7452 107.215 13.9491 107.824 13.9491C108.434 13.9491 108.923 13.7452 109.292 13.3373C109.666 12.9249 109.853 12.4232 109.853 11.8321C109.853 11.241 109.666 10.7393 109.292 10.3269C108.923 9.91447 108.434 9.70827 107.824 9.70827C107.215 9.70827 106.724 9.91447 106.35 10.3269C105.981 10.7393 105.796 11.241 105.796 11.8321C105.796 12.4232 105.981 12.9249 106.35 13.3373Z" fill="white"/>
<path d="M148.182 23.2134V18.3472H148.681V22.4436H148.695L151.395 18.3472H151.955V23.2134H151.457V19.0757H151.443L148.743 23.2134H148.182ZM150.758 17.6461C150.578 17.8019 150.347 17.8798 150.065 17.8798C149.784 17.8798 149.551 17.8019 149.366 17.6461C149.186 17.4857 149.082 17.2704 149.055 17L149.373 16.9381C149.405 17.1123 149.484 17.252 149.609 17.3574C149.738 17.4582 149.89 17.5086 150.065 17.5086C150.241 17.5086 150.391 17.4582 150.515 17.3574C150.645 17.252 150.725 17.1123 150.758 16.9381L151.076 17C151.048 17.2704 150.942 17.4857 150.758 17.6461Z" fill="white"/>
<path d="M144.086 23.2134V18.3472H147.125V18.7871H144.584V20.4641H146.959V20.8971H144.584V22.7735H147.208V23.2134H144.086Z" fill="white"/>
<path d="M141.211 23.2134V18.7871H139.57V18.3472H143.35V18.7871H141.709V23.2134H141.211Z" fill="white"/>
<path d="M137.447 23.3371C136.708 23.3371 136.097 23.0966 135.612 22.6155C135.132 22.1297 134.892 21.518 134.892 20.7803C134.892 20.0426 135.135 19.4331 135.619 18.952C136.104 18.4663 136.713 18.2234 137.447 18.2234C137.807 18.2234 138.144 18.2945 138.458 18.4365C138.776 18.574 139.021 18.7596 139.191 18.9932L138.776 19.2957C138.661 19.1215 138.483 18.9726 138.243 18.8489C138.008 18.7206 137.744 18.6565 137.454 18.6565C136.84 18.6565 136.346 18.8627 135.972 19.2751C135.603 19.6874 135.419 20.1892 135.419 20.7803C135.419 21.3714 135.605 21.8731 135.979 22.2855C136.353 22.6979 136.845 22.9041 137.454 22.9041C138.091 22.9041 138.571 22.6636 138.894 22.1824L139.281 22.4299C139.106 22.6956 138.859 22.9133 138.541 23.0828C138.227 23.2524 137.862 23.3371 137.447 23.3371Z" fill="white"/>
<path d="M133.393 22.6155C132.908 23.0966 132.299 23.3371 131.565 23.3371C130.832 23.3371 130.222 23.0966 129.738 22.6155C129.253 22.1297 129.011 21.518 129.011 20.7803C129.011 20.0426 129.253 19.4331 129.738 18.952C130.222 18.4663 130.832 18.2234 131.565 18.2234C132.299 18.2234 132.908 18.4663 133.393 18.952C133.878 19.4331 134.12 20.0426 134.12 20.7803C134.12 21.518 133.878 22.1297 133.393 22.6155ZM130.091 22.2855C130.465 22.6933 130.956 22.8973 131.565 22.8973C132.175 22.8973 132.664 22.6933 133.033 22.2855C133.407 21.8731 133.594 21.3714 133.594 20.7803C133.594 20.1892 133.407 19.6874 133.033 19.2751C132.664 18.8627 132.175 18.6565 131.565 18.6565C130.956 18.6565 130.465 18.8627 130.091 19.2751C129.722 19.6874 129.537 20.1892 129.537 20.7803C129.537 21.3714 129.722 21.8731 130.091 22.2855Z" fill="white"/>
<path d="M124.873 23.2134V18.3472H126.334C126.537 18.3472 126.726 18.3678 126.901 18.409C127.077 18.4457 127.243 18.5098 127.4 18.6015C127.557 18.6885 127.681 18.8168 127.774 18.9864C127.866 19.1559 127.912 19.3575 127.912 19.5912C127.912 19.8478 127.831 20.0723 127.67 20.2648C127.513 20.4527 127.305 20.5764 127.047 20.636V20.6497C127.374 20.6864 127.64 20.8124 127.843 21.0277C128.051 21.2431 128.154 21.5226 128.154 21.8663C128.154 22.2741 127.991 22.6017 127.663 22.8491C127.335 23.092 126.89 23.2134 126.327 23.2134H124.873ZM125.372 22.7873H126.299C126.691 22.7873 127.014 22.7094 127.268 22.5536C127.522 22.3978 127.649 22.1595 127.649 21.8388C127.649 21.5226 127.541 21.2843 127.324 21.124C127.107 20.9636 126.795 20.8834 126.389 20.8834H125.372V22.7873ZM125.372 20.4779H126.375C126.657 20.4779 126.899 20.4091 127.102 20.2717C127.31 20.1342 127.414 19.9188 127.414 19.6256C127.414 19.3323 127.305 19.117 127.088 18.9795C126.871 18.842 126.588 18.7733 126.237 18.7733H125.372V20.4779Z" fill="white"/>
<path d="M123.111 22.6155C122.626 23.0966 122.017 23.3371 121.283 23.3371C120.549 23.3371 119.94 23.0966 119.456 22.6155C118.971 22.1297 118.729 21.518 118.729 20.7803C118.729 20.0426 118.971 19.4331 119.456 18.952C119.94 18.4663 120.549 18.2234 121.283 18.2234C122.017 18.2234 122.626 18.4663 123.111 18.952C123.595 19.4331 123.837 20.0426 123.837 20.7803C123.837 21.518 123.595 22.1297 123.111 22.6155ZM119.809 22.2855C120.182 22.6933 120.674 22.8973 121.283 22.8973C121.892 22.8973 122.381 22.6933 122.751 22.2855C123.124 21.8731 123.311 21.3714 123.311 20.7803C123.311 20.1892 123.124 19.6874 122.751 19.2751C122.381 18.8627 121.892 18.6565 121.283 18.6565C120.674 18.6565 120.182 18.8627 119.809 19.2751C119.439 19.6874 119.255 20.1892 119.255 20.7803C119.255 21.3714 119.439 21.8731 119.809 22.2855Z" fill="white"/>
<path d="M114.023 23.2134V18.3472H114.521V20.4573H117.193V18.3472H117.692V23.2134H117.193V20.9109H114.521V23.2134H114.023Z" fill="white"/>
</svg>
