<svg width="158" height="35" viewBox="0 0 158 35" fill="none" xmlns="http://www.w3.org/2000/svg">
<path fill-rule="evenodd" clip-rule="evenodd" d="M28.5019 10.6351C28.6931 11.5898 28.9168 12.3239 29.1788 12.8402C29.4374 13.3489 29.8783 13.6039 30.4987 13.6039L28.8536 17.6457C28.2057 19.2262 27.519 21.6272 26.7757 24.8317C26.0444 28.0498 25.8119 30.3366 26.081 31.7068C26.3463 33.0593 26.97 33.9435 27.9423 34.3677C28.9103 34.7815 29.8391 34.9919 30.7376 34.9919C32.1071 34.9919 33.6847 34.838 35.4686 34.5133C37.2474 34.197 38.5881 33.8655 39.4903 33.5219C39.9138 33.3639 40.1774 33.11 40.3051 32.7759C40.4219 32.4455 40.3794 31.7563 40.1746 30.7136C40.0648 30.1616 39.8209 29.8855 39.4225 29.8855C38.8741 29.8855 38.244 30.0077 37.5404 30.2556C36.8342 30.497 36.1189 30.6941 35.3957 30.8382C34.6695 30.9944 33.5261 31.0659 31.9609 31.0659C31.5635 31.0659 31.3 31.0193 31.1668 30.9253C31.0375 30.8382 30.9472 30.6738 30.8998 30.438C30.7748 29.8048 30.8998 28.7015 31.2705 27.1193C31.6341 25.5328 32.0096 24.2272 32.3823 23.1901L35.5661 23.1099C36.917 23.0768 37.8172 23.0402 38.273 22.9849C38.7293 22.9327 39.0201 22.8211 39.1425 22.65C39.2642 22.4717 39.3084 22.1549 39.26 21.6917C39.2241 21.2625 39.2193 20.9447 39.2352 20.7339C39.2401 20.6808 39.2518 20.6054 39.2702 20.5184C39.2854 20.4157 39.2928 20.3322 39.2778 20.2569C39.1581 19.6528 38.357 19.3476 36.8793 19.3476C35.7369 19.3476 34.4729 19.426 33.0831 19.5924C33.4733 18.2989 34.0236 16.7518 34.7375 14.9534C35.0856 14.0474 35.371 13.4422 35.5856 13.1287C35.7993 12.8105 36.101 12.6192 36.4914 12.5355C36.8821 12.4547 37.6335 12.4164 38.7583 12.4164C39.0652 12.4164 40.0559 12.4823 41.7426 12.6192C41.8046 12.6192 41.9209 12.6289 42.0928 12.6413C42.2593 12.6543 42.3886 12.6612 42.4657 12.6612C42.9581 12.6612 43.1702 12.5026 43.1056 12.1809C43.0625 11.9666 42.8518 11.5441 42.4733 10.9193C41.7987 9.79863 41.2313 9.09157 40.759 8.78531C40.2876 8.48017 39.6078 8.32825 38.7215 8.32825C36.7526 8.32825 34.5134 8.48017 32.0031 8.78531C29.4861 9.09176 28.3215 9.70409 28.5019 10.6351Z" fill="#ED1C24"/>
<path fill-rule="evenodd" clip-rule="evenodd" d="M122.213 32.5598C122.631 31.9164 122.981 31.4139 123.258 31.0554C123.548 30.6866 124.099 29.9897 124.897 28.9573C125.7 27.9293 126.492 26.9138 127.274 25.9235C128.049 24.9341 128.795 24.0139 129.496 23.1528C130.209 22.2972 130.997 21.3673 131.868 20.3662L130.813 24.9687C130.432 26.6944 130.185 27.8409 130.076 28.4062C129.974 28.9697 129.901 29.5447 129.862 30.1229C129.823 30.7088 129.845 31.2268 129.934 31.6815C130.048 32.2673 130.378 32.8111 130.905 33.3043C131.438 33.8078 132.014 34.2025 132.646 34.5019C133.28 34.8007 133.761 34.9495 134.099 34.9495C134.553 34.9495 134.845 34.5688 134.962 33.8006C135.076 33.0345 135.212 31.4447 135.354 29.0303C135.509 26.6244 135.753 24.2709 136.099 21.9802C136.441 19.6844 137.01 17.3031 137.814 14.8367C139.5 13.386 140.273 12.3119 140.137 11.6078C140.048 11.1584 139.748 10.6139 139.241 9.97032C138.727 9.32808 138.231 9.00752 137.751 9.00752C137.293 9.00752 136.367 9.6817 134.962 11.0358C133.555 12.3923 132.009 14.0067 130.312 15.8886C128.624 17.7739 127.076 19.5438 125.668 21.2079C124.257 22.8644 123.405 23.9108 123.096 24.3285C123.579 22.0602 124.013 20.1956 124.397 18.7406C124.79 17.2895 125.196 15.8867 125.612 14.5194C126.033 13.156 126.29 12.2653 126.401 11.848C126.503 11.427 126.529 11.086 126.479 10.8269C126.437 10.6137 126.186 10.297 125.739 9.87913C125.294 9.45958 124.809 9.0807 124.29 8.74027C123.776 8.40095 123.416 8.22729 123.208 8.22729C122.843 8.22729 122.512 8.5798 122.212 9.27794C121.911 9.97793 121.592 11.0096 121.274 12.3732C120.949 13.7312 120.776 14.4435 120.761 14.5012C119.019 21.1314 117.94 25.5955 117.517 27.889C117.097 30.1799 116.925 31.5405 117.009 31.9846C117.078 32.3074 117.517 32.7683 118.346 33.3441C119.164 33.9191 119.838 34.2075 120.367 34.2075C120.711 34.2075 120.997 34.0959 121.232 33.8682C121.461 33.6405 121.787 33.2061 122.213 32.5598Z" fill="#ED1C24"/>
<path fill-rule="evenodd" clip-rule="evenodd" d="M157.239 11.2018C156.785 10.7997 156.308 10.4303 155.796 10.0958C155.283 9.76076 154.965 9.59342 154.833 9.59342C154.425 9.59342 153.943 10.2254 153.397 11.4726C152.852 12.7271 152.35 14.082 151.903 15.5414C151.45 17.0014 151.134 18.0665 150.968 18.7233L149.709 19.0964C149.301 19.2349 148.705 19.3662 147.926 19.5124C147.156 19.6599 146.593 19.733 146.254 19.733C145.768 19.733 145.467 19.4286 145.352 18.8392C145.278 18.4586 145.385 17.7467 145.657 16.7041C145.939 15.6562 146.236 14.7376 146.544 13.9388C146.79 13.3685 146.998 12.8694 147.189 12.4694C147.366 12.0591 147.498 11.7458 147.568 11.5179C147.643 11.2906 147.661 11.0775 147.625 10.897C147.59 10.7189 147.364 10.4073 146.936 9.96524C146.518 9.52749 146.071 9.12243 145.594 8.76435C145.122 8.40795 144.783 8.22705 144.583 8.22705C144.244 8.22705 143.724 9.00728 143.021 10.5592C142.312 12.1109 141.706 13.7862 141.207 15.5971C140.698 17.4003 140.534 18.7101 140.689 19.5052C140.856 20.3608 141.355 21.2658 142.179 22.2401C143.01 23.2135 143.816 23.6992 144.597 23.6992C145.017 23.6992 145.894 23.5214 147.236 23.1715C148.572 22.8257 149.593 22.5302 150.306 22.2899C150.181 22.6989 149.945 23.6778 149.601 25.2112C149.252 26.7451 148.959 28.1867 148.727 29.5263C148.488 30.8687 148.408 31.7475 148.488 32.1552C148.605 32.7482 149.151 33.2658 150.117 33.7146C150.606 33.9428 151.079 34.2054 151.524 34.4994C151.979 34.7875 152.266 34.9362 152.393 34.9362C152.771 34.9362 153.042 34.6777 153.186 34.1688C153.329 33.6468 153.435 32.8171 153.506 31.6799C153.573 30.5403 153.611 29.925 153.623 29.8149C153.943 27.2519 154.238 25.2297 154.498 23.741C154.76 22.2554 155.05 20.9596 155.377 19.8376C155.702 18.7233 156.202 17.1988 156.87 15.277C157.101 14.5959 157.36 13.9462 157.625 13.3335C157.896 12.727 158.018 12.3583 157.997 12.2322C157.939 11.9566 157.687 11.6102 157.239 11.2018Z" fill="#ED1C24"/>
<path fill-rule="evenodd" clip-rule="evenodd" d="M26.7964 6.29147C26.8221 6.23186 26.8497 6.1455 26.8728 6.10315C27.4339 4.50276 28.3198 5.59631 28.8028 5.51292C29.5642 5.27649 29.9999 4.59581 30.1605 3.63357C30.2597 3.05746 30.3182 1.87514 30.0105 1.38353C29.8253 1.08674 29.1722 0.590111 28.0231 0.369285C25.4927 -0.12177 21.027 -0.11527 17.1641 0.342169C14.2947 0.688917 10.5313 1.50406 5.53672 3.34719C3.8298 3.97716 1.16119 4.31481 0.370804 6.36577C-0.269454 8.02205 -0.0264308 8.91446 0.686289 9.33401C2.25721 10.2558 6.11214 8.8866 7.8538 8.33389C7.90192 8.3727 7.95283 8.41152 8.02585 8.46816C7.38671 12.0818 5.97465 16.4268 5.54285 20.4273C4.65697 23.0393 2.95079 29.5215 4.37474 32.0854C7.31276 33.8739 9.10571 28.8035 8.88386 28.6326C9.6278 26.3991 11.9568 16.6142 12.2321 13.9671C12.2979 13.3007 12.354 12.7662 12.4571 12.0747C12.6557 10.7303 12.6805 9.39251 12.9073 8.1294C12.9696 7.77727 13.1717 7.48642 13.4602 7.25148C14.7391 6.20326 17.7397 6.18747 18.2505 6.18747C18.6479 6.09126 19.7536 5.92207 20.6346 5.63977C21.0239 5.51645 21.0272 6.07882 20.9219 6.7309C20.8163 7.37871 20.6049 8.11696 20.5572 8.34559C20.4459 8.88846 20.3377 9.35333 20.2095 9.92573C20.0494 10.6428 19.7181 12.1059 18.9587 15.3708C17.2384 23.2503 15.9083 30.2588 17.3728 34.0626C17.7247 34.5773 18.9175 35.1274 19.2625 34.9738C20.1454 34.8106 20.7803 34.4263 21.2387 33.9046C22.0406 32.9921 22.2908 31.6545 22.3577 30.3331C22.4785 27.9131 22.8207 24.207 23.3742 20.5499C23.7415 18.1229 24.902 12.722 25.8533 9.20827C26.2154 7.87403 26.5599 6.83008 26.7964 6.29147Z" fill="#ED1C24"/>
<path fill-rule="evenodd" clip-rule="evenodd" d="M50.54 34.9918C50.8622 34.9918 51.0772 34.7494 51.181 34.2665C51.278 33.7838 51.5021 32.3688 51.8436 30.0277C52.1862 27.6945 52.6516 25.1805 53.2415 22.4816C53.8311 19.7882 54.6911 16.5956 55.8289 12.8945C56.2598 12.776 57.0775 12.6907 58.2698 12.6246C59.4633 12.5622 60.3435 12.4469 60.9096 12.2838C61.4731 12.1105 61.6983 11.753 61.5874 11.2048C61.513 10.8164 61.2851 10.3798 60.9057 9.919C60.5248 9.44986 60.0077 9.05148 59.3463 8.72516C58.691 8.39235 57.9521 8.22705 57.1355 8.22705C56.9235 8.22705 56.5987 8.25175 56.1637 8.3045C55.6825 8.35631 54.9466 8.40627 53.9635 8.46329C52.9697 8.51437 52.2312 8.56581 51.7419 8.60946C48.9316 8.82044 46.9631 9.05575 45.8252 9.31744C44.6904 9.57374 44.1791 10.012 44.3008 10.635C44.6686 12.4991 45.4408 13.4279 46.6297 13.4279C46.8148 13.4279 48.1399 13.3252 50.6028 13.1211C50.3137 14.2202 49.9005 15.8557 49.3613 18.0374C48.8301 20.2274 48.3517 22.2678 47.9322 24.1665C47.5 26.0631 47.1472 27.8252 46.8631 29.4464C46.5703 31.0758 46.4729 32.1045 46.5597 32.5447C46.6426 32.9613 46.9434 33.3485 47.4653 33.7326C47.9914 34.1049 48.5676 34.4077 49.2021 34.6419C49.8381 34.8766 50.2885 34.9918 50.54 34.9918Z" fill="#ED1C24"/>
<path fill-rule="evenodd" clip-rule="evenodd" d="M92.6856 21.0354C92.383 22.8087 91.8828 24.4581 91.1939 26.0078C90.496 27.5575 89.7322 28.8003 88.9004 29.7422C88.065 30.6903 87.307 31.1648 86.6292 31.1648C86.3403 31.1648 86.0352 30.9529 85.7063 30.5252C85.3832 30.098 85.1471 29.5174 84.9996 28.7907C84.6629 27.067 84.6434 25.258 84.9429 23.395C85.2404 21.5248 85.7348 19.8159 86.4192 18.2514C87.1119 16.6984 87.8716 15.4425 88.6997 14.4853C89.5286 13.5288 90.2554 13.0524 90.8871 13.0524C91.6846 13.0524 92.2813 14.07 92.6853 16.1105C92.9825 17.6277 92.9831 19.269 92.6856 21.0354ZM96.3128 12.9958C95.8659 11.9808 95.4083 11.2 94.9568 10.6512C94.5039 10.1094 94.1516 9.83511 93.9214 9.83511C93.7895 9.83511 93.5104 9.94079 93.0935 10.1648C92.6762 10.3802 92.3733 10.5531 92.2003 10.6748C91.6938 10.0829 91.101 9.52718 90.4215 9.00418C89.7487 8.48471 89.1965 8.22729 88.7861 8.22729C88.1546 8.22729 87.247 8.77555 86.0802 9.87727C84.9135 10.9799 83.7895 12.4674 82.702 14.3289C81.6192 16.2006 80.8193 18.3417 80.3004 20.7596C79.7785 23.1811 79.7723 25.6594 80.2725 28.1869C80.5666 29.698 81.1285 30.9666 81.9382 31.9924C82.7505 33.0207 83.6555 33.7726 84.6436 34.2577C85.632 34.7497 86.5424 34.9922 87.3731 34.9922C89.3301 34.9922 91.2108 34.1165 93.0138 32.3687C94.8115 30.6154 96.14 28.3037 96.996 25.4389C97.8536 22.5806 97.9853 19.6081 97.3794 16.5347C97.1152 15.1972 96.762 14.0146 96.3128 12.9958ZM111.816 16.0857C111.247 16.846 110.474 17.5523 109.491 18.2113C108.513 18.8777 107.486 19.3992 106.409 19.7728C106.996 16.5173 107.224 14.5287 107.084 13.8161C107.005 13.4159 106.735 13.021 106.281 12.631C107.201 12.3494 108.228 12.2116 109.363 12.2116C110.26 12.2116 110.98 12.379 111.524 12.7333C112.06 13.0819 112.378 13.5175 112.48 14.0403C112.602 14.6513 112.378 15.3327 111.816 16.0857ZM109.89 27.2808C109.266 28.1557 108.385 28.8737 107.253 29.4337C106.117 30.005 104.928 30.2817 103.689 30.2817C104.215 28.5021 104.622 27.1288 104.918 26.1801C105.204 25.2237 105.458 24.2839 105.661 23.3293C106.44 23.1012 107.157 22.9848 107.815 22.9848C109.436 22.9848 110.358 23.5646 110.584 24.7012C110.747 25.5414 110.519 26.4043 109.89 27.2808ZM115.781 18.1281C116.646 16.7699 116.938 15.3517 116.646 13.8863C116.321 12.2155 115.368 10.8585 113.787 9.80837C112.217 8.75679 110.28 8.22748 107.996 8.22748C107.001 8.22748 105.639 8.38089 103.926 8.68622C102.281 8.97056 101.062 9.25918 100.259 9.54612C99.4643 9.8353 99.1265 10.2877 99.2523 10.9092C99.3807 11.5635 99.7002 12.2155 100.219 12.8749C100.733 13.5271 101.415 13.9266 102.27 14.0787C101.918 17.1263 101.497 19.7169 100.987 21.8565C100.477 24.0001 99.9942 25.67 99.5304 26.8748C99.0687 28.0706 98.6847 29.1125 98.3787 29.9845C98.0697 30.852 97.9764 31.6033 98.1029 32.2401C98.1377 32.4179 98.397 32.7366 98.8833 33.1896C99.3699 33.6351 99.8916 34.0508 100.445 34.4265C101 34.7991 101.399 34.9924 101.65 34.9924C102.019 34.9924 102.296 34.8265 102.488 34.498C102.685 34.1641 102.897 33.5692 103.123 32.6941C104.45 34.232 105.737 34.9924 106.994 34.9924C108.187 34.9924 109.484 34.4361 110.877 33.3047C112.266 32.1744 113.387 30.8229 114.231 29.2587C115.074 27.6838 115.379 26.2927 115.14 25.0918C115.015 24.4551 114.715 23.7871 114.242 23.1012C113.771 22.4079 113.096 21.8036 112.217 21.2702C113.723 20.5243 114.91 19.4839 115.781 18.1281ZM74.0273 16.9833C73.2897 17.9455 72.322 18.8507 71.1335 19.7058C69.9316 20.5523 68.8121 21.1424 67.759 21.4585C67.898 20.3614 68.1797 18.7958 68.6105 16.7522C68.8643 15.5365 69.0609 14.7291 69.2038 14.322C69.3324 13.9101 69.5514 13.6222 69.8407 13.4547C70.1363 13.2829 70.6367 13.1742 71.3544 13.1224C71.5406 13.0988 71.8261 13.0821 72.2089 13.0821C73.8357 13.0821 74.7411 13.5689 74.934 14.5456C75.0681 15.2131 74.7651 16.0292 74.0273 16.9833ZM78.1533 11.4119C77.3668 10.4996 76.3078 9.73723 74.9498 9.13159C73.6046 8.52631 72.0629 8.22748 70.3206 8.22748C69.3235 8.22748 68.2746 8.33557 67.166 8.55213C66.0542 8.76107 65.1302 9.08256 64.3868 9.49765C63.6423 9.91776 63.3218 10.3953 63.4277 10.9452C63.7657 12.6418 64.3835 13.7026 65.2955 14.114C64.4515 17.6695 63.7737 20.4197 63.2782 22.36C62.7841 24.3054 62.2676 26.2613 61.7386 28.2458C61.2067 30.2185 60.896 31.4553 60.8022 31.9333C60.7171 32.4173 60.6978 32.8163 60.7563 33.1212C60.8494 33.5887 61.0462 33.8938 61.357 34.0419C61.6582 34.1912 62.1704 34.3409 62.8798 34.4974C63.2388 34.5799 63.6243 34.6815 64.0197 34.8078C64.413 34.9287 64.6861 34.9918 64.8361 34.9918C65.2742 34.9918 65.6047 34.7493 65.8175 34.2731C66.0228 33.7965 66.1998 33.0623 66.3444 32.0814C66.4854 31.0976 66.6717 29.7782 66.912 28.1295C67.1509 26.4858 67.4686 24.8855 67.8464 23.3287C69.0005 25.0381 69.9516 25.8921 70.6985 25.8921C71.5787 25.8921 72.8001 25.1598 74.3483 23.6937C75.9031 22.2274 77.2223 20.5627 78.3094 18.6971C79.3954 16.8319 79.8268 15.3216 79.5936 14.1513C79.4202 13.2474 78.9361 12.3333 78.1533 11.4119Z" fill="#ED1C24"/>
</svg>
