<svg width="110" height="42" viewBox="0 0 110 42" fill="none" xmlns="http://www.w3.org/2000/svg">
<path d="M17.7261 4.375H12.9414V0H27.7726V4.375H22.9879V17.0625H17.7261V4.375Z" fill="white"/>
<path d="M34.5557 11.4908C33.9753 11.7739 33.3305 11.9412 32.6857 12.0828C31.6281 12.3272 31.0865 12.5846 31.0865 13.421C31.0865 14 31.7055 14.5662 32.5696 14.5662C33.64 14.5662 34.4912 13.9228 34.5557 12.6361V11.4908ZM39.0953 14.2831C39.0953 15.2096 39.1469 16.2647 39.6757 17.0497H34.8394C34.7233 16.7151 34.6459 16.2133 34.6717 15.8787H34.6202C33.6142 17.0239 32.1569 17.3585 30.6222 17.3585C28.2234 17.3585 26.2373 16.2133 26.2373 13.614C26.2373 9.70224 30.8285 9.84378 33.2531 9.38055C33.8979 9.26474 34.5428 9.07172 34.5428 8.2868C34.5428 7.4504 33.7561 7.14158 32.9823 7.14158C31.5249 7.14158 31.2283 7.87503 31.2154 8.4026H26.8048C26.8821 6.66547 27.7333 5.63606 28.9585 5.05701C30.1579 4.47797 31.7313 4.33643 33.2015 4.33643C39.134 4.33643 39.0824 6.79415 39.0824 9.18753V14.2831H39.0953Z" fill="white"/>
<path d="M41.6113 4.65794H46.1639V6.63956H46.2154C46.9764 5.15979 47.9823 4.34912 49.7105 4.34912C50.1876 4.34912 50.639 4.42633 51.1033 4.54214V8.72412C50.6261 8.55684 50.2005 8.4153 49.2333 8.4153C47.3633 8.4153 46.3573 9.50905 46.3573 12.1598V17.0495H41.6242V4.65794H41.6113Z" fill="white"/>
<path d="M51.8511 0H56.5971V8.24816L59.602 4.65809H64.967L60.5434 9.34191L65.6634 17.0625H59.9631L57.4353 12.5717L56.5971 13.4724V17.0625H51.8511V0Z" fill="white"/>
<path d="M73.967 9.45743C73.967 8.31221 73.1029 7.38574 71.8906 7.38574C70.472 7.38574 69.6595 8.1192 69.4531 9.45743H73.967ZM69.4144 11.9152C69.5305 13.3306 70.343 14.3214 71.8261 14.3214C72.587 14.3214 73.4253 14.0383 73.8122 13.4335H78.2358C77.2814 16.11 74.6763 17.3453 71.8519 17.3453C67.8797 17.3453 64.8877 15.0034 64.8877 10.8729C64.8877 7.26993 67.5186 4.32324 71.4521 4.32324C76.3787 4.32324 78.5195 7.06405 78.5195 11.8894H69.4144V11.9152Z" fill="white"/>
<path d="M85.237 4.65791H87.7777V7.57887H85.237V11.9024C85.237 13.0476 85.495 13.5495 86.6943 13.5495C87.0555 13.5495 87.4166 13.5237 87.7648 13.4723V17.0495C86.8104 17.0495 85.7271 17.191 84.7211 17.191C82.7093 17.191 80.4781 16.8822 80.4781 13.4851V7.566H78.376V4.65791H80.4781V0.887695H85.2112V4.65791H85.237Z" fill="white"/>
<path d="M94.975 4.65791H97.5157V7.57887H94.975V11.9024C94.975 13.0476 95.233 13.5495 96.4324 13.5495C96.7935 13.5495 97.1546 13.5237 97.5028 13.4723V17.0495C96.5484 17.0495 95.4651 17.191 94.4592 17.191C92.4473 17.191 90.2162 16.8822 90.2162 13.4851V7.566H88.114V4.65791H90.2162V0.887695H94.9493V4.65791H94.975Z" fill="white"/>
<path d="M3.70541 36.6214L8.24504 24.5515C7.92263 24.4872 7.60021 24.4486 7.30359 24.4486C6.00102 24.3971 5.34329 24.3971 4.04072 24.4486C2.28677 24.4872 -0.112013 25.4523 0.00405752 27.4339C0.468338 30.4964 0.93262 33.5589 1.384 36.6214H3.70541ZM8.52877 20.5754C8.52877 22.3126 7.12303 23.7152 5.38198 23.7152C3.64093 23.7152 2.23519 22.3126 2.23519 20.5754C2.23519 18.8512 3.64093 17.4486 5.38198 17.4486C7.12303 17.4486 8.52877 18.8512 8.52877 20.5754Z" fill="white"/>
<path d="M11.9625 28.9264H18.2818L15.1737 20.2536H15.1222L11.9625 28.9264ZM13.8067 18.0146H16.5537L23.8403 36.6084H21.0933L19.0556 31.011H11.1758L9.0865 36.6084H6.53296L13.8067 18.0146Z" fill="white"/>
<path d="M33.4215 27.4727C33.0862 25.7742 31.9126 24.7833 30.0813 24.7833C26.87 24.7833 25.8769 27.3054 25.8769 30.0462C25.8769 32.5168 26.999 34.9745 29.8233 34.9745C31.9642 34.9745 33.241 33.7264 33.5247 31.6933H35.7945C35.3044 34.9745 33.241 36.9304 29.8362 36.9304C25.7093 36.9304 23.5168 34.0609 23.5168 30.0591C23.5168 26.0186 25.6061 22.8403 29.8878 22.8403C32.9443 22.8403 35.3947 24.2686 35.7042 27.4727H33.4215Z" fill="white"/>
<path d="M45.5822 29.66C44.7181 30.2906 43.0544 30.3163 41.5584 30.5736C40.1011 30.831 38.8372 31.3586 38.8372 32.9928C38.8372 34.4468 40.0882 34.9744 41.4424 34.9744C44.3699 34.9744 45.5693 33.1472 45.5693 31.9248V29.66H45.5822ZM49.1804 36.5571C48.7935 36.7887 48.2905 36.9174 47.5941 36.9174C46.4463 36.9174 45.7112 36.2869 45.7112 34.8328C44.486 36.2611 42.8352 36.9174 40.9652 36.9174C38.5148 36.9174 36.5029 35.8236 36.5029 33.1343C36.5029 30.0847 38.7727 29.4413 41.0684 28.9909C43.5187 28.5277 45.608 28.6821 45.608 27.0093C45.608 25.0792 44.0088 24.7703 42.6031 24.7703C40.7201 24.7703 39.3402 25.3494 39.237 27.3181H37.0188C37.1478 23.9854 39.74 22.8145 42.732 22.8145C45.1566 22.8145 47.8004 23.3549 47.8004 26.5075V33.4303C47.8004 34.4725 47.8004 34.9358 48.5097 34.9358C48.6903 34.9358 48.8967 34.91 49.1933 34.8071V36.5571H49.1804Z" fill="white"/>
<path d="M74.0075 28.5919C73.9044 26.4816 72.3052 24.783 70.1127 24.783C67.7913 24.783 66.4114 26.533 66.2437 28.5919H74.0075ZM76.1484 32.3363C75.5422 35.3088 73.4014 36.9172 70.3836 36.9172C66.0761 36.9172 64.0384 33.9448 63.9094 29.8271C63.9094 25.7867 66.5661 22.8271 70.2546 22.8271C75.0264 22.8271 76.4966 27.2794 76.3676 30.5349H66.2695C66.1921 32.8768 67.5205 34.9613 70.4738 34.9613C72.3052 34.9613 73.5819 34.0735 73.9688 32.3363H76.1484Z" fill="white"/>
<path d="M77.6155 23.1492H79.7047V25.1308H79.7563C80.7494 23.6253 82.2583 22.8403 84.1154 22.8403C85.7533 22.8403 87.2751 23.4966 87.8168 25.1308C88.7324 23.7025 90.3187 22.8403 92.0469 22.8403C94.7423 22.8403 96.5349 23.9598 96.5349 26.7521V36.6216H94.3167V27.7815C94.3167 26.1087 93.8782 24.7833 91.7116 24.7833C89.5707 24.7833 88.1908 26.1344 88.1908 28.219V36.6087H85.9725V27.7815C85.9725 26.0315 85.418 24.7833 83.4448 24.7833C80.8139 24.7833 79.8466 27.2025 79.8466 28.219V36.6087H77.6284V23.1492H77.6155Z" fill="white"/>
<path d="M104.132 38.41C103.113 41.035 102.197 42 100.211 42C99.6954 42 99.1667 41.9486 98.6766 41.7684V39.7353C99.0893 39.864 99.5407 40.0441 99.9792 40.0441C100.895 40.0441 101.385 39.6066 101.81 38.8217L102.726 36.5313L97.374 23.1489H99.876L103.822 34.1636H103.874L107.653 23.1489H110L104.132 38.41Z" fill="white"/>
<path d="M56.0042 34.9742C53.1282 34.9742 51.8257 32.5293 51.8257 29.9944C51.8257 27.3694 52.8445 24.783 55.8752 24.783C58.9317 24.783 60.1311 27.2279 60.1311 29.8915C60.1182 32.4264 58.9704 34.9742 56.0042 34.9742ZM60.0409 19.147V24.9503H59.9893C58.9962 23.3676 57.0101 22.84 55.6302 22.84C51.5033 22.84 49.4656 26.044 49.4656 29.84C49.4656 33.6359 51.529 36.9301 55.6818 36.9301C57.5389 36.9301 59.2542 36.2738 59.9893 34.794H60.0409V36.6212H62.2591V19.147H60.0409Z" fill="white"/>
</svg>
