<svg width="126" height="37" viewBox="0 0 126 37" fill="none" xmlns="http://www.w3.org/2000/svg">
<path d="M85.1085 11.6441C84.4101 11.6441 83.7856 11.5187 83.2351 11.2678C82.6845 11.0132 82.2484 10.6609 81.9269 10.2107C81.6055 9.76062 81.4355 9.24224 81.417 8.65561H82.4646C82.4831 9.06883 82.6106 9.4304 82.8471 9.74032C83.0836 10.0466 83.3976 10.2864 83.7893 10.4598C84.181 10.6295 84.6171 10.7144 85.0975 10.7144C85.6222 10.7144 86.0841 10.6166 86.4832 10.421C86.886 10.2255 87.2001 9.95801 87.4255 9.61857C87.6546 9.27545 87.7691 8.88805 87.7691 8.45637C87.7691 7.99887 87.6527 7.59487 87.4199 7.24437C87.1871 6.89386 86.8527 6.62084 86.4167 6.42529C85.9843 6.22975 85.467 6.13198 84.8647 6.13198H84.1995V5.20222H84.8647C85.3561 5.20222 85.7903 5.11367 86.1672 4.93657C86.5478 4.75579 86.8472 4.50306 87.0652 4.17838C87.2832 3.8537 87.3922 3.47184 87.3922 3.03278C87.3922 2.61587 87.298 2.24876 87.1095 1.93146C86.9211 1.61416 86.655 1.36512 86.3114 1.18433C85.9714 1.00355 85.5741 0.913155 85.1196 0.913155C84.6799 0.913155 84.2771 0.998014 83.9113 1.16773C83.5455 1.33745 83.2498 1.57727 83.0244 1.88719C82.8027 2.19711 82.6845 2.56421 82.6697 2.98851H81.6664C81.6812 2.39819 81.8438 1.87981 82.1542 1.43338C82.4683 0.983256 82.884 0.632752 83.4013 0.381865C83.9224 0.127288 84.4988 0 85.1307 0C85.7996 0 86.3779 0.136512 86.8656 0.409537C87.3534 0.682561 87.7303 1.04598 87.9964 1.49979C88.2661 1.94991 88.401 2.44615 88.401 2.98851C88.401 3.63417 88.2255 4.1876 87.8744 4.64879C87.5234 5.10629 87.0504 5.42359 86.4555 5.60069V5.67263C87.1797 5.81652 87.7488 6.13751 88.1627 6.6356C88.5802 7.12999 88.789 7.73692 88.789 8.45637C88.789 9.06145 88.6301 9.60566 88.3123 10.089C87.9945 10.5686 87.5585 10.9486 87.0042 11.229C86.4536 11.5058 85.8217 11.6441 85.1085 11.6441Z" fill="white"/>
<path d="M71.1167 11.4892V10.731L74.8249 6.56918C75.309 6.02314 75.6988 5.55641 75.9944 5.16901C76.29 4.78161 76.5044 4.42373 76.6374 4.09536C76.7741 3.767 76.8425 3.42572 76.8425 3.07152C76.8425 2.63985 76.7409 2.26352 76.5376 1.94253C76.3381 1.61785 76.0628 1.36512 75.7117 1.18433C75.3607 1.00355 74.9653 0.913155 74.5256 0.913155C74.06 0.913155 73.6516 1.01277 73.3006 1.21201C72.9532 1.41124 72.6835 1.68426 72.4913 2.03108C72.2992 2.37789 72.2031 2.77636 72.2031 3.22648H71.2109C71.2109 2.59926 71.355 2.04399 71.6433 1.56067C71.9352 1.07365 72.3324 0.691784 72.835 0.41507C73.3412 0.138357 73.914 0 74.5533 0C75.1852 0 75.7468 0.136512 76.2383 0.409537C76.7298 0.678871 77.1159 1.04598 77.3968 1.51086C77.6776 1.97574 77.818 2.49596 77.818 3.07152C77.818 3.48844 77.7441 3.89244 77.5963 4.28353C77.4522 4.67462 77.2028 5.10998 76.848 5.58962C76.4933 6.06925 76.0018 6.65589 75.3736 7.34952L72.5578 10.4875V10.5594H78.1728V11.4892H71.1167Z" fill="white"/>
<path d="M64.2874 11.6441C63.4892 11.6441 62.8075 11.4154 62.2421 10.9579C61.6804 10.4967 61.2481 9.83072 60.9451 8.95999C60.6458 8.08927 60.4961 7.04329 60.4961 5.82206C60.4961 4.60452 60.6458 3.56223 60.9451 2.69519C61.2481 1.82447 61.6823 1.15851 62.2476 0.697318C62.8167 0.232439 63.4966 0 64.2874 0C65.0782 0 65.7563 0.232439 66.3217 0.697318C66.8907 1.15851 67.3249 1.82447 67.6242 2.69519C67.9272 3.56223 68.0787 4.60452 68.0787 5.82206C68.0787 7.04329 67.9272 8.08927 67.6242 8.95999C67.3249 9.83072 66.8926 10.4967 66.3272 10.9579C65.7655 11.4154 65.0856 11.6441 64.2874 11.6441ZM64.2874 10.7144C65.1632 10.7144 65.8468 10.2882 66.3383 9.43594C66.8298 8.57997 67.0755 7.37534 67.0755 5.82206C67.0755 4.78899 66.9628 3.9072 66.7374 3.17667C66.5157 2.44246 66.196 1.88165 65.7785 1.49425C65.3646 1.10686 64.8676 0.913155 64.2874 0.913155C63.419 0.913155 62.7373 1.34483 62.2421 2.20818C61.7469 3.06783 61.4994 4.27246 61.4994 5.82206C61.4994 6.85512 61.6102 7.73692 61.8319 8.46744C62.0573 9.19797 62.377 9.75508 62.7908 10.1388C63.2084 10.5225 63.7073 10.7144 64.2874 10.7144Z" fill="white"/>
<path d="M50.4565 11.4892V10.731L54.1647 6.56918C54.6488 6.02314 55.0387 5.55641 55.3343 5.16901C55.6299 4.78161 55.8442 4.42373 55.9772 4.09536C56.114 3.767 56.1823 3.42572 56.1823 3.07152C56.1823 2.63985 56.0807 2.26352 55.8775 1.94253C55.6779 1.61785 55.4026 1.36512 55.0516 1.18433C54.7005 1.00355 54.3051 0.913155 53.8654 0.913155C53.3998 0.913155 52.9915 1.01277 52.6404 1.21201C52.2931 1.41124 52.0233 1.68426 51.8312 2.03108C51.639 2.37789 51.5429 2.77636 51.5429 3.22648H50.5508C50.5508 2.59926 50.6949 2.04399 50.9831 1.56067C51.275 1.07365 51.6723 0.691784 52.1748 0.41507C52.6811 0.138357 53.2538 0 53.8931 0C54.525 0 55.0867 0.136512 55.5782 0.409537C56.0696 0.678871 56.4558 1.04598 56.7366 1.51086C57.0175 1.97574 57.1579 2.49596 57.1579 3.07152C57.1579 3.48844 57.084 3.89244 56.9362 4.28353C56.792 4.67462 56.5426 5.10998 56.1879 5.58962C55.8331 6.06925 55.3417 6.65589 54.7135 7.34952L51.8977 10.4875V10.5594H57.5126V11.4892H50.4565Z" fill="white"/>
<path d="M85.7702 16.4921H87.3562C87.7545 16.4921 88.0904 16.5572 88.3638 16.6873C88.639 16.8175 88.8472 17.001 88.9884 17.2378C89.1315 17.4746 89.203 17.7539 89.203 18.0757C89.203 18.3974 89.1315 18.6813 88.9884 18.9271C88.8472 19.173 88.639 19.3655 88.3638 19.5047C88.0904 19.6439 87.7545 19.7135 87.3562 19.7135H85.2705V14.1602H85.944V19.1278H87.3562C87.6097 19.1278 87.8243 19.0771 87.9999 18.9759C88.1773 18.8729 88.3113 18.7409 88.4018 18.58C88.4941 18.4173 88.5403 18.2456 88.5403 18.0648C88.5403 17.7991 88.438 17.5704 88.2334 17.3788C88.0288 17.1854 87.7364 17.0887 87.3562 17.0887H85.7702V16.4921ZM90.4196 14.1602V19.7135H89.7461V14.1602H90.4196Z" fill="white"/>
<path d="M78.2852 21.0584V19.1169H78.6436C78.7668 19.0048 78.8826 18.8467 78.9913 18.6424C79.1017 18.4363 79.1949 18.1615 79.271 17.8181C79.3488 17.4728 79.4004 17.0344 79.4258 16.503L79.5453 14.1602H82.8477V19.1169H83.4886V21.0476H82.8477V19.7135H78.9261V21.0584H78.2852ZM79.4475 19.1169H82.2068V14.7567H80.1536L80.0667 16.503C80.045 16.9079 80.007 17.2748 79.9526 17.6039C79.8983 17.9311 79.8286 18.2212 79.7435 18.4743C79.6584 18.7255 79.5598 18.9398 79.4475 19.1169Z" fill="white"/>
<path d="M73.1426 19.7135V14.1602H75.0219C75.4582 14.1602 75.8149 14.2388 76.0919 14.3961C76.3707 14.5515 76.5771 14.7621 76.7111 15.0279C76.8451 15.2936 76.9121 15.5901 76.9121 15.9173C76.9121 16.2445 76.8451 16.5418 76.7111 16.8094C76.579 17.0769 76.3744 17.2902 76.0974 17.4493C75.8203 17.6066 75.4655 17.6852 75.0328 17.6852H73.6857V17.0887H75.011C75.3098 17.0887 75.5497 17.0371 75.7307 16.9341C75.9118 16.8311 76.043 16.6919 76.1245 16.5165C76.2078 16.3394 76.2494 16.1396 76.2494 15.9173C76.2494 15.6949 76.2078 15.4961 76.1245 15.3207C76.043 15.1454 75.9109 15.008 75.728 14.9086C75.5451 14.8073 75.3025 14.7567 75.0002 14.7567H73.8161V19.7135H73.1426Z" fill="white"/>
<path d="M71.2471 16.9368C71.2471 17.5225 71.1411 18.0287 70.9293 18.4553C70.7175 18.8819 70.4269 19.2109 70.0575 19.4423C69.6882 19.6737 69.2663 19.7894 68.792 19.7894C68.3176 19.7894 67.8958 19.6737 67.5264 19.4423C67.1571 19.2109 66.8665 18.8819 66.6547 18.4553C66.4428 18.0287 66.3369 17.5225 66.3369 16.9368C66.3369 16.3511 66.4428 15.8449 66.6547 15.4183C66.8665 14.9917 67.1571 14.6627 67.5264 14.4313C67.8958 14.1999 68.3176 14.0842 68.792 14.0842C69.2663 14.0842 69.6882 14.1999 70.0575 14.4313C70.4269 14.6627 70.7175 14.9917 70.9293 15.4183C71.1411 15.8449 71.2471 16.3511 71.2471 16.9368ZM70.5953 16.9368C70.5953 16.456 70.5147 16.0501 70.3536 15.7193C70.1942 15.3885 69.9779 15.1381 69.7045 14.9682C69.4329 14.7983 69.1287 14.7133 68.792 14.7133C68.4552 14.7133 68.1502 14.7983 67.8768 14.9682C67.6052 15.1381 67.3888 15.3885 67.2277 15.7193C67.0684 16.0501 66.9887 16.456 66.9887 16.9368C66.9887 17.4177 67.0684 17.8235 67.2277 18.1543C67.3888 18.4851 67.6052 18.7355 67.8768 18.9054C68.1502 19.0753 68.4552 19.1603 68.792 19.1603C69.1287 19.1603 69.4329 19.0753 69.7045 18.9054C69.9779 18.7355 70.1942 18.4851 70.3536 18.1543C70.5147 17.8235 70.5953 17.4177 70.5953 16.9368Z" fill="white"/>
<path d="M64.3728 19.7135L62.4609 17.1646H61.7765V19.7135H61.103V14.1602H61.7765V16.568H62.0698L64.2968 14.1602H65.1007L62.852 16.6006L65.1767 19.7135H64.3728Z" fill="white"/>
<path d="M55.77 19.7135V14.1602H59.1267V14.7567H56.4435V16.6331H58.9529V17.2297H56.4435V19.1169H59.1702V19.7135H55.77Z" fill="white"/>
<path d="M50.1514 19.7135V14.1602H52.0307C52.467 14.1602 52.8237 14.2388 53.1007 14.3961C53.3795 14.5515 53.5859 14.7621 53.7199 15.0279C53.8539 15.2936 53.9209 15.5901 53.9209 15.9173C53.9209 16.2445 53.8539 16.5418 53.7199 16.8094C53.5877 17.0769 53.3832 17.2902 53.1061 17.4493C52.8291 17.6066 52.4743 17.6852 52.0416 17.6852H50.6945V17.0887H52.0198C52.3186 17.0887 52.5585 17.0371 52.7395 16.9341C52.9206 16.8311 53.0518 16.6919 53.1333 16.5165C53.2166 16.3394 53.2582 16.1396 53.2582 15.9173C53.2582 15.6949 53.2166 15.4961 53.1333 15.3207C53.0518 15.1454 52.9197 15.008 52.7368 14.9086C52.5539 14.8073 52.3113 14.7567 52.009 14.7567H50.8249V19.7135H50.1514Z" fill="white"/>
<path d="M75.3946 27.6137H74.6885L76.7307 22.0604H77.426L79.4683 27.6137H78.7622L77.1001 22.939H77.0566L75.3946 27.6137ZM75.6553 25.4445H78.5014V26.041H75.6553V25.4445Z" fill="white"/>
<path d="M72.7307 27.6137L70.8188 25.0648H70.1345V27.6137H69.4609V22.0604H70.1345V24.4683H70.4278L72.6547 22.0604H73.4586L71.2099 24.5008L73.5346 27.6137H72.7307Z" fill="white"/>
<path d="M63.0317 27.6137V22.0604H63.7053V24.5334H66.6709V22.0604H67.3444V27.6137H66.6709V25.1299H63.7053V27.6137H63.0317Z" fill="white"/>
<path d="M56.2697 24.3924H57.8557C58.2541 24.3924 58.5899 24.4575 58.8633 24.5876C59.1385 24.7178 59.3467 24.9012 59.4879 25.1381C59.631 25.3749 59.7025 25.6542 59.7025 25.9759C59.7025 26.2977 59.631 26.5815 59.4879 26.8274C59.3467 27.0732 59.1385 27.2657 58.8633 27.4049C58.5899 27.5441 58.2541 27.6137 57.8557 27.6137H55.77V22.0604H56.4435V27.028H57.8557C58.1092 27.028 58.3238 26.9774 58.4994 26.8762C58.6768 26.7731 58.8108 26.6412 58.9013 26.4803C58.9937 26.3176 59.0398 26.1459 59.0398 25.9651C59.0398 25.6994 58.9375 25.4707 58.7329 25.2791C58.5284 25.0856 58.236 24.9889 57.8557 24.9889H56.2697V24.3924ZM60.9191 22.0604V27.6137H60.2456V22.0604H60.9191Z" fill="white"/>
<path d="M50.1514 27.6137V22.0604H52.0307C52.467 22.0604 52.8237 22.1391 53.1007 22.2963C53.3795 22.4518 53.5859 22.6624 53.7199 22.9281C53.8539 23.1939 53.9209 23.4903 53.9209 23.8175C53.9209 24.1447 53.8539 24.4421 53.7199 24.7096C53.5877 24.9772 53.3832 25.1905 53.1061 25.3496C52.8291 25.5068 52.4743 25.5855 52.0416 25.5855H50.6945V24.9889H52.0198C52.3186 24.9889 52.5585 24.9374 52.7395 24.8344C52.9206 24.7313 53.0518 24.5921 53.1333 24.4168C53.2166 24.2396 53.2582 24.0399 53.2582 23.8175C53.2582 23.5952 53.2166 23.3963 53.1333 23.221C53.0518 23.0456 52.9197 22.9082 52.7368 22.8088C52.5539 22.7076 52.3113 22.657 52.009 22.657H50.8249V27.6137H50.1514Z" fill="white"/>
<path d="M121.389 30.1014H122.052V34.4725H122.106L125.148 30.1014H125.8V35.6547H125.126V31.2945H125.072L122.041 35.6547H121.389V30.1014Z" fill="white"/>
<path d="M115.413 30.698V30.1014H119.584V30.698H117.835V35.6547H117.162V30.698H115.413Z" fill="white"/>
<path d="M113.862 31.8368H113.188C113.148 31.6434 113.079 31.4735 112.979 31.3271C112.881 31.1806 112.762 31.0577 112.621 30.9583C112.481 30.8571 112.326 30.7811 112.156 30.7305C111.986 30.6799 111.809 30.6546 111.624 30.6546C111.287 30.6546 110.982 30.7396 110.709 30.9095C110.437 31.0794 110.221 31.3298 110.06 31.6606C109.9 31.9914 109.821 32.3972 109.821 32.8781C109.821 33.3589 109.9 33.7648 110.06 34.0956C110.221 34.4264 110.437 34.6768 110.709 34.8467C110.982 35.0166 111.287 35.1016 111.624 35.1016C111.809 35.1016 111.986 35.0763 112.156 35.0257C112.326 34.975 112.481 34.9 112.621 34.8006C112.762 34.6994 112.881 34.5755 112.979 34.4291C113.079 34.2809 113.148 34.1109 113.188 33.9193H113.862C113.811 34.2031 113.719 34.4571 113.585 34.6813C113.451 34.9054 113.284 35.0962 113.085 35.2534C112.886 35.4089 112.662 35.5273 112.414 35.6086C112.168 35.69 111.905 35.7307 111.624 35.7307C111.15 35.7307 110.728 35.615 110.358 35.3836C109.989 35.1522 109.699 34.8232 109.487 34.3966C109.275 33.9699 109.169 33.4638 109.169 32.8781C109.169 32.2924 109.275 31.7862 109.487 31.3596C109.699 30.933 109.989 30.604 110.358 30.3726C110.728 30.1412 111.15 30.0255 111.624 30.0255C111.905 30.0255 112.168 30.0662 112.414 30.1475C112.662 30.2289 112.886 30.3482 113.085 30.5055C113.284 30.6609 113.451 30.8507 113.585 31.0749C113.719 31.2972 113.811 31.5512 113.862 31.8368Z" fill="white"/>
<path d="M107.489 32.8781C107.489 33.4638 107.383 33.9699 107.171 34.3966C106.96 34.8232 106.669 35.1522 106.3 35.3836C105.93 35.615 105.509 35.7307 105.034 35.7307C104.56 35.7307 104.138 35.615 103.769 35.3836C103.399 35.1522 103.109 34.8232 102.897 34.3966C102.685 33.9699 102.579 33.4638 102.579 32.8781C102.579 32.2924 102.685 31.7862 102.897 31.3596C103.109 30.933 103.399 30.604 103.769 30.3726C104.138 30.1412 104.56 30.0255 105.034 30.0255C105.509 30.0255 105.93 30.1412 106.3 30.3726C106.669 30.604 106.96 30.933 107.171 31.3596C107.383 31.7862 107.489 32.2924 107.489 32.8781ZM106.837 32.8781C106.837 32.3972 106.757 31.9914 106.596 31.6606C106.436 31.3298 106.22 31.0794 105.947 30.9095C105.675 30.7396 105.371 30.6546 105.034 30.6546C104.697 30.6546 104.392 30.7396 104.119 30.9095C103.847 31.0794 103.631 31.3298 103.47 31.6606C103.311 31.9914 103.231 32.3972 103.231 32.8781C103.231 33.3589 103.311 33.7648 103.47 34.0956C103.631 34.4264 103.847 34.6768 104.119 34.8467C104.392 35.0166 104.697 35.1016 105.034 35.1016C105.371 35.1016 105.675 35.0166 105.947 34.8467C106.22 34.6768 106.436 34.4264 106.596 34.0956C106.757 33.7648 106.837 33.3589 106.837 32.8781Z" fill="white"/>
<path d="M95.228 30.1014H96.0319L97.9221 34.7111H97.9873L99.8775 30.1014H100.681V35.6547H100.051V31.4355H99.9969L98.2588 35.6547H97.6505L95.9124 31.4355H95.8581V35.6547H95.228V30.1014Z" fill="white"/>
<path d="M88.707 30.1014H89.3697V34.4725H89.424L92.4657 30.1014H93.1175V35.6547H92.4439V31.2945H92.3896L89.3588 35.6547H88.707V30.1014Z" fill="white"/>
<path d="M83.9745 30.1014V35.6547H83.301V30.1014H83.9745ZM80.2158 35.6547L82.0191 32.7588L80.3679 30.1014H81.1826L82.6274 32.5635H84.6588L86.1036 30.1014H86.9184L85.2563 32.7696L87.0596 35.6547H86.2883L84.7783 33.1926H82.4971L80.9762 35.6547H80.2158Z" fill="white"/>
<path d="M74.1606 30.1014H74.8233V34.4725H74.8776L77.9193 30.1014H78.5711V35.6547H77.8976V31.2945H77.8433L74.8124 35.6547H74.1606V30.1014Z" fill="white"/>
<path d="M68.4219 35.6547V30.1014H70.3664C70.7538 30.1014 71.0734 30.1683 71.3251 30.3021C71.5767 30.4341 71.7641 30.6121 71.8872 30.8363C72.0103 31.0586 72.0719 31.3054 72.0719 31.5765C72.0719 31.8152 72.0293 32.0122 71.9442 32.1677C71.861 32.3231 71.7505 32.446 71.6129 32.5364C71.4771 32.6268 71.3296 32.6937 71.1703 32.7371V32.7913C71.3404 32.8022 71.5115 32.8618 71.6835 32.9703C71.8555 33.0787 71.9995 33.2342 72.1153 33.4367C72.2312 33.6391 72.2892 33.8868 72.2892 34.1796C72.2892 34.458 72.2258 34.7084 72.0991 34.9308C71.9723 35.1531 71.7723 35.3294 71.4989 35.4595C71.2255 35.5897 70.8697 35.6547 70.4316 35.6547H68.4219ZM69.0954 35.0582H70.4316C70.8715 35.0582 71.1838 34.9732 71.3685 34.8033C71.555 34.6316 71.6482 34.4237 71.6482 34.1796C71.6482 33.9916 71.6003 33.8181 71.5043 33.659C71.4083 33.4981 71.2716 33.3698 71.0942 33.274C70.9168 33.1764 70.7068 33.1276 70.4641 33.1276H69.0954V35.0582ZM69.0954 32.5419H70.3447C70.5474 32.5419 70.7303 32.5021 70.8932 32.4225C71.058 32.343 71.1884 32.2309 71.2843 32.0863C71.3821 31.9417 71.431 31.7718 71.431 31.5765C71.431 31.3325 71.3459 31.1255 71.1757 30.9556C71.0055 30.7839 70.7357 30.698 70.3664 30.698H69.0954V32.5419Z" fill="white"/>
<path d="M61.4321 36.9997V35.0582H61.7906C61.9137 34.9461 62.0296 34.7879 62.1382 34.5837C62.2487 34.3776 62.3419 34.1028 62.418 33.7594C62.4958 33.4141 62.5474 32.9757 62.5728 32.4442L62.6923 30.1014H65.9947V35.0582H66.6356V36.9888H65.9947V35.6547H62.0731V36.9997H61.4321ZM62.5945 35.0582H65.3537V30.698H63.3006L63.2137 32.4442C63.192 32.8492 63.1539 33.2161 63.0996 33.5451C63.0453 33.8723 62.9756 34.1625 62.8905 34.4156C62.8054 34.6668 62.7067 34.881 62.5945 35.0582Z" fill="white"/>
<path d="M56.5767 35.6547V30.1014H59.9334V30.698H57.2502V32.5744H59.7596V33.1709H57.2502V35.0582H59.9768V35.6547H56.5767Z" fill="white"/>
<path d="M50.1514 35.6547V30.1014H50.8249V32.5744H53.7905V30.1014H54.464V35.6547H53.7905V33.1709H50.8249V35.6547H50.1514Z" fill="white"/>
<path d="M0 14.1984H5.52064L12.1724 24.8582V14.1984H18.334V35.5194H13.1486L6.16155 24.4321V35.5194H0V14.1984ZM18.8953 21.6459C18.8953 17.3638 21.7699 13.9004 26.2437 13.9004C30.6695 13.9004 33.5461 17.3638 33.5461 21.5091C33.5461 25.7932 30.5788 29.2564 26.1976 29.2564C21.8162 29.2564 18.8953 25.8392 18.8953 21.6459ZM19.3525 30.1404H33.135V35.4723H19.3525V30.1404ZM28.5241 21.5553C28.5241 19.7773 27.5209 18.3654 26.1976 18.3654C24.8276 18.3654 23.915 19.733 23.915 21.6016C23.915 23.4238 24.9203 24.7914 26.2437 24.7914C27.5672 24.7914 28.5241 23.4238 28.5241 21.5553Z" fill="#FF0000"/>
<path d="M34.2098 9.19116L28.272 10.5475L26.4097 3.01036L36.726 0.0958252H45.2198V35.5201H34.2098V9.19116Z" fill="#FF0000"/>
</svg>
