<svg width="56" height="56" viewBox="0 0 56 56" fill="none" xmlns="http://www.w3.org/2000/svg">
<path d="M2.57764 3.80347H52.4889V49.3642H2.57764V3.80347Z" fill="white"/>
<path d="M56 3.07514C56 1.37572 54.6381 0 52.9557 0H2.72389C1.20172 0.16185 0 1.45665 0 3.07514V56L8.97282 52.1965H52.9557C54.6381 52.1965 56 50.8208 56 49.1214V3.07514ZM31.9657 31.237H30.4435L25.877 21.4451H28.2003L31.1645 27.9191L33.8884 21.4451H36.2117L31.9657 31.237ZM36.2117 26.3006C36.2117 25.5723 36.372 24.9249 36.6123 24.2775C36.8526 23.6301 37.2532 23.1445 37.6538 22.659C38.1345 22.1734 38.6152 21.8497 39.2561 21.6069C39.897 21.3642 40.5379 21.2023 41.1788 21.2023C41.8999 21.2023 42.5408 21.3642 43.1016 21.6069C43.7425 21.8497 44.2232 22.2543 44.7039 22.659C45.1845 23.0636 45.505 23.6301 45.7453 24.2775C45.9857 24.9249 46.1459 25.5723 46.1459 26.3006C46.1459 27.0289 45.9857 27.6763 45.7453 28.3237C45.505 28.9711 45.1044 29.4566 44.7039 29.9422C44.2232 30.4277 43.7425 30.7514 43.1016 30.9942C42.4607 31.237 41.8197 31.3988 41.1788 31.3988C40.4578 31.3988 39.8169 31.237 39.2561 30.9942C38.6152 30.7514 38.1345 30.3468 37.6538 29.9422C37.1731 29.5376 36.8526 28.9711 36.6123 28.3237C36.372 27.7572 36.2117 27.1098 36.2117 26.3006ZM24.5951 11.7341C24.5951 11.0058 24.7554 10.3584 24.9957 9.71098C25.2361 9.06358 25.6366 8.57803 26.0372 8.09249C26.5179 7.60694 26.9986 7.28324 27.6395 7.04046C28.2804 6.79769 28.9213 6.63584 29.5622 6.63584C30.2833 6.63584 30.9242 6.79769 31.485 7.04046C32.1259 7.28324 32.6066 7.68786 33.0873 8.09249C33.568 8.57803 33.8884 9.06358 34.1288 9.71098C34.3691 10.3584 34.5293 11.0058 34.5293 11.7341C34.5293 12.4624 34.3691 13.1098 34.1288 13.7572C33.8884 14.4046 33.4878 14.8902 33.0873 15.3757C32.6066 15.8613 32.1259 16.185 31.485 16.4277C30.8441 16.6705 30.2031 16.8324 29.5622 16.8324C28.9213 16.8324 28.2003 16.6705 27.6395 16.4277C26.9986 16.185 26.5179 15.8613 26.0372 15.3757C25.5565 14.9711 25.2361 14.4046 24.9957 13.7572C24.6753 13.1908 24.5951 12.4624 24.5951 11.7341ZM16.0229 26.3006C16.0229 25.5723 16.1831 24.9249 16.4235 24.2775C16.6638 23.6301 17.0644 23.1445 17.4649 22.659C17.9456 22.1734 18.4263 21.8497 19.0672 21.6069C19.7082 21.3642 20.3491 21.2023 20.99 21.2023C21.711 21.2023 22.3519 21.3642 22.9127 21.6069C23.5536 21.8497 24.0343 22.2543 24.515 22.659C24.9957 23.0636 25.3162 23.6301 25.5565 24.2775C25.7969 24.9249 25.9571 25.5723 25.9571 26.3006C25.9571 27.0289 25.7969 27.6763 25.5565 28.3237C25.3162 28.9711 24.9156 29.4566 24.515 29.9422C24.0343 30.4277 23.5536 30.7514 22.9127 30.9942C22.2718 31.237 21.6309 31.3988 20.99 31.3988C20.269 31.3988 19.628 31.237 19.0672 30.9942C18.4263 30.7514 17.9456 30.3468 17.4649 29.9422C16.9843 29.5376 16.6638 28.9711 16.4235 28.3237C16.103 27.7572 16.0229 27.1098 16.0229 26.3006ZM32.2861 40.948C32.2861 40.2197 32.4464 39.5723 32.6867 38.9249C32.927 38.3584 33.3276 37.7919 33.7282 37.3873C34.2089 36.9017 34.6896 36.578 35.3305 36.3353C35.9714 36.0925 36.6123 35.9306 37.2532 35.9306C37.9742 35.9306 38.6152 36.0925 39.176 36.3353C39.8169 36.578 40.2976 36.9827 40.7783 37.3873C41.2589 37.7919 41.5794 38.3584 41.8197 39.0058C42.0601 39.6532 42.2203 40.3006 42.2203 41.0289C42.2203 41.7572 42.0601 42.4046 41.8197 43.052C41.5794 43.6185 41.1788 44.185 40.7783 44.5896C40.2976 45.0751 39.8169 45.3988 39.176 45.6416C38.535 45.9653 37.8941 46.0462 37.2532 46.0462C36.5322 46.0462 35.8913 45.9653 35.3305 45.6416C34.6896 45.3988 34.2089 45.0751 33.7282 44.5896C33.2475 44.185 32.927 43.6185 32.6867 43.052C32.3662 42.3237 32.2861 41.6763 32.2861 40.948ZM15.6223 16.6705V6.87861H19.5479C20.3491 6.87861 20.99 6.95954 21.4707 7.12139C21.9514 7.28324 22.3519 7.52601 22.6724 7.84971C22.9928 8.17341 23.1531 8.49711 23.3133 8.90173C23.3934 9.30636 23.4735 9.71098 23.4735 10.1156C23.4735 10.763 23.3133 11.3295 22.9928 11.815C22.6724 12.3815 22.1917 12.7052 21.6309 12.948L24.3548 16.6705H21.6309L19.3076 13.3526H17.7854V16.6705H15.6223ZM23.3133 45.8035V36.0116H27.2389C28.0401 36.0116 28.681 36.0925 29.1617 36.2543C29.6423 36.4162 30.0429 36.659 30.3634 36.9827C30.6838 37.3064 30.8441 37.6301 31.0043 38.0347C31.0844 38.4393 31.1645 38.8439 31.1645 39.2486C31.1645 39.896 31.0043 40.4624 30.6838 40.948C30.3634 41.5145 29.8827 41.8382 29.3219 42.0809L32.0458 45.8035H29.4821L27.1588 42.4855H25.6366V45.8035H23.3133ZM11.1359 43.1329C11.1359 42.8092 10.9757 42.5665 10.7353 42.4046C10.495 42.2428 10.1745 42.1618 9.77396 42C9.37339 41.9191 8.97282 41.7572 8.49213 41.6763C8.01145 41.5145 7.61087 41.3526 7.2103 41.1098C6.80973 40.8671 6.48927 40.6243 6.24893 40.2197C6.00858 39.896 5.84835 39.4104 5.84835 38.763C5.84835 38.3584 5.92847 38.0347 6.0887 37.6301C6.24893 37.3064 6.48927 36.9827 6.80973 36.659C7.13019 36.4162 7.53076 36.1734 8.01145 36.0116C8.49213 35.8497 8.97282 35.7688 9.53362 35.7688C10.3348 35.7688 11.1359 35.9306 11.7768 36.2543C12.4177 36.578 12.9785 36.9827 13.3791 37.5491L11.9371 38.9249C11.6967 38.6012 11.2961 38.3584 10.8956 38.1156C10.495 37.8728 10.0143 37.7919 9.4535 37.7919C8.97282 37.7919 8.57225 37.8728 8.3319 38.0347C8.09156 38.1965 8.01145 38.4393 8.01145 38.6821C8.01145 38.9249 8.17167 39.1676 8.41202 39.2486C8.65236 39.4104 8.97282 39.5723 9.37339 39.6532C9.77396 39.7341 10.1745 39.896 10.6552 39.9769C11.1359 40.1387 11.5365 40.3006 11.9371 40.5434C12.3376 40.7861 12.6581 41.0289 12.8984 41.4335C13.1388 41.7572 13.299 42.2428 13.299 42.8902C13.299 43.2948 13.2189 43.6994 13.0587 44.104C12.8984 44.5087 12.6581 44.8324 12.2575 45.0751C11.8569 45.3179 11.5365 45.5607 11.1359 45.7225C10.6552 45.8844 10.1745 45.9653 9.69385 45.9653C9.13305 45.9653 8.57225 45.8844 8.09156 45.7225C7.61087 45.7225 7.2103 45.5607 6.80973 45.3179C6.40916 45.0751 6.0887 44.8324 5.84835 44.5896C5.60801 44.2659 5.36767 43.9422 5.20744 43.6185L6.72961 42.3237C7.05007 42.8902 7.45064 43.2948 7.93133 43.5376C8.41202 43.8613 8.97282 44.0231 9.53362 44.0231C10.0944 44.0231 10.495 43.9422 10.6552 43.7803C11.0558 43.5376 11.1359 43.3757 11.1359 43.1329ZM12.8984 31.237L8.25179 25.4104V31.237H6.0887V21.4451H7.7711L12.4979 27.2717V21.4451H14.5808V31.237H12.8984ZM13.9399 36.0116H22.2718V38.0347H19.1474V45.8035H16.9843V38.0347H13.8598V36.0116H13.9399ZM6.0887 16.6705V6.87861H10.0944C10.8956 6.87861 11.6166 6.95954 12.0973 7.20231C12.6581 7.44509 13.0587 7.68786 13.3791 8.01156C13.6996 8.33526 13.9399 8.65896 14.02 9.06358C14.1001 9.46821 14.1803 9.87283 14.1803 10.2775C14.1803 10.6821 14.1001 11.0867 13.9399 11.4913C13.7797 11.896 13.5393 12.2197 13.2189 12.5434C12.8984 12.8671 12.4979 13.1098 11.9371 13.2717C11.3763 13.4335 10.7353 13.5145 10.0143 13.5145H8.17167V16.5896H6.0887V16.6705ZM18.4263 25.0867C18.2661 25.4104 18.186 25.896 18.186 26.3006C18.186 26.7861 18.2661 27.1908 18.4263 27.5145C18.5866 27.8382 18.7468 28.1618 19.0672 28.4046C19.3076 28.6474 19.628 28.8902 19.9485 28.9711C20.269 29.1329 20.6695 29.2139 20.99 29.2139C21.3906 29.2139 21.711 29.1329 22.0315 28.9711C22.3519 28.8092 22.6724 28.6474 22.9127 28.4046C23.1531 28.1618 23.3934 27.8382 23.4735 27.5145C23.6338 27.1098 23.7139 26.7052 23.7139 26.3006C23.7139 25.815 23.6338 25.4104 23.4735 25.0867C23.3133 24.6821 23.073 24.4393 22.8326 24.1156C22.5923 23.8728 22.2718 23.6301 21.9514 23.5491C21.6309 23.3873 21.3104 23.3064 20.9099 23.3064C20.5093 23.3064 20.1888 23.3873 19.8684 23.5491C19.5479 23.711 19.2275 23.8728 18.9871 24.1156C18.8269 24.4393 18.5866 24.763 18.4263 25.0867ZM26.9986 10.5202C26.8383 10.9249 26.7582 11.3295 26.7582 11.7341C26.7582 12.2197 26.8383 12.6243 26.9986 12.948C27.1588 13.2717 27.319 13.5954 27.6395 13.8382C27.8798 14.0809 28.2003 14.3237 28.5207 14.4046C28.8412 14.5665 29.2418 14.6474 29.5622 14.6474C29.9628 14.6474 30.2833 14.5665 30.6037 14.4046C30.9242 14.2428 31.2446 14.0809 31.485 13.8382C31.7253 13.5954 31.9657 13.2717 32.0458 12.948C32.206 12.5434 32.2861 12.1387 32.2861 11.7341C32.2861 11.2486 32.206 10.8439 32.0458 10.5202C31.8855 10.1156 31.6452 9.87283 31.4049 9.63006C31.1645 9.38728 30.8441 9.14451 30.5236 9.06358C30.2031 8.98266 29.8827 8.82081 29.4821 8.82081C29.0815 8.82081 28.7611 8.90173 28.4406 9.06358C28.1202 9.22543 27.7997 9.38728 27.5594 9.63006C27.3991 9.87283 27.1588 10.1965 26.9986 10.5202ZM38.6953 25.0867C38.535 25.4104 38.4549 25.896 38.4549 26.3006C38.4549 26.7861 38.535 27.1908 38.6953 27.5145C38.8555 27.8382 39.0157 28.1618 39.3362 28.4046C39.5765 28.6474 39.897 28.8902 40.2175 28.9711C40.5379 29.052 40.9385 29.2139 41.2589 29.2139C41.6595 29.2139 41.98 29.1329 42.3004 28.9711C42.6209 28.8092 42.9413 28.6474 43.1817 28.4046C43.422 28.1618 43.6624 27.8382 43.7425 27.5145C43.9027 27.1098 43.9828 26.7052 43.9828 26.3006C43.9828 25.815 43.9027 25.4104 43.7425 25.0867C43.5823 24.6821 43.3419 24.4393 43.1016 24.1156C42.8612 23.8728 42.5408 23.6301 42.2203 23.5491C41.8999 23.3873 41.5794 23.3064 41.1788 23.3064C40.7783 23.3064 40.4578 23.3873 40.1373 23.5491C39.8169 23.711 39.4964 23.8728 39.2561 24.1156C39.0157 24.4393 38.7754 24.763 38.6953 25.0867ZM34.6896 39.7341C34.5293 40.0578 34.4492 40.4624 34.4492 40.948C34.4492 41.3526 34.5293 41.7572 34.6896 42.1618C34.8498 42.4855 35.01 42.8092 35.3305 43.052C35.5708 43.3757 35.8913 43.5376 36.2117 43.6994C36.5322 43.7803 36.9328 43.8613 37.2532 43.8613C37.6538 43.8613 37.9742 43.7803 38.2947 43.6994C38.6152 43.5376 38.9356 43.3757 39.176 43.052C39.4163 42.8092 39.6567 42.4855 39.7368 42.1618C39.897 41.7572 39.9771 41.3526 39.9771 40.948C39.9771 40.4624 39.897 40.0578 39.7368 39.7341C39.5765 39.3295 39.3362 39.0058 39.0959 38.763C38.8555 38.5202 38.535 38.2775 38.2146 38.1965C37.8941 38.0347 37.5737 37.9538 37.1731 37.9538C36.7725 37.9538 36.4521 38.0347 36.1316 38.1965C35.8112 38.3584 35.4907 38.5202 35.2504 38.763C35.0901 39.0058 34.8498 39.3295 34.6896 39.7341ZM8.25179 8.90173V11.5723H10.0944C10.7353 11.5723 11.216 11.4913 11.5365 11.2486C11.8569 11.0058 12.0172 10.6821 12.0172 10.2775C12.0172 10.1156 12.0172 9.87283 11.9371 9.79191C11.8569 9.63006 11.7768 9.46821 11.6166 9.38728C11.4564 9.22543 11.2961 9.14451 11.0558 9.14451C10.8155 8.90173 10.495 8.90173 10.1745 8.90173H8.25179ZM25.3963 38.0347V40.4624H27.2389C27.7997 40.4624 28.2003 40.3815 28.4406 40.1387C28.7611 39.896 28.8412 39.6532 28.8412 39.2486C28.8412 39.0867 28.8412 38.9249 28.7611 38.763C28.681 38.6012 28.6009 38.5202 28.5207 38.4393C28.3605 38.3584 28.2003 38.2775 27.9599 38.1965C27.7196 38.1156 27.4793 38.1156 27.0787 38.1156H25.3963V38.0347ZM17.7854 8.90173V11.3295H19.628C20.1888 11.3295 20.5894 11.2486 20.8298 11.0058C21.1502 10.763 21.2303 10.5202 21.2303 10.1156C21.2303 9.95376 21.2303 9.79191 21.1502 9.63006C21.0701 9.46821 20.99 9.38728 20.9099 9.22543C20.7496 9.14451 20.5894 9.06358 20.3491 8.98266C20.1087 8.90173 19.7883 8.90173 19.4678 8.90173H17.7854ZM48.2289 42.3237V45.8035H46.0658V42.3237L42.2203 36.0116H44.784L47.1874 39.9769L49.671 36.0116H52.1545L48.2289 42.3237Z" fill="#FF6935"/>
</svg>
