<svg width="77" height="56" viewBox="0 0 77 56" fill="none" xmlns="http://www.w3.org/2000/svg">
<path d="M63.0095 0.00271865C62.5751 0.00271865 61.4581 -0.0592399 59.9687 1.2416C59.286 1.79909 57.9207 3.90525 58.3552 5.70162C58.4793 6.25911 58.7896 6.75463 59.0378 7.06442C59.6584 7.9317 60.9617 8.42723 61.5823 7.9317C62.2649 7.31226 63.5682 7.43618 64.1267 7.06442C64.499 6.81659 65.5541 6.13533 66.1126 4.64861C66.2366 4.02917 67.6638 -0.121199 63.0095 0.00271865Z" fill="white"/>
<path d="M70.5777 29.4886C68.2195 26.6392 60.7104 28.7452 58.7245 29.1789C59.0968 27.4445 63.0065 14.808 63.1307 13.4452C63.1928 12.5161 63.1928 11.5249 61.9516 10.8435C59.4692 9.54263 55.994 11.5868 54.6908 12.5779C53.0773 13.8168 54.1323 12.7018 49.7882 16.6661C44.4512 21.4978 42.5273 23.7277 42.279 23.6659C41.7205 23.542 44.7614 16.7901 45.2578 14.9937C45.5682 13.8168 45.8784 13.0114 45.5682 12.0204C45.2578 11.0913 44.5132 10.286 43.0238 10.1001C41.4103 9.91423 39.1761 10.7196 36.3835 11.9584C32.3498 13.6928 24.4063 18.1529 20.807 20.5067C2.1273 32.6477 0.76198 34.9396 0.26554 36.1166C-0.168827 37.1076 -0.0446815 38.1608 0.451759 38.4704C1.07235 38.904 1.87915 39.2138 3.24433 38.0988C5.10608 36.674 5.85082 34.9396 9.63641 31.5328C17.3316 24.6569 24.9028 20.6306 27.9436 18.8343C31.9154 16.4804 36.3835 14.684 38.6177 13.8787C38.6798 13.8787 35.0804 23.7278 34.4599 25.5862C33.0325 29.9842 33.0325 31.5328 33.9013 32.524C35.0184 33.8248 37.0043 33.4531 38.4937 32.3381C39.3626 31.7186 41.4725 29.117 42.5275 28.002C43.5204 26.887 45.196 25.3383 46.6233 23.7898C48.0507 22.2413 50.471 20.0732 51.8361 18.8962C53.0152 17.9052 54.0702 17.0999 54.3185 17.2238C54.7528 17.4096 54.1323 18.7723 54.1323 18.7723C54.1323 18.7723 52.2705 24.3473 51.6499 26.4533C51.4016 27.3824 50.9052 29.117 50.4087 31.161C39.0521 33.8866 27.323 36.8599 21.4895 38.904C9.82248 43.1162 2.18937 45.6559 3.12018 48.1337C4.11306 50.8593 8.58131 46.3993 23.1029 41.0721C30.0535 38.5324 32.0393 38.0368 35.887 37.0458C41.1619 35.745 45.6301 34.8159 49.8501 34.0725C49.6639 35.1875 49.6018 36.6122 49.7259 37.4176C50.0982 39.5237 51.5256 40.0812 52.5806 40.3289C54.2561 40.7005 56.9247 40.2669 57.297 36.5503C57.4211 35.4973 57.6693 33.8247 57.7313 33.3911C58.1036 33.3291 58.8484 33.2052 59.3448 33.1433C64.3095 32.6477 64.3716 33.2052 64.868 33.5768C65.3644 33.9484 65.7988 35.8687 68.9638 34.5059C71.881 33.391 71.4464 30.5416 70.5777 29.4886Z" fill="white"/>
<path d="M53.1988 49.062L52.8265 50.7964H56.1777L55.9915 51.6637H52.6403L52.268 53.3981H55.6192L55.433 54.2654H52.0818L51.7095 55.9998H55.0607C58.2257 55.9998 58.598 55.0706 59.0944 52.531C59.4048 50.9824 59.7771 49.0622 56.9225 49.0622L53.1988 49.062Z" fill="white"/>
<path d="M38.3672 46.7086L36.1952 51.7879H36.1332L35.947 46.7086H30.3617L28.438 56.0001H31.7891L33.2785 48.6907H33.4025L33.7129 56.0001H36.6296L39.9188 48.6907H40.0429L38.5534 56.0001H41.9047L43.7664 46.7086H38.3672Z" fill="white"/>
<path d="M48.7941 49.0622L47.7391 54.2654H46.6842L47.7391 49.0622H44.3879L43.5811 53.0885C43.2088 54.7609 43.7673 55.9998 46.3737 55.9998H50.7798L52.2072 49.062L48.7941 49.0622Z" fill="white"/>
<path d="M64.1843 49.062C61.8261 49.062 60.647 49.9911 60.3367 51.6637L59.4678 55.9998H62.819L63.8739 50.8584H64.9289L63.8739 55.9998H67.2252L68.6526 49.062H64.1843Z" fill="white"/>
<path d="M73.7392 51.2919H72.5601L72.9944 49.062H69.6432L68.2158 55.9998H72.1256C74.67 55.9998 76.1593 55.3184 76.4697 53.7079C76.8421 52.0973 75.5389 51.2919 73.7392 51.2919ZM71.9395 54.2652L72.1878 53.0264H73.2427L72.9944 54.2652H71.9395Z" fill="white"/>
</svg>
