<svg width="49" height="84" viewBox="0 0 49 84" fill="none" xmlns="http://www.w3.org/2000/svg">
<path opacity="0.5" d="M46.1429 81.2422L44.1851 80.3752L41.791 79.2336C40.9433 78.7869 39.9959 78.3401 39.0401 77.7962C38.5309 77.5217 38.0102 77.2315 37.478 76.9257C37.4831 76.8686 37.4894 76.7962 37.4968 76.7109C37.5094 76.606 37.5073 76.4782 37.5136 76.3443C37.6056 76.3438 37.6967 76.3306 37.7832 76.3051C38.2627 76.1578 38.7085 75.9463 39.1019 75.6792C39.5209 75.4075 39.8941 75.0921 40.212 74.7414C41.2895 73.6331 41.9263 71.963 42.2054 69.921C42.2158 69.8528 42.2263 69.7855 42.2347 69.7173C42.4529 67.7359 41.2601 65.8399 40.4186 64.4629C40.0861 63.965 39.7986 63.5345 39.5511 63.1841C39.2185 62.7126 38.9604 62.3878 38.7642 62.2463C38.7127 62.1986 38.6412 62.1683 38.5637 62.161C38.269 62.1465 37.6132 62.5446 36.9974 63.2437C36.7507 63.5275 36.5354 63.8285 36.3542 64.1432C35.579 65.3862 35.1572 67.1271 34.9359 68.9943C34.9295 69.065 34.9232 69.135 34.919 69.2058C34.8005 70.9962 35.495 72.7098 36.0238 73.9972C36.1917 74.3698 36.3386 74.7065 36.4885 75.0006C36.8034 75.6366 37.0625 76.0766 37.3163 76.2574C37.3163 76.282 37.3079 76.306 37.3048 76.3297C37.2817 76.4602 37.267 76.5796 37.2398 76.6845C37.2324 76.7168 37.2261 76.7467 37.2198 76.7757C35.7972 75.9495 34.3085 75.0142 32.7829 73.9622C31.3446 72.9724 29.88 71.8759 28.429 70.6722C28.4409 70.6278 28.4545 70.5775 28.4699 70.5212C28.5003 70.4189 28.5213 70.292 28.5507 70.1607C28.6415 70.1717 28.7339 70.1691 28.8235 70.153C29.3243 70.0633 29.8032 69.9061 30.2399 69.6874C30.7003 69.4679 31.1235 69.2006 31.4988 68.892C32.7578 67.921 33.6852 66.342 34.3241 64.3538C34.3462 64.2881 34.3682 64.2217 34.3892 64.1551C34.9557 62.2206 34.1101 60.2044 33.5195 58.7439C33.2781 58.2128 33.0704 57.7524 32.89 57.3799C32.6456 56.8743 32.4462 56.5273 32.2773 56.3568C32.2341 56.3049 32.1686 56.2682 32.0937 56.2537C31.8041 56.2051 31.0854 56.5222 30.3521 57.1428C30.0576 57.3935 29.7908 57.665 29.5547 57.9537C28.5686 59.0935 27.8446 60.7671 27.2949 62.5899C27.2759 62.6589 27.2571 62.728 27.2403 62.7962C26.8081 64.5533 27.191 66.3318 27.4879 67.6668C27.5928 68.0556 27.68 68.4068 27.7702 68.7147C27.9653 69.3797 28.1478 69.846 28.3681 70.0549L28.343 70.1257C28.2968 70.251 28.2612 70.367 28.2161 70.4666C28.2161 70.4752 28.2098 70.4837 28.2056 70.4923C27.5194 69.9177 26.8381 69.3182 26.1618 68.6942C24.1892 66.8611 22.3947 64.9062 20.7944 62.8474L20.8437 62.7476C20.8951 62.6504 20.9413 62.5285 20.9969 62.4065C21.0843 62.4291 21.1758 62.439 21.2676 62.4355C21.7832 62.4127 22.2904 62.3194 22.7678 62.1593C23.2679 62.0046 23.7409 61.7975 24.1747 61.5428C25.6162 60.7526 26.8469 59.3185 27.8782 57.4421C27.9138 57.3808 27.9496 57.3185 27.9831 57.2554C28.9274 55.4215 28.5077 53.3217 28.2171 51.7989C28.086 51.243 27.9737 50.7622 27.8687 50.3675C27.7292 49.8355 27.6033 49.4621 27.4701 49.2788C27.438 49.2215 27.3808 49.1763 27.3096 49.1517C27.0337 49.0664 26.2604 49.283 25.4127 49.7972C25.071 50.0049 24.7529 50.2372 24.4622 50.4911C23.2589 51.4843 22.2076 53.0351 21.298 54.7633C21.2655 54.8281 21.2329 54.8946 21.2025 54.9603C20.4208 56.6346 20.4408 58.4395 20.4628 59.7977C20.4838 60.1933 20.5026 60.5523 20.53 60.8685C20.5877 61.5505 20.6748 62.0348 20.8447 62.2701C20.8311 62.2923 20.8184 62.3145 20.8059 62.3358C20.7419 62.4423 20.6885 62.5421 20.6307 62.629C20.4461 62.3875 20.2628 62.1448 20.081 61.901C19.1671 60.6451 18.3131 59.3322 17.5211 57.975C16.7478 56.6108 16.0406 55.1998 15.4227 53.7514C15.4027 53.7044 15.3839 53.6575 15.365 53.6107L15.429 53.5313C15.5035 53.4461 15.58 53.3327 15.6662 53.2185C15.7456 53.2557 15.8326 53.2808 15.9232 53.2926C16.43 53.3556 16.9464 53.3494 17.4507 53.2739C17.9794 53.2053 18.4947 53.0806 18.9835 52.903C20.5918 52.3676 22.1562 51.168 23.6365 49.5012C23.6869 49.4467 23.7414 49.3921 23.7855 49.3358C25.1745 47.6981 25.2827 45.571 25.3822 44.0346C25.3938 43.4685 25.4033 42.9792 25.4001 42.5759C25.4001 42.0311 25.3676 41.6458 25.2827 41.4428C25.2655 41.3819 25.221 41.3284 25.1577 41.2928C24.9091 41.1624 24.0981 41.2468 23.1381 41.61C22.7515 41.7569 22.3818 41.9314 22.0333 42.1318C20.6065 42.905 19.188 44.2486 17.8641 45.79C17.8158 45.8489 17.7676 45.9077 17.7214 45.9675C16.5358 47.4773 16.1036 49.2481 15.7847 50.5815C15.706 50.972 15.6346 51.3266 15.5821 51.6404C15.4678 52.3173 15.4311 52.8066 15.5433 53.0659L15.4889 53.1238C15.4059 53.2091 15.3325 53.2944 15.26 53.3668C14.0996 50.5519 13.2911 47.6489 12.8471 44.7023C12.7771 44.2133 12.7156 43.724 12.6624 43.2341L12.9174 43.021C13.0023 42.9528 13.0957 42.8615 13.1975 42.7694C13.2621 42.8141 13.336 42.849 13.4157 42.8725C13.8626 42.9996 14.3323 43.0652 14.8058 43.067C15.3001 43.0775 15.7939 43.0355 16.2746 42.9416C17.8483 42.6783 19.5186 41.8061 21.2056 40.4982C21.2634 40.4565 21.3199 40.4129 21.3756 40.3687C22.9787 39.0745 23.5231 37.1587 23.9344 35.7785C24.0634 35.2669 24.1757 34.8236 24.2556 34.457C24.3667 33.9624 24.4213 33.6087 24.3866 33.4126C24.3843 33.3548 24.355 33.3 24.3048 33.2591C24.1066 33.1065 23.3532 33.0706 22.4058 33.2676C22.0262 33.3479 21.6558 33.4548 21.299 33.5874C19.8417 34.0921 18.2733 35.116 16.7489 36.3309C16.6932 36.3769 16.6376 36.4246 16.583 36.4724C15.1908 37.6797 14.4271 39.2253 13.8553 40.3942C13.7011 40.7353 13.5636 41.0498 13.4493 41.3278C13.2038 41.9246 13.0684 42.3654 13.1167 42.6161L13.0548 42.6612C12.9436 42.7421 12.845 42.8189 12.7495 42.8802L12.6278 42.9655C12.3826 40.4485 12.3696 37.9202 12.589 35.4016C12.6589 34.5491 12.7596 33.7033 12.8911 32.8643L13.1587 32.7348C13.2636 32.6888 13.3748 32.6231 13.4975 32.5584C13.5445 32.6132 13.6031 32.6608 13.6706 32.6989C14.0465 32.909 14.4633 33.0661 14.9033 33.1636C15.3602 33.2743 15.8327 33.336 16.3092 33.3468C17.8546 33.422 19.6802 32.9514 21.6599 32.0783C21.7261 32.051 21.7921 32.022 21.8581 31.993C23.7467 31.1157 24.8493 29.4421 25.6592 28.2418C25.9373 27.7916 26.1776 27.4021 26.3664 27.0772C26.6224 26.6398 26.786 26.3209 26.8112 26.1316C26.8267 26.0774 26.8162 26.0205 26.7818 25.9722C26.6445 25.7889 25.9541 25.6022 25.0109 25.5928C24.631 25.5895 24.2514 25.6137 23.8768 25.6653C22.3649 25.8358 20.5888 26.471 18.7936 27.2912C18.7265 27.3227 18.6604 27.3559 18.5943 27.3884C16.9262 28.229 15.7375 29.5129 14.8478 30.4823C14.5981 30.7722 14.3735 31.0339 14.1815 31.2692C13.7682 31.7765 13.5059 32.1577 13.4734 32.4005L13.4021 32.4304C13.273 32.4832 13.1576 32.5344 13.0495 32.572L12.9268 32.618C13.2506 30.5547 13.7349 28.5101 14.3767 26.4966C14.6998 25.4855 15.0569 24.4962 15.4478 23.5288L15.5728 23.4819C15.6776 23.4444 15.8003 23.3881 15.9316 23.3344C15.9711 23.3927 16.0234 23.4447 16.0857 23.4879C16.4329 23.7286 16.8278 23.9196 17.2534 24.0531C17.6938 24.2017 18.1562 24.3024 18.6289 24.3524C20.1565 24.5561 22.0324 24.2398 24.1118 23.5365C24.181 23.5152 24.2502 23.4912 24.3216 23.4674C26.315 22.7521 27.618 21.1792 28.5759 20.0512C28.9095 19.625 29.198 19.2592 29.4268 18.9522C29.7363 18.5379 29.9355 18.2344 29.988 18.0486C30.0102 17.9957 30.0069 17.9381 29.9785 17.8874C29.8653 17.6938 29.2023 17.4508 28.2654 17.3622C27.8878 17.3274 27.5073 17.32 27.1281 17.34C25.6027 17.3853 23.755 17.8678 21.8655 18.5337C21.7953 18.5592 21.7249 18.5865 21.6557 18.6138C19.89 19.3103 18.545 20.4895 17.5388 21.3786C17.2546 21.6463 16.9975 21.8902 16.7761 22.1059C16.3018 22.5765 15.9934 22.9328 15.9295 23.1724L15.854 23.1954C15.7417 23.2313 15.6441 23.2645 15.5391 23.2909C16.204 21.6678 16.9709 20.0732 17.8369 18.514C18.7076 16.9393 19.6465 15.4568 20.6171 14.0722L20.9181 14.0227C21.0231 14.0091 21.1363 13.9809 21.2613 13.9571C21.2797 14.0137 21.3107 14.0671 21.3525 14.1148C21.5892 14.3772 21.8782 14.6057 22.2076 14.7909C22.5453 14.9911 22.9144 15.1539 23.3049 15.2751C24.5566 15.7014 26.2362 15.7466 28.1877 15.4925C28.2517 15.4856 28.3167 15.4781 28.3818 15.4687C30.2629 15.1899 31.7716 14.0662 32.8733 13.2639C33.2646 12.957 33.6076 12.6919 33.8762 12.4668C34.2455 12.1658 34.4921 11.9407 34.5834 11.7907C34.6156 11.7492 34.6276 11.6992 34.6169 11.6509C34.5686 11.4676 34.0629 11.1496 33.2865 10.9185C32.9736 10.8252 32.651 10.7553 32.3224 10.7096C31.0099 10.4939 29.3125 10.5971 27.532 10.8512L27.3326 10.8844C25.654 11.1845 24.2061 11.9663 23.1234 12.558C22.8087 12.7379 22.5327 12.899 22.2894 13.0508C21.7649 13.373 21.4123 13.6263 21.298 13.8181L21.2276 13.8258C21.1017 13.8394 20.9885 13.8547 20.8856 13.8599L20.7587 13.8692C21.2549 13.1684 21.7586 12.4898 22.2652 11.841C23.2252 10.6133 24.1936 9.48451 25.1442 8.45035C25.3738 8.53561 25.8953 8.4657 26.6129 8.27984C26.9018 8.20652 27.2201 8.11586 27.5677 8.00787C28.7469 7.61909 30.2167 7.02316 31.3058 5.99241C31.3477 5.95063 31.3907 5.90715 31.4327 5.86879C32.5207 4.74341 33.467 3.63166 33.999 2.68445C34.1366 2.45325 34.2533 2.21418 34.3483 1.96916C34.5802 1.37236 34.5897 0.911128 34.4333 0.781539C34.389 0.746879 34.331 0.726302 34.2697 0.723564C34.0598 0.692872 33.6674 0.709071 33.1387 0.767045C32.7452 0.807116 32.2773 0.871911 31.7495 0.956314C30.3269 1.22402 28.4636 1.66479 27.3054 2.85071C27.2655 2.89164 27.2266 2.93597 27.1889 2.97433C26.0201 4.22334 25.2323 5.40159 24.9637 6.43659C24.8698 6.74967 24.8236 7.07094 24.8263 7.39317C24.8179 7.69513 24.8754 7.9959 24.9962 8.28154C25.0085 8.30674 25.0229 8.33124 25.0392 8.35486C24.0667 9.38731 23.0742 10.517 22.09 11.7464C21.5402 12.4327 20.9936 13.1514 20.4554 13.8965C20.4554 13.8854 20.4482 13.8744 20.4429 13.8616C20.4124 13.7823 20.3883 13.6911 20.3579 13.5905C20.3579 13.5726 20.3474 13.5538 20.3422 13.535C20.5216 13.3782 20.6841 13.0192 20.8667 12.5051C20.9506 12.2673 21.0357 11.9936 21.1301 11.6952C21.4154 10.6602 21.7868 9.28245 21.5204 7.90044C21.5099 7.84588 21.4993 7.79131 21.4868 7.73675C21.1321 6.29677 20.6348 4.9736 19.913 4.05794C19.741 3.82606 19.5436 3.6072 19.3235 3.40402C18.7769 2.89931 18.2282 2.63671 18.0005 2.66229C17.9417 2.67201 17.8894 2.69903 17.8536 2.73818C17.7151 2.86265 17.5451 3.13035 17.329 3.51912C17.1706 3.80729 16.9891 4.1611 16.7803 4.56863C16.2558 5.69316 15.5214 7.24397 15.8823 8.76921C15.8949 8.82121 15.9084 8.87322 15.9242 8.92523C16.3439 10.4957 16.9996 11.7515 17.9459 12.5435C18.2268 12.7952 18.5475 13.0157 18.8996 13.1991C19.2316 13.3811 19.5985 13.5169 19.9855 13.6007C20.0539 13.6148 20.125 13.6188 20.1953 13.6126C20.2121 13.7158 20.2247 13.8164 20.2435 13.8965C20.2646 13.9937 20.2813 14.0713 20.2918 14.1182C19.3371 15.4568 18.4107 16.8865 17.5462 18.404C16.619 20.0319 15.7991 21.6988 15.0901 23.3975C15.0872 23.3932 15.0848 23.3885 15.0827 23.3839C15.0356 23.2986 14.9946 23.1954 14.9442 23.0855C14.9359 23.065 14.9265 23.0454 14.917 23.025C15.0975 22.8288 15.2244 22.405 15.3472 21.804C15.4048 21.5253 15.4594 21.2073 15.5203 20.8585C15.6829 19.6573 15.8896 18.0596 15.3734 16.5199C15.3534 16.4601 15.3314 16.3987 15.3095 16.3391C14.68 14.7448 13.9151 13.2963 12.953 12.3321C12.7223 12.0865 12.465 11.8582 12.184 11.65C11.4853 11.1385 10.8201 10.8895 10.5704 10.9475C10.5044 10.9636 10.4484 10.9996 10.4141 11.0481C10.2766 11.2016 10.1266 11.5238 9.94721 11.9859C9.81292 12.327 9.66185 12.7464 9.48768 13.2298C9.06803 14.5581 8.47421 16.3911 9.12258 18.0809C9.14566 18.1389 9.1698 18.1968 9.19497 18.2514C9.91154 19.9863 10.8537 21.3419 12.0476 22.1425C12.4052 22.4014 12.8035 22.6203 13.2321 22.7939C13.636 22.9656 14.0726 23.081 14.5236 23.1349C14.6046 23.1444 14.6869 23.142 14.7669 23.1281C14.8037 23.244 14.832 23.3557 14.8666 23.4452C14.9117 23.5697 14.9463 23.6652 14.9632 23.7129C14.6054 24.5886 14.2696 25.4811 13.9654 26.3933C13.2838 28.4389 12.7638 30.5177 12.4085 32.6171C12.3508 32.5584 12.2931 32.4944 12.2281 32.4253L12.1798 32.3732C12.2847 32.1431 12.2511 31.7075 12.1536 31.1047C12.1074 30.8241 12.0487 30.5078 11.9784 30.1601C11.7014 28.9776 11.3258 27.3977 10.2829 26.0507C10.242 25.997 10.199 25.944 10.157 25.8921C8.98094 24.5152 7.72616 23.3131 6.45879 22.6234C6.1498 22.4439 5.82188 22.287 5.47889 22.1545C4.62593 21.8279 3.90517 21.7494 3.68275 21.8655C3.62566 21.8952 3.58474 21.9415 3.56839 21.9951C3.49076 22.1758 3.46348 22.5185 3.45718 23.0028C3.45193 23.3617 3.45718 23.7982 3.46557 24.3021C3.54636 25.6704 3.63135 27.5657 4.85989 29.0286C4.90291 29.0781 4.94697 29.1276 4.99208 29.1762C6.30037 30.6655 7.68735 31.739 9.11733 32.2206C9.55159 32.3814 10.0103 32.4944 10.4812 32.5566C10.9312 32.6257 11.3921 32.6331 11.8451 32.5788C11.926 32.5682 12.0038 32.546 12.0749 32.5131C12.1515 32.6145 12.2186 32.7152 12.2847 32.7919C12.3151 32.8285 12.3414 32.8619 12.3655 32.8925C12.2333 33.7075 12.1252 34.5296 12.0413 35.3589C11.7873 37.8639 11.7606 40.3807 11.9616 42.8888L11.8462 42.8035L11.7843 42.7584C11.8325 42.5077 11.6961 42.0687 11.4506 41.4701C11.3373 41.1921 11.1989 40.8811 11.0457 40.5365C10.477 39.3703 9.71325 37.8246 8.31788 36.6148C8.26333 36.5678 8.21298 36.521 8.15212 36.475C6.62666 35.2592 5.05818 34.2353 3.60196 33.7306C3.24381 33.5974 2.87205 33.4899 2.49091 33.4091C1.54668 33.2122 0.790245 33.248 0.591955 33.4007C0.541406 33.4414 0.511784 33.4963 0.509073 33.5542C0.4755 33.7502 0.529007 34.104 0.640216 34.5984C0.727295 34.9668 0.840603 35.4119 0.96755 35.9234C1.37987 37.3037 1.92437 39.2194 3.52643 40.5136C3.58308 40.557 3.63974 40.5988 3.69639 40.6432C5.38866 41.951 7.05996 42.8232 8.62739 43.0865C9.10817 43.1803 9.60196 43.2223 10.0962 43.2119C10.5694 43.2106 11.039 43.1446 11.4853 43.0168C11.5652 42.9934 11.6395 42.9587 11.7045 42.9143C11.8094 43.0047 11.8965 43.0951 11.9815 43.1624C12.0291 43.6979 12.0875 44.2328 12.1567 44.767C12.56 47.7278 13.3255 50.6486 14.4418 53.4862L14.3642 53.4477C14.3505 53.1733 14.0923 52.7308 13.6769 52.1365C13.4839 51.8603 13.2573 51.5533 13.0034 51.2141C12.098 50.0725 10.8862 48.5601 9.0953 47.5157C9.025 47.4748 8.95368 47.4304 8.88547 47.3946C6.95084 46.3647 5.01936 45.5446 3.34178 45.258C2.9284 45.1777 2.50712 45.1269 2.08279 45.1063C1.02525 45.0594 0.233147 45.2266 0.0621353 45.4226C0.0159989 45.4722 -0.00570458 45.5338 0.00128469 45.5956C0.0149236 45.8089 0.164952 46.1755 0.410452 46.6818C0.591955 47.057 0.830111 47.5089 1.0945 48.0315C1.88975 49.4271 2.96408 51.3692 5.00258 52.4699C5.07287 52.5075 5.14421 52.5432 5.2124 52.579C7.34952 53.6788 9.35129 54.3199 11.0876 54.3302C11.6223 54.3479 12.1574 54.308 12.6792 54.2117C13.1818 54.1289 13.664 53.9787 14.106 53.7675C14.1843 53.7287 14.2536 53.6791 14.3107 53.6208C14.3935 53.6703 14.4711 53.7206 14.5445 53.765C14.5719 53.8323 14.5981 53.9005 14.6254 53.9678C15.236 55.4437 15.9326 56.8829 16.6985 58.2776C17.4823 59.6656 18.3319 61.0058 19.2437 62.2956C19.4241 62.5469 19.6067 62.7956 19.7913 63.0418L19.7221 63.022L19.6382 62.9965C19.5584 62.7297 19.1996 62.3358 18.6498 61.8191C18.3949 61.5787 18.0981 61.3128 17.7697 61.0203C16.6083 60.0432 15.0576 58.7507 13.0485 58.0091C12.9698 57.9792 12.8901 57.9511 12.8103 57.9238C10.6669 57.2178 8.57597 56.7182 6.86167 56.7021C6.43539 56.6879 6.00839 56.705 5.5859 56.7532C4.53676 56.8734 3.80236 57.1615 3.6796 57.3808C3.65125 57.4391 3.65125 57.5039 3.6796 57.5622C3.74464 57.7694 3.9786 58.1063 4.34056 58.5631C4.6081 58.9042 4.94487 59.31 5.3341 59.779C6.44726 61.0236 7.96433 62.7629 10.2273 63.5175C10.306 63.543 10.3847 63.5669 10.4634 63.5907C12.8219 64.3325 14.938 64.6462 16.646 64.382C17.1747 64.3145 17.6904 64.1912 18.1799 64.0154C18.6528 63.8543 19.0895 63.6308 19.4724 63.3537C19.5407 63.3036 19.5972 63.2439 19.6393 63.1773C19.7683 63.2267 19.8889 63.2787 19.9981 63.3171C21.585 65.4094 23.3687 67.399 25.3329 69.268C26.08 69.975 26.835 70.6517 27.5982 71.2979L27.3746 71.2801L27.2844 71.2724C27.127 71.0294 26.6612 70.7182 25.9729 70.326C25.6582 70.1435 25.2869 69.9449 24.8807 69.7292C23.4739 69.0114 21.5823 68.065 19.4106 67.7411L19.1536 67.7053C16.8632 67.4495 14.6862 67.3745 13.017 67.6976C12.5995 67.7688 12.1905 67.8698 11.7948 67.9993C10.819 68.3208 10.1906 68.747 10.1382 68.9858C10.1271 69.0478 10.1454 69.1109 10.1896 69.1623C10.3144 69.3507 10.6428 69.6303 11.1338 70.0021C11.4958 70.279 11.9437 70.6065 12.462 70.985C13.9151 71.9715 15.9063 73.3551 18.3278 73.6434C18.4118 73.6527 18.4946 73.6595 18.5785 73.6663C21.0882 73.9221 23.2347 73.8053 24.8126 73.2119C25.3054 73.0423 25.7685 72.8208 26.1902 72.553C26.6009 72.3032 26.9579 71.9998 27.2466 71.6551C27.2964 71.5929 27.3319 71.5239 27.3516 71.4514C27.5131 71.4778 27.6663 71.5086 27.7943 71.5229L27.8845 71.535C29.2579 72.6867 30.6406 73.7422 32.0014 74.7014C33.5951 75.8233 35.1477 76.82 36.627 77.699L36.5903 77.7041C36.4602 77.7229 36.3133 77.7331 36.1529 77.7484L36.0626 77.757C35.8455 77.5464 35.3103 77.3222 34.5351 77.057C34.1763 76.9334 33.765 76.8012 33.3107 76.6572C31.737 76.1993 29.6387 75.5983 27.4355 75.6554C27.3484 75.6554 27.2613 75.6605 27.1753 75.6656C24.8672 75.8037 22.7216 76.1089 21.1751 76.7109C20.786 76.8526 20.4129 77.0218 20.0599 77.2165C19.185 77.7016 18.6814 78.2259 18.696 78.4654C18.7021 78.5279 18.736 78.5865 18.7915 78.6299C18.9626 78.7928 19.356 79.0093 19.9298 79.289C20.3495 79.4979 20.8741 79.7409 21.4837 80.0222C23.1622 80.7367 25.4705 81.7469 27.9086 81.6114C27.9926 81.6063 28.0765 81.5995 28.1594 81.5927C30.6773 81.4084 32.7473 80.9268 34.1395 80.0759C34.577 79.8252 34.9721 79.5288 35.3145 79.1944C35.6513 78.8802 35.9211 78.5227 36.113 78.1364C36.1463 78.067 36.1641 77.9933 36.1655 77.9189C36.3302 77.9189 36.4885 77.9189 36.6177 77.913L36.967 77.8993C37.4234 78.1661 37.8745 78.4228 38.3151 78.6666C39.2804 79.2301 40.235 79.6897 41.0911 80.1553L43.5095 81.3402L45.5029 82.2474C46.083 82.5109 46.5803 82.707 46.9811 82.8808L48.2139 83.4018L48.8643 82.3701L47.6243 81.8586C47.2223 81.6899 46.7125 81.4937 46.1429 81.2422Z" fill="url(#paint0_linear_1_482)"/>
<defs>
<linearGradient id="paint0_linear_1_482" x1="24.4321" y1="0.708313" x2="24.4321" y2="115.76" gradientUnits="userSpaceOnUse">
<stop stop-color="#7B87FF"/>
<stop offset="1" stop-color="#7B87FF" stop-opacity="0"/>
</linearGradient>
</defs>
</svg>
