<svg width="89" height="13" viewBox="0 0 89 13" fill="none" xmlns="http://www.w3.org/2000/svg">
<path d="M6.03378 0L8.0098 3.81025L12.0676 4.60894L9.23127 7.7628L9.7625 12.0676L6.03378 10.206L2.30507 12.0676L2.83629 7.7628L0 4.60894L4.05777 3.81025L6.03378 0Z" fill="#FFD748"/>
<path d="M25.2164 0L27.1924 3.81025L31.2502 4.60894L28.4139 7.7628L28.9451 12.0676L25.2164 10.206L21.4877 12.0676L22.0189 7.7628L19.1826 4.60894L23.2404 3.81025L25.2164 0Z" fill="#FFD748"/>
<path d="M44.4 0L46.376 3.81025L50.4338 4.60894L47.5975 7.7628L48.1287 12.0676L44.4 10.206L40.6713 12.0676L41.2025 7.7628L38.3662 4.60894L42.424 3.81025L44.4 0Z" fill="#FFD748"/>
<path d="M63.5826 0L65.5586 3.81025L69.6164 4.60894L66.7801 7.7628L67.3113 12.0676L63.5826 10.206L59.8539 12.0676L60.3851 7.7628L57.5488 4.60894L61.6066 3.81025L63.5826 0Z" fill="#FFD748"/>
<path d="M82.7652 0L84.7412 3.81025L88.799 4.60894L85.9627 7.7628L86.4939 12.0676L82.7652 10.206L79.0365 12.0676L79.5677 7.7628L76.7314 4.60894L80.7892 3.81025L82.7652 0Z" fill="#FFD748"/>
</svg>
