<svg width="157" height="29" viewBox="0 0 157 29" fill="none" xmlns="http://www.w3.org/2000/svg">
<path d="M6.84594 15.9296L3.65117 4.64242H3.55989C3.74245 6.55395 3.83373 8.10138 3.83373 9.10266V15.9296H0V0.273193H5.65931L8.94536 11.4693H9.03664L12.2314 0.273193H17.8907V16.0206H13.9657V9.10266C13.9657 8.73856 13.9657 8.37446 13.9657 7.91933C13.9657 7.4642 14.057 6.3719 14.1483 4.73344H14.057L10.8622 16.0206H6.84594V15.9296Z" fill="#009191"/>
<path d="M31.7659 15.9299L30.9443 13.0171H25.8327L25.0112 15.9299H20.356L25.4676 0.182495H31.1269L36.3298 16.0209H31.7659V15.9299ZM30.0316 9.55812L29.3926 6.91838C29.21 6.37223 29.0275 5.64402 28.8449 4.73377C28.6624 3.82351 28.4798 3.18634 28.3885 2.73121C28.2972 3.09531 28.206 3.73249 28.0234 4.55172C27.8409 5.37095 27.3845 7.0094 26.7455 9.46709H30.0316V9.55812Z" fill="#009191"/>
<path d="M49.1097 11.1966C49.1097 12.1979 48.8359 13.0171 48.3795 13.8363C47.9231 14.5645 47.1929 15.2017 46.1888 15.5658C45.276 16.0209 44.1806 16.203 42.9027 16.203C41.8074 16.203 40.9859 16.112 40.2556 16.0209C39.5254 15.8389 38.7952 15.6568 38.0649 15.2927V11.4697C38.8865 11.9248 39.708 12.1979 40.6208 12.4709C41.5336 12.744 42.2638 12.835 42.994 12.835C43.633 12.835 44.0894 12.744 44.3632 12.4709C44.637 12.2889 44.8196 12.0158 44.8196 11.6517C44.8196 11.4697 44.7283 11.2876 44.637 11.1056C44.5458 10.9235 44.3632 10.7415 44.0894 10.6504C43.8155 10.4684 43.0853 10.1043 41.9899 9.64914C40.9859 9.19402 40.1644 8.73889 39.708 8.28376C39.1603 7.82863 38.7952 7.37351 38.5213 6.73633C38.2475 6.19018 38.1562 5.46197 38.1562 4.73377C38.1562 3.27736 38.7039 2.18506 39.708 1.36583C40.8033 0.546597 42.2638 0.182495 44.0894 0.182495C45.7324 0.182495 47.3754 0.546597 49.1097 1.2748L47.8318 4.55172C46.3714 3.91454 45.0934 3.55044 43.9981 3.55044C43.4504 3.55044 43.0853 3.64146 42.8115 3.82351C42.5376 4.00556 42.4463 4.27864 42.4463 4.55172C42.4463 4.82479 42.6289 5.09787 42.9027 5.37095C43.1766 5.46197 43.9981 5.9171 45.4586 6.55428C46.8277 7.19146 47.7405 7.82863 48.2882 8.55684C48.8359 9.28504 49.1097 10.1043 49.1097 11.1966Z" fill="#009191"/>
<path d="M59.1473 15.9296H54.8572V3.73216H51.0234V0.273193H62.981V3.73216H59.1473V15.9296Z" fill="#009191"/>
<path d="M75.2143 15.9296H65.9038V0.273193H75.3056V3.64114H70.1939V6.09882H74.9405V9.46676H70.1939V12.4706H75.3056V15.9296H75.2143Z" fill="#009191"/>
<path d="M82.9718 10.286V16.0206H78.6816V0.273193H83.8846C88.1747 0.273193 90.2741 1.82063 90.2741 4.91549C90.2741 6.736 89.3613 8.19241 87.627 9.10266L92.191 15.9296H87.3532L83.9758 10.195H82.9718V10.286ZM82.9718 7.00908H83.7933C85.2537 7.00908 85.984 6.3719 85.984 5.00652C85.984 3.91421 85.2537 3.36806 83.7933 3.36806H82.9718V7.00908Z" fill="#009191"/>
<path d="M100.589 6.73588H107.435V15.2013C105.609 15.8384 103.51 16.1115 101.319 16.1115C98.8543 16.1115 97.0287 15.3833 95.6595 14.0179C94.2903 12.6525 93.6514 10.65 93.6514 8.01024C93.6514 5.46153 94.3816 3.45897 95.8421 2.09359C97.3025 0.637178 99.3107 0 101.958 0C102.962 0 103.875 0.0910255 104.787 0.273076C105.7 0.455127 106.43 0.728204 107.069 1.00128L105.7 4.36922C104.605 3.82307 103.327 3.54999 101.958 3.54999C100.68 3.54999 99.7671 3.91409 99.0368 4.73332C98.3979 5.55255 98.0328 6.73588 98.0328 8.19229C98.0328 9.6487 98.3066 10.741 98.9456 11.5602C99.5845 12.2884 100.406 12.7436 101.593 12.7436C102.232 12.7436 102.779 12.6525 103.327 12.5615V10.1038H100.589V6.73588Z" fill="#009191"/>
<path d="M115.561 10.286V16.0206H111.271V0.273193H116.473C120.764 0.273193 122.863 1.82063 122.863 4.91549C122.863 6.736 121.95 8.19241 120.216 9.10266L124.78 15.9296H119.942L116.565 10.195H115.561V10.286ZM115.561 7.00908H116.382C117.843 7.00908 118.573 6.3719 118.573 5.00652C118.573 3.91421 117.843 3.36806 116.382 3.36806H115.561V7.00908Z" fill="#009191"/>
<path d="M136.647 15.9299L135.825 13.0171H130.714L129.892 15.9299H125.237L130.348 0.182495H136.008L141.211 16.0209H136.647V15.9299ZM134.912 9.55812L134.273 7.00941C134.091 6.46325 133.908 5.73505 133.726 4.82479C133.543 3.91454 133.361 3.27736 133.269 2.82223C133.178 3.18634 133.087 3.82351 132.904 4.64274C132.722 5.46197 132.265 7.10043 131.626 9.55812H134.912Z" fill="#009191"/>
<path d="M157 7.73728C157 10.377 156.27 12.3796 154.809 13.836C153.349 15.2924 151.341 15.9296 148.694 15.9296H143.582V0.273193H149.059C151.615 0.273193 153.531 0.910372 154.901 2.18473C156.361 3.45908 157 5.37062 157 7.73728ZM152.619 7.91933C152.619 6.46292 152.345 5.37062 151.797 4.73344C151.249 4.00524 150.337 3.73216 149.15 3.73216H147.872V12.5616H148.785C150.063 12.5616 151.067 12.1975 151.615 11.4693C152.254 10.6501 152.619 9.46677 152.619 7.91933Z" fill="#009191"/>
<path d="M3.74245 20.5708V21.5721H1.27791V26.3964H0V20.5708H3.74245Z" fill="#009191"/>
<path d="M10.6804 23.4836C10.6804 24.4849 10.4065 25.2131 9.95013 25.6682C9.49374 26.1234 8.7635 26.3964 7.94199 26.3964C7.0292 26.3964 6.39024 26.1234 5.93385 25.6682C5.47745 25.2131 5.20361 24.3939 5.20361 23.4836C5.20361 22.4823 5.47745 21.7541 5.93385 21.299C6.39024 20.7529 7.12048 20.5708 8.03327 20.5708C8.94606 20.5708 9.58502 20.8439 10.0414 21.299C10.4065 21.7541 10.6804 22.4823 10.6804 23.4836ZM6.39024 23.4836C6.39024 24.1208 6.48152 24.5759 6.75536 24.94C7.0292 25.3041 7.39431 25.3952 7.85071 25.3952C8.85478 25.3952 9.31118 24.758 9.31118 23.4836C9.31118 22.2093 8.85478 21.4811 7.85071 21.4811C7.39431 21.4811 7.0292 21.6631 6.75536 21.9362C6.5728 22.3003 6.39024 22.8464 6.39024 23.4836Z" fill="#009191"/>
<path d="M16.7033 22.3913C16.7033 23.0285 16.5208 23.4836 16.1557 23.8477C15.7905 24.2118 15.2429 24.3028 14.5126 24.3028H13.9649V26.3964H12.7783V20.5708H14.6039C15.3341 20.5708 15.8818 20.7529 16.2469 21.0259C16.5208 21.299 16.7033 21.7541 16.7033 22.3913ZM13.8737 23.3016H14.2388C14.6039 23.3016 14.8777 23.2105 15.0603 23.1195C15.2429 22.9375 15.3341 22.7554 15.3341 22.4823C15.3341 22.2093 15.2429 22.0272 15.0603 21.8452C14.8777 21.6631 14.6952 21.6631 14.3301 21.6631H13.7824V23.3016H13.8737Z" fill="#009191"/>
<path d="M23.8244 23.4836C23.8244 24.4849 23.5506 25.2131 23.0942 25.6682C22.6378 26.2144 21.9075 26.3964 21.086 26.3964C20.2645 26.3964 19.5343 26.1234 19.0779 25.6682C18.6215 25.1221 18.3477 24.3939 18.3477 23.4836C18.3477 22.4823 18.6215 21.7541 19.0779 21.299C19.5343 20.7529 20.2645 20.5708 21.1773 20.5708C22.0901 20.5708 22.7291 20.8439 23.1855 21.299C23.6419 21.7541 23.8244 22.4823 23.8244 23.4836ZM19.6256 23.4836C19.6256 24.1208 19.7168 24.5759 19.9907 24.94C20.2645 25.3041 20.6296 25.3952 21.086 25.3952C22.0901 25.3952 22.5465 24.758 22.5465 23.4836C22.5465 22.2093 22.0901 21.4811 21.086 21.4811C20.6296 21.4811 20.2645 21.6631 19.9907 21.9362C19.7168 22.3003 19.6256 22.8464 19.6256 23.4836Z" fill="#009191"/>
<path d="M25.1948 25.3041H25.6512C26.0163 24.5759 26.3814 23.7567 26.564 23.0285C26.7465 22.3003 26.9291 21.4811 27.0204 20.5708H30.3977V25.3041H31.1279V28.0349H29.9413V26.3054H26.2901V28.0349H25.1035V25.3041H25.1948ZM28.0244 21.5721C27.9332 22.2093 27.8419 22.8464 27.5681 23.4836C27.3855 24.1208 27.1117 24.758 26.9291 25.3041H29.2111V21.5721H28.0244Z" fill="#009191"/>
<path d="M38.2453 26.3964L36.8761 21.8452C36.9674 22.7554 36.9674 23.3926 36.9674 23.6657V26.3964H35.8721V20.5708H37.4238L38.793 25.031L40.2535 20.5708H41.9878V26.3964H40.8011V23.6657C40.8011 23.5746 40.8011 23.3926 40.8011 23.2105C40.8011 23.0285 40.8011 22.5734 40.8924 21.8452L39.432 26.3964H38.2453Z" fill="#009191"/>
<path d="M47.8301 26.3964L47.3737 25.031H45.2743L44.8179 26.3964H43.4487L45.4569 20.5708H47.0086L49.108 26.3964H47.8301ZM47.0999 23.9387C46.7348 22.6644 46.4609 21.9362 46.4609 21.8452C46.3697 21.6631 46.3697 21.5721 46.3697 21.4811C46.2784 21.8452 46.0046 22.6644 45.6394 24.0298H47.0999V23.9387Z" fill="#009191"/>
<path d="M53.1256 21.4811C52.6692 21.4811 52.3041 21.6631 52.0302 22.0272C51.7564 22.3913 51.6651 22.8464 51.6651 23.4836C51.6651 24.758 52.1215 25.3952 53.1256 25.3952C53.4907 25.3952 54.0384 25.3041 54.5861 25.1221V26.1234C54.1297 26.3054 53.582 26.3964 52.943 26.3964C52.1215 26.3964 51.4826 26.1234 51.0262 25.6682C50.5698 25.1221 50.3872 24.3939 50.3872 23.4836C50.3872 22.8464 50.4785 22.3913 50.7523 21.9362C50.9349 21.4811 51.3 21.117 51.6651 20.9349C52.1215 20.6618 52.5779 20.5708 53.1256 20.5708C53.6733 20.5708 54.2209 20.6618 54.8599 20.9349L54.4948 21.9362C54.3122 21.8452 54.0384 21.7541 53.8558 21.6631C53.582 21.5721 53.3994 21.4811 53.1256 21.4811Z" fill="#009191"/>
<path d="M58.8751 26.3955H57.5972V21.6622H56.0454V20.6609H60.4268V21.6622H58.8751V26.3955Z" fill="#009191"/>
<path d="M65.538 26.3964H62.1606V20.5708H65.538V21.5721H63.4386V22.8464H65.4467V23.8477H63.4386V25.3041H65.538V26.3964Z" fill="#009191"/>
<path d="M71.5622 22.3913C71.5622 23.0285 71.3796 23.4836 71.0145 23.8477C70.6494 24.2118 70.1017 24.3028 69.3715 24.3028H68.8238V26.3964H67.5459V20.5708H69.3715C70.1017 20.5708 70.6494 20.7529 71.0145 21.0259C71.3796 21.299 71.5622 21.7541 71.5622 22.3913ZM68.7325 23.3016H69.0976C69.4628 23.3016 69.7366 23.2105 69.9192 23.1195C70.1017 22.9375 70.193 22.7554 70.193 22.4823C70.193 22.2093 70.1017 22.0272 69.9192 21.8452C69.7366 21.6631 69.554 21.6631 69.1889 21.6631H68.6412V23.3016H68.7325Z" fill="#009191"/>
<path d="M78.6838 23.4836C78.6838 24.4849 78.41 25.2131 77.9536 25.6682C77.4972 26.2144 76.7669 26.3964 75.9454 26.3964C75.0326 26.3964 74.3937 26.1234 73.9373 25.6682C73.4809 25.1221 73.207 24.3939 73.207 23.4836C73.207 22.4823 73.4809 21.7541 73.9373 21.299C74.3937 20.7529 75.1239 20.5708 76.0367 20.5708C76.9495 20.5708 77.5884 20.8439 78.0448 21.299C78.5012 21.7541 78.6838 22.4823 78.6838 23.4836ZM74.4849 23.4836C74.4849 24.1208 74.5762 24.5759 74.8501 24.94C75.1239 25.3041 75.489 25.3952 75.9454 25.3952C76.9495 25.3952 77.4059 24.758 77.4059 23.4836C77.4059 22.2093 76.9495 21.4811 75.9454 21.4811C75.489 21.4811 75.1239 21.6631 74.8501 21.9362C74.5762 22.3003 74.4849 22.8464 74.4849 23.4836Z" fill="#009191"/>
<path d="M80.6924 20.5708H82.518C83.3395 20.5708 83.9784 20.6618 84.3436 20.9349C84.7087 21.208 84.8912 21.5721 84.8912 22.0272C84.8912 22.3913 84.8 22.6644 84.6174 22.8464C84.4348 23.0285 84.2523 23.2105 83.9784 23.2105C84.3436 23.3016 84.6174 23.4836 84.7999 23.6657C84.9825 23.8477 85.0738 24.2118 85.0738 24.5759C85.0738 25.1221 84.8912 25.4862 84.5261 25.8503C84.161 26.2144 83.6133 26.3054 82.9744 26.3054H80.7837V20.5708H80.6924ZM81.9703 22.8464H82.7005C83.0657 22.8464 83.2482 22.7554 83.4308 22.6644C83.6133 22.5734 83.6133 22.3913 83.6133 22.1182C83.6133 21.9362 83.522 21.7541 83.3395 21.6631C83.1569 21.5721 82.8831 21.4811 82.6093 21.4811H81.9703V22.8464ZM81.9703 23.8477V25.3952H82.7918C83.1569 25.3952 83.3395 25.3041 83.522 25.2131C83.7046 25.1221 83.7959 24.849 83.7959 24.5759C83.7959 24.1208 83.4308 23.8477 82.7918 23.8477H81.9703Z" fill="#009191"/>
</svg>
