<svg width="135" height="30" viewBox="0 0 135 30" fill="none" xmlns="http://www.w3.org/2000/svg">
<path fill-rule="evenodd" clip-rule="evenodd" d="M0.000874718 0H6.83217C7.06487 0.571136 7.27726 1.15143 7.50216 1.72579C10.0563 8.35995 12.6078 14.9951 15.1642 21.6284C15.9468 19.564 16.7165 17.494 17.4946 15.4277C19.1738 10.952 20.8539 6.47684 22.533 2.00116C22.7854 1.33462 23.0305 0.664921 23.2873 0H37.2801C37.5658 0.0262456 37.8544 0.0174871 38.1405 0.0433804C39.7657 0.151835 41.3858 0.542696 42.8411 1.30206C43.6224 1.70037 44.3473 2.20873 45.0135 2.7848C45.7659 3.41592 46.4334 4.15983 46.945 5.00842C47.5018 5.9248 47.8623 6.96222 48.0116 8.0296C48.1749 9.22266 48.1247 10.4525 47.8211 11.6188C47.5879 12.5138 47.1953 13.3639 46.6748 14.1216C46.1242 14.9258 45.4392 15.6276 44.6825 16.2286C43.8989 16.8516 43.0322 17.3638 42.1137 17.7479C41.1418 18.1573 40.114 18.4146 39.0743 18.5619C40.3602 18.5632 41.6464 18.5621 42.9322 18.5621C45.0343 22.3741 47.1355 26.1867 49.2362 29.9995C46.8742 30 44.5122 30.0003 42.1504 29.9993C40.0988 26.2288 38.0476 22.4579 35.9969 18.6869C34.0584 18.6869 32.1198 18.6866 30.1813 18.687C30.1805 22.4579 30.1817 26.229 30.1805 29.9998C28.0434 29.9996 25.9062 30.0003 23.7692 29.9996C23.7677 21.1236 23.7717 12.2478 23.767 3.37219C23.7363 3.44514 23.7084 3.51952 23.682 3.59446C20.4451 12.3963 17.2063 21.1974 13.9705 29.9996C13.3235 30.0001 12.6769 29.9998 12.0298 29.9998C8.5964 21.0802 5.16388 12.1602 1.73052 3.24063C1.7289 12.1602 1.73027 21.08 1.72973 29.9996C1.15327 30.0001 0.576816 30.0001 0.000358092 29.9996C0.000358092 19.9996 -0.000724368 9.99998 0.000874718 0ZM30.1813 1.4928C30.181 6.72895 30.1808 11.9649 30.1813 17.2008C31.825 17.201 33.4684 17.201 35.1121 17.2008C35.4943 17.1895 35.8758 17.1385 36.2474 17.0452C37.1677 16.8168 38.0134 16.3018 38.6635 15.6C39.3051 14.9152 39.7694 14.0726 40.0845 13.1845C40.4926 12.0362 40.6618 10.8113 40.6861 9.59359C40.7034 8.28917 40.5635 6.9709 40.1575 5.72935C39.851 4.78897 39.3845 3.89161 38.7222 3.1624C38.0952 2.46471 37.2798 1.94063 36.3842 1.69068C35.858 1.53779 35.3088 1.48807 34.7635 1.4928C33.236 1.4928 31.7085 1.4928 30.1813 1.4928ZM60.5002 7.83662C61.3531 7.56549 62.2475 7.44433 63.1391 7.43577C64.1123 7.42747 65.0979 7.53396 66.0208 7.86431C66.6448 8.08544 67.2294 8.43036 67.7107 8.89505C68.2123 9.37084 68.5993 9.98473 68.7617 10.6684C68.8239 10.9311 68.8579 11.2013 68.855 11.472C68.6563 11.4717 68.458 11.4728 68.2602 11.4712C68.2628 11.0441 68.184 10.6135 68.0072 10.2251C67.8696 9.92404 67.6731 9.65318 67.4409 9.42178C66.8208 8.82832 66.0318 8.42002 65.1927 8.27824C64.3514 8.1361 63.4815 8.15106 62.648 8.34037C61.7858 8.53826 60.9697 8.96924 60.3418 9.60922C59.696 10.2577 59.2508 11.0909 58.9701 11.9655C58.6174 13.0693 58.5003 14.2389 58.5076 15.3954C58.5144 16.3685 58.6141 17.3477 58.8816 18.2842C59.1292 19.1571 59.5357 19.9857 60.0951 20.6933C60.5175 21.2329 61.0573 21.6915 61.6953 21.9356C62.2383 22.1471 62.8285 22.2096 63.4061 22.1747C64.1401 22.1305 64.8822 21.9033 65.4617 21.4275C65.8802 21.0867 66.1962 20.6165 66.3505 20.0918C66.4011 19.961 66.3761 19.8187 66.3818 19.6821C66.387 19.2766 66.3721 18.8713 66.3751 18.4656C66.3734 17.7054 66.3862 16.9455 66.3824 16.185C67.4475 16.1858 68.5125 16.1842 69.5776 16.1858C69.5774 18.314 69.5779 20.4423 69.5774 22.5706C69.4101 22.5711 69.2428 22.5708 69.0757 22.5708C68.5223 22.0462 67.9639 21.527 67.4105 21.0021C66.9819 21.5754 66.3657 21.9729 65.7165 22.2366C64.9465 22.5487 64.1182 22.6897 63.2928 22.7135C62.3754 22.7353 61.4513 22.6289 60.5708 22.3591C59.0117 21.8878 57.6266 20.8736 56.6459 19.5527C56.0648 18.7671 55.6508 17.854 55.4387 16.8932C55.3086 16.3031 55.2422 15.6976 55.2473 15.0928C55.2325 13.9733 55.4495 12.8443 55.924 11.8326C56.3662 10.883 57.0262 10.0487 57.8033 9.36425C58.5863 8.67157 59.5108 8.14795 60.5003 7.83672L60.5002 7.83662ZM94.2344 7.45957C95.4576 7.37578 96.7084 7.50129 97.8644 7.93612C98.7452 8.26375 99.5588 8.77454 100.252 9.41971C100.977 10.0906 101.589 10.8973 102.002 11.8062C102.469 12.8212 102.674 13.9488 102.671 15.0667C102.673 16.2667 102.43 17.478 101.889 18.5473C101.424 19.4741 100.753 20.2847 99.9693 20.947C99.2081 21.5889 98.3181 22.0687 97.3701 22.3469C96.7056 22.5439 96.0163 22.6468 95.326 22.6736C94.1092 22.7233 92.8722 22.5567 91.7411 22.0817C90.8139 21.6959 89.9709 21.1046 89.2739 20.3706C88.5436 19.6257 87.9667 18.72 87.6179 17.7263C87.2049 16.552 87.1059 15.2771 87.2421 14.0417C87.3703 12.8823 87.7705 11.7531 88.4212 10.7933C88.984 9.9643 89.7018 9.24394 90.5261 8.68889C91.6246 7.94553 92.9247 7.54721 94.2344 7.45957ZM94.5031 8.06577C93.9739 8.12412 93.4576 8.30788 93.013 8.60791C92.5667 8.90418 92.1911 9.30363 91.8848 9.74704C91.2866 10.6194 90.9387 11.648 90.7487 12.6894C90.5333 13.901 90.5049 15.143 90.6072 16.3682C90.7201 17.6406 91.0214 18.9202 91.6651 20.0262C92.1 20.7659 92.7121 21.4269 93.4944 21.7766C94.1009 22.0527 94.7838 22.1271 95.4391 22.0406C95.9573 21.9709 96.459 21.7768 96.8897 21.475C97.2726 21.2104 97.5984 20.8677 97.8717 20.4887C98.2086 20.014 98.4847 19.4944 98.69 18.9467C99.129 17.7832 99.2827 16.5282 99.3038 15.2876C99.313 14.5484 99.2762 13.807 99.1695 13.0753C99.0084 11.9698 98.6761 10.8741 98.0751 9.93277C97.6554 9.2528 97.0729 8.65376 96.343 8.33313C95.7678 8.07405 95.1244 7.99835 94.5031 8.06577ZM72.6855 7.60889C74.9178 7.60864 77.15 7.60889 79.3823 7.60889C80.432 7.6104 81.4976 7.83549 82.4157 8.37011C82.8329 8.60849 83.2123 8.91133 83.5621 9.24364C83.8837 9.55743 84.1625 9.91951 84.3712 10.3218C84.6142 10.7873 84.7582 11.3044 84.805 11.8294C84.8657 12.5028 84.7914 13.1947 84.5472 13.8255C84.2563 14.5907 83.7169 15.2344 83.0837 15.7285C82.6331 16.0801 82.1289 16.3594 81.5949 16.5528C81.1892 16.6957 80.77 16.8113 80.3417 16.8506C80.6427 16.8746 80.9454 16.8569 81.2473 16.8625C81.5803 16.8625 81.9132 16.8625 82.2464 16.8625C83.2953 18.7646 84.3461 20.6658 85.3912 22.5702C84.2122 22.5712 83.0334 22.5704 81.8549 22.5707C80.8308 20.6915 79.8098 18.8112 78.7866 16.9318C77.8204 16.9315 76.8543 16.9313 75.8884 16.9318C75.8881 18.8112 75.8881 20.6907 75.8884 22.5701C74.8209 22.5719 73.7537 22.5699 72.6864 22.5709C72.6844 17.5835 72.6859 12.5961 72.6856 7.60877L72.6855 7.60889ZM75.8887 8.35524C75.8879 10.965 75.8882 13.5751 75.8884 16.1849C76.6559 16.1856 77.4235 16.1846 78.191 16.1854C78.4685 16.1856 78.748 16.1563 79.0148 16.0751C79.6177 15.8976 80.1301 15.4669 80.4631 14.9287C80.77 14.4416 80.9481 13.88 81.0419 13.3112C81.1374 12.7125 81.1479 12.1005 81.08 11.4982C81.0144 10.9376 80.8736 10.3808 80.6173 9.87857C80.3968 9.44626 80.0852 9.0554 79.6863 8.7836C79.265 8.49138 78.7523 8.34576 78.2445 8.35489C77.4591 8.35539 76.6738 8.35514 75.8887 8.35514L75.8887 8.35524ZM105.332 7.6022C106.4 7.60169 107.468 7.60169 108.535 7.6022C108.535 10.6338 108.535 13.6658 108.535 16.6974C108.521 17.3194 108.571 17.9463 108.73 18.5484C108.959 19.4385 109.451 20.2711 110.178 20.8248C110.974 21.4388 111.989 21.6933 112.976 21.679C113.977 21.6873 115.007 21.394 115.783 20.7294C116.045 20.5072 116.276 20.2484 116.469 19.962C116.464 16.911 116.468 13.8601 116.467 10.8091C116.469 9.74203 116.462 8.67533 116.474 7.60852C117.539 7.60902 118.604 7.60832 119.67 7.60877C119.67 12.5958 119.669 17.583 119.67 22.5701C119.502 22.5716 119.334 22.5701 119.167 22.5711C118.392 21.8504 117.629 21.1193 116.853 20.4017C116.3 21.2343 115.481 21.8656 114.564 22.2197C113.467 22.6471 112.268 22.7212 111.108 22.625C110.051 22.5313 109.001 22.2294 108.091 21.6633C107.267 21.1521 106.549 20.4469 106.064 19.5912C105.757 19.0477 105.549 18.4473 105.439 17.8303C105.34 17.2926 105.325 16.7439 105.332 16.1982C105.332 13.3328 105.332 10.4675 105.332 7.60197L105.332 7.6022ZM122.858 7.6022C124.852 7.60169 126.845 7.6022 128.839 7.60195C129.28 7.60371 129.722 7.59178 130.162 7.63093C131.131 7.7103 132.092 8.00751 132.904 8.55927C133.59 9.02998 134.218 9.63071 134.589 10.3962C134.839 10.8981 134.967 11.4566 135 12.0171V12.507C134.967 13.1074 134.821 13.7051 134.539 14.235C134.106 15.0579 133.402 15.705 132.613 16.1619C131.69 16.6939 130.622 16.9227 129.568 16.9249C128.399 16.9244 127.23 16.9247 126.061 16.9249C126.061 18.8044 126.062 20.6841 126.061 22.5636C124.994 22.5641 123.926 22.5641 122.859 22.5636C122.858 17.5764 122.858 12.5894 122.858 7.60223L122.858 7.6022ZM126.061 8.34855C126.061 10.9584 126.061 13.5681 126.061 16.178C126.735 16.1785 127.408 16.178 128.082 16.1782C128.325 16.1738 128.571 16.192 128.813 16.1548C129.34 16.0851 129.841 15.836 130.219 15.454C130.51 15.1681 130.733 14.814 130.898 14.4378C131.143 13.87 131.259 13.2511 131.291 12.6335C131.315 12.107 131.293 11.5759 131.191 11.0581C131.087 10.5263 130.904 10.0041 130.608 9.55242C130.38 9.2025 130.08 8.89918 129.722 8.68942C129.341 8.46216 128.901 8.3524 128.462 8.34825C127.662 8.3485 126.861 8.34775 126.061 8.3485V8.34855Z" fill="white"/>
</svg>
