<svg width="143" height="35" viewBox="0 0 143 35" fill="none" xmlns="http://www.w3.org/2000/svg">
<g clip-path="url(#clip0_1_2109)">
<path d="M133.304 2.79997C133.234 4.05997 132.537 5.24997 131.979 5.94997C129.816 8.46997 124.585 9.65997 122.352 7.83997C121.376 7.06997 121.446 5.66997 122.283 4.75997C123.748 3.14997 126.887 2.79997 129.049 2.65997C129.468 2.65997 132.676 2.65997 133.234 2.79997C133.374 2.79997 133.234 2.72997 133.304 2.79997ZM142.652 16.8C141.047 16.52 139.512 15.82 138.536 14.98C137.559 14.14 136.652 13.16 136.164 11.41C135.536 9.16997 136.164 5.87997 136.652 3.56997C136.792 2.79997 137.071 2.02997 137.211 1.25997C136.443 1.11997 135.327 1.04997 134.56 0.979969C131.77 0.769969 128.91 0.699969 126.119 0.979969C122.283 1.32997 119.632 2.30997 117.749 4.40997C116.842 5.45997 116.144 7.20997 117.26 8.67997C118.028 9.65997 119.562 10.36 121.167 10.71C123.678 11.27 126.329 10.85 128.7 9.93997C129.398 9.65997 130.026 9.30997 130.723 9.02997C130.514 9.79997 129.049 11.76 128.491 12.39C127.793 13.16 127.096 13.93 126.259 14.63C125.631 15.12 125.003 15.61 124.236 15.96C119.492 18.34 116.842 14.07 114.958 13.23C112.866 12.32 111.052 17.43 109.308 14.63C108.262 12.95 107.494 9.23997 104.983 11.06C104.565 11.34 104.146 11.69 103.728 12.04C103.17 12.53 102.472 13.09 101.914 13.58C100.868 14.56 98.4261 16.52 97.1705 16.66C96.473 16.73 96.0544 16.24 95.9847 15.61C95.9149 14.98 96.1242 14.28 96.4032 13.79C97.031 12.46 98.5657 10.36 99.612 9.16997C99.7515 9.02997 100.1 8.67997 100.1 8.60997C99.9608 8.46997 99.4027 8.11997 99.1237 8.04997C97.7286 7.41997 96.8217 7.62997 95.7057 8.46997C93.8222 9.86997 91.1715 12.67 90.8925 15.12C90.8925 15.4 90.9622 15.61 90.753 15.75C88.3813 17.78 84.0564 17.36 83.2891 13.37C83.1495 12.46 83.1495 11.62 82.9403 10.71C82.173 7.34997 79.8013 7.69997 77.4993 9.23997C76.8017 9.65997 75.1276 10.99 74.5695 11.62C74.43 11.76 74.3603 11.9 74.151 11.97C74.43 11.41 76.732 7.97997 77.0808 7.41997C77.3598 6.99997 77.9876 6.22997 77.2203 5.87997C76.5925 5.52997 75.6856 5.80997 75.1973 6.08997C74.7091 6.43997 74.43 6.99997 74.0813 7.48997C73.4534 8.46997 72.8256 9.51997 72.1978 10.57C71.6398 11.62 71.012 12.74 70.4539 13.86C70.2447 14.28 70.1749 14.21 69.8261 14.42C68.9891 14.91 68.152 15.26 67.2452 15.54C66.1291 15.89 64.3154 16.38 63.0598 16.17C61.1764 15.82 62.0832 14.07 62.711 13.16C62.99 12.81 63.7574 11.97 63.4086 11.55C62.2925 10.22 58.7349 14.14 55.1773 15.19C54.0612 15.54 51.8291 16.03 51.55 14.63C51.271 13.23 52.6661 11.97 53.2939 11.48C54.131 10.78 55.2471 10.22 56.5027 9.72997C61.3856 7.76997 63.7573 9.93997 64.5944 9.93997C64.8734 9.51997 64.9432 8.74997 64.6642 8.25997C64.4549 7.90997 64.0364 7.55997 63.4783 7.34997C60.6183 6.22997 55.9447 7.62997 53.3637 8.74997C51.3408 9.65997 49.9456 10.57 48.3413 11.97C47.0159 13.16 45.272 15.19 45.4115 17.22C42.5515 18.55 39.6915 17.85 38.2266 15.89C36.2734 13.3 37.3895 10.85 36.2037 8.11997C35.7154 6.99997 34.8783 6.08997 33.2739 6.08997C30.8325 6.08997 27.9725 8.60997 26.1588 10.08L24.5544 11.55C24.4149 11.69 24.4149 11.76 24.2056 11.83C24.0661 10.92 23.7173 9.93997 23.5081 9.02997L22.0432 3.49997C21.7642 2.51997 21.4154 1.74997 20.7876 1.25997C19.253 -0.0700315 17.3695 1.60997 16.1139 2.58997C15.2769 3.28997 13.4632 5.24997 12.7656 6.15997L11.1612 8.04997C9.62661 9.86997 8.09198 12.04 6.6271 13.93C6.13881 14.56 5.65052 15.26 5.16222 15.96C4.04613 17.43 2.09296 19.88 0.697834 21.07C0.558321 21.21 0.349053 21.35 0.279297 21.49C1.67442 21.7 4.11588 21.42 5.37149 21C7.11539 20.44 7.81296 19.81 8.71979 18.69C9.55686 17.64 10.2544 16.45 11.0217 15.33C12.4866 13.09 13.8817 10.64 15.4861 8.46997C15.9047 7.90997 16.3232 7.41997 16.8115 6.92997C17.0905 6.64997 18.0671 5.66997 18.5554 6.36997C19.1134 7.13997 19.3227 10.01 19.3925 11.2C19.532 12.88 19.6017 14.63 19.8808 16.31C20.09 17.71 20.6481 20.16 22.2525 18.69C22.5315 18.48 22.7408 18.2 22.95 17.99C23.1593 17.71 23.4383 17.5 23.6476 17.29C23.8569 17.01 24.1359 16.8 24.3452 16.59C25.4613 15.33 26.6471 14.21 27.9725 13.16C28.9491 12.46 30.8325 11.34 31.8788 12.67C33.6227 14.77 33.6227 17.5 36.8315 19.04C39.273 20.23 42.3422 20.02 44.9232 18.9C45.1325 18.76 45.6208 18.48 45.83 18.41C46.0393 18.69 46.1091 18.76 46.4578 18.97C48.3412 20.09 51.6895 19.25 53.573 18.62C54.8983 18.2 55.8052 17.64 56.7817 17.01C57.4095 16.59 59.0139 15.54 59.6417 15.05C59.6417 15.26 59.5022 15.75 59.5022 15.96C59.4325 16.87 59.4325 18.06 60.13 18.62C61.4554 19.67 65.5013 17.64 66.7569 16.94L69.6169 15.4C69.4076 15.96 69.0588 16.59 68.8495 17.15C67.1754 21.07 65.7105 26.74 65.0827 30.87C65.013 31.5 64.5944 33.6 64.9432 34.23C65.0827 34.44 65.3617 34.72 65.7105 34.65C66.7569 34.58 67.1056 32.41 67.3847 31.36C68.5705 26.95 70.2447 20.44 72.8954 16.94C73.872 15.68 76.1739 12.46 78.6852 12.81C79.313 12.88 79.7315 13.51 79.9408 14C80.9174 15.68 81.4056 17.22 83.3588 18.06C85.5213 19.04 88.3115 18.55 90.2647 17.22C90.4739 17.08 90.8227 16.8 91.032 16.73C91.3808 17.08 91.3808 17.57 92.2876 18.13C92.7759 18.48 93.4735 18.69 94.171 18.83C98.0774 19.53 101.077 17.43 103.728 15.05C104.076 14.77 104.355 14.35 104.704 14.07C104.774 14.14 105.192 15.19 105.611 15.75C107.634 18.62 110.215 17.43 112.726 16.17C114.4 15.33 114.889 15.82 116.353 16.73C116.912 17.01 117.47 17.29 118.097 17.57C120.957 18.69 123.957 18.13 126.468 16.94C127.584 16.38 128.77 15.68 129.677 14.98C130.235 14.49 131.212 13.79 131.7 13.16L132.258 12.46C132.328 12.6 132.746 14 132.886 14.28C133.513 15.89 134.56 17.64 135.885 18.55C137.141 19.46 138.048 19.39 139.582 18.69C140.419 18.34 141.187 17.92 141.954 17.43C142.093 17.36 142.163 17.29 142.303 17.15C142.372 17.08 142.442 17.08 142.512 17.01L142.652 16.8ZM41.0169 10.08C40.9471 8.95997 41.7842 7.97997 42.8305 7.90997C44.0164 7.83997 44.9232 8.74997 44.993 9.79997C45.0627 10.92 44.2256 11.83 43.1793 11.97C42.0632 12.04 41.1564 11.13 41.0169 10.08ZM42.691 7.48997C41.4354 7.69997 40.4588 8.81997 40.6681 10.29C40.8773 11.48 41.9934 12.53 43.4583 12.25C44.6442 12.04 45.6905 10.92 45.4812 9.44997C45.2022 8.32997 44.0861 7.27997 42.691 7.48997ZM42.4817 8.95997C42.9003 8.95997 43.5978 8.81997 43.5978 9.37997C43.5978 9.86997 42.9003 9.72997 42.4817 9.72997V8.95997ZM41.8539 11.27H42.4817V10.15H43.1095L43.5281 11.27H44.1559L43.6676 10.01C44.4349 9.72997 44.2256 8.88997 43.8769 8.67997C43.4583 8.39997 42.412 8.46997 41.8539 8.46997V11.27Z" fill="#E31E24"/>
<path d="M109.796 25.8299C109.657 25.8299 108.68 25.8299 108.61 25.8299C108.471 25.8999 108.401 26.5299 108.331 26.7399L107.494 30.5899C107.425 30.9399 107.076 32.1999 107.076 32.4799H113.354C113.493 32.1999 114.819 25.9699 114.749 25.8299H113.493L112.307 31.3599H111.052C110.982 30.9399 112.168 26.3199 112.168 25.8299H110.982C110.912 26.0399 110.424 28.2099 110.354 28.6299C110.285 29.1199 110.145 29.5399 110.075 30.0299C110.006 30.2399 110.006 30.5199 109.936 30.7299C109.936 30.8699 109.866 31.3599 109.727 31.3599H108.471L109.796 25.8299ZM128.282 31.4999C128.282 31.0799 128.63 29.9599 128.7 29.4699C128.77 29.0499 128.77 28.6999 128.979 28.5599C129.258 28.3499 129.607 28.2799 129.747 28.6299C129.956 29.1899 129.607 30.9399 129.049 31.4299C128.77 31.7799 128.491 31.6399 128.282 31.4999ZM127.096 28.4199C127.445 28.2799 127.793 28.4899 127.724 28.9099L127.305 30.8699C127.235 31.2899 127.235 31.4999 126.887 31.5699C125.98 31.7799 126.259 30.5199 126.328 29.9599C126.398 29.3999 126.607 28.6299 127.096 28.4199ZM129.467 26.1099C128.282 26.1099 128.351 26.0399 128.282 26.3199L128.142 26.9499C128.072 27.2299 128.003 27.5099 127.933 27.8599C127.654 27.7199 127.514 27.4399 126.956 27.5099C126.607 27.5799 126.259 27.7899 126.049 27.9299C125.143 28.6999 124.096 32.1299 125.91 32.4799C126.468 32.5499 126.607 32.4099 126.956 32.1999L126.538 33.9499C127.933 33.9499 127.654 34.1599 127.863 33.0399C127.933 32.8299 128.003 32.3399 128.072 32.1999C128.421 32.4099 128.491 32.5499 129.119 32.4099C130.932 32.0599 131.351 28.7699 130.863 27.8599C130.723 27.5799 130.444 27.3699 130.026 27.3699C129.607 27.3699 129.328 27.5799 129.049 27.7199L129.467 26.1099ZM75.825 25.8299H74.5694L73.1743 32.5499H74.4299C74.5694 32.0599 74.7787 30.8699 74.9182 30.2399C74.988 29.7499 74.988 29.5399 75.1972 29.5399C75.7553 29.5399 76.1738 29.4699 76.1738 30.0999C76.2436 30.9399 76.0343 31.9199 76.5226 32.3399C76.7319 32.5499 77.1504 32.6199 77.5689 32.5499C77.6387 32.4799 78.0572 31.7099 77.9875 31.5699C77.848 31.4299 77.7782 31.4999 77.6387 31.4299C77.2899 31.2899 77.4294 30.7299 77.4294 30.2399C77.4294 29.2599 77.2202 29.2599 76.8714 28.9799L76.8016 28.9099C77.4294 28.7699 77.6387 28.3499 77.848 27.7199C77.9177 27.5099 78.0572 27.0899 78.1968 26.9499C78.406 26.5999 78.6153 26.7399 78.8943 26.5299C78.9641 26.3199 78.8943 25.7599 78.8246 25.6199C78.406 25.5499 77.9177 25.7599 77.6387 25.9699C77.3597 26.1799 77.2202 26.5299 77.0109 26.9499C76.4529 28.2799 76.5924 28.4199 75.3368 28.4199L75.825 25.8299ZM123.12 28.6999C123.12 29.0499 122.771 30.4499 122.631 30.7999C122.213 31.7099 121.376 31.9199 121.236 31.2899C121.097 30.7299 121.376 29.6099 121.585 29.1199C121.934 28.3499 122.422 28.0699 123.12 28.6999ZM123.887 32.4799C123.887 31.9899 123.747 31.7799 123.747 31.1499C123.817 30.7299 123.887 30.3099 123.957 29.8899C124.027 29.3999 124.445 27.7899 124.445 27.5099H123.399L123.329 27.9999C122.98 27.7899 122.841 27.5099 122.283 27.5099C121.097 27.5099 120.399 28.8399 120.12 29.9599C119.911 30.7999 119.911 31.9899 120.539 32.4099C120.887 32.6899 121.376 32.5499 121.794 32.4099C122.004 32.3399 122.143 32.2699 122.283 32.1299L122.701 31.7799C122.701 32.7599 122.631 32.4799 123.887 32.4799ZM89.7763 27.5099H88.6602L87.5441 32.4799H88.6602C88.7997 31.9899 88.9392 31.4299 89.0089 30.8699C89.0787 30.3799 89.0089 30.3799 89.4275 30.3799C89.7763 30.3799 90.0553 30.3799 90.4041 30.3799L89.9855 32.4799H91.1016L92.2177 27.5099C91.0319 27.5099 91.1016 27.4399 91.0319 27.7199L90.8924 28.4199C90.8226 28.7699 90.7529 29.1199 90.6831 29.3999H89.3577L89.7763 27.5099ZM96.5426 32.4799C96.5426 31.9899 96.3333 31.7099 96.4729 31.1499C96.6124 30.1699 97.1007 28.6299 97.3099 27.5099H96.1938C96.0543 28.2799 95.845 28.9799 95.7055 29.7499C95.566 30.4499 95.287 31.2899 94.729 31.4999C93.6826 31.9199 94.2407 30.2399 94.3802 29.7499C94.5197 29.0499 94.7987 28.2099 94.8685 27.5099H93.7524C93.6128 28.1399 92.9153 30.8699 92.9153 31.2899C92.8455 32.0599 93.2641 32.6199 94.0314 32.4799C94.8685 32.3399 95.2172 31.7099 95.4265 31.5699C95.3568 32.6899 95.2172 32.4799 96.5426 32.4799ZM103.239 32.4799C103.169 31.9899 103.03 31.6399 103.1 31.1499C103.239 30.4499 103.867 27.9299 103.937 27.5099H102.821C102.611 28.4199 102.263 30.3799 101.844 31.0799C101.705 31.2899 101.286 31.7099 100.867 31.5699C100.519 31.2899 100.937 29.9599 101.077 29.5399C101.216 29.0499 101.495 27.9299 101.495 27.5099H100.379C100.24 27.8599 99.5421 30.9399 99.4724 31.2899C99.3329 32.7599 100.728 32.8999 101.705 31.9199C101.844 31.7799 101.844 31.7099 101.984 31.6399C101.984 31.9899 101.984 32.1999 102.123 32.4799H103.239ZM117.19 27.5099H116.074L114.958 32.4799H116.074L116.563 30.3799C116.981 30.3799 117.26 30.3099 117.4 30.6599C117.539 31.2199 117.33 32.0599 117.888 32.3399C118.097 32.4799 118.516 32.5499 118.795 32.4799C118.934 32.3399 119.144 31.7799 119.144 31.5699C118.516 31.4299 118.655 31.4999 118.586 30.7299C118.516 30.2399 118.446 30.0299 118.027 29.8899C118.237 29.7499 118.446 29.8899 118.865 29.0499C119.283 28.2099 119.353 28.4899 119.771 28.3499C119.771 28.1399 119.771 27.6499 119.702 27.4399C118.865 27.3699 118.376 27.7899 118.167 28.3499C117.748 29.2599 117.818 29.4699 116.842 29.3999L117.19 27.5099ZM77.6387 34.0199C77.9875 34.4399 79.1036 34.6499 79.9407 33.9499C80.708 33.3199 81.6148 30.7999 82.0333 29.7499C82.1729 29.3999 82.3124 28.9799 82.5216 28.6299C82.5914 28.4199 82.9402 27.7199 82.9402 27.5799H81.8241C81.6148 28.0699 81.3358 28.9799 81.1963 29.5399C81.0568 29.8899 80.6382 31.2199 80.4987 31.4299C80.3592 30.7999 80.2894 30.1699 80.2197 29.5399C80.1499 29.0499 80.1499 27.9999 80.0104 27.5799H79.0338L79.8709 32.2699C80.0104 32.8299 79.6616 33.4599 79.1036 33.5299C78.685 33.5999 78.5455 33.3899 78.1968 33.3199C77.9875 33.3899 77.7085 33.8799 77.6387 34.0199ZM85.8002 29.9599C85.9397 29.6799 87.6138 27.8599 87.8231 27.5099H86.428C86.2885 27.7899 86.0792 28.0699 85.8699 28.3499C85.7304 28.5599 85.4514 28.9799 85.3119 29.1899L84.7538 27.5799H83.568C83.568 27.9299 84.4748 29.5399 84.6143 30.0299C84.4748 30.2399 83.7772 31.0099 83.568 31.2899C83.3587 31.4999 83.2192 31.7099 83.0099 31.9199C82.9402 32.0599 82.5216 32.4099 82.5216 32.5499H83.847C84.126 32.2699 84.9631 30.9399 85.1026 30.7999L85.8002 32.5499H86.986C86.9163 32.3399 86.4977 31.5699 86.428 31.2899C86.2187 30.8699 85.8699 30.3099 85.8002 29.9599ZM132.886 31.6399C132.955 31.2899 133.025 30.7299 133.165 30.3799C133.234 30.2399 133.234 30.2399 133.304 30.1699C134.42 29.8899 134.56 31.0099 134.002 31.4999C133.723 31.7799 133.304 31.7099 132.886 31.6399ZM133.792 27.5099H132.676C132.467 28.5599 132.188 29.6099 131.979 30.6599C131.909 30.9399 131.839 31.1499 131.839 31.4299C131.769 31.7099 131.63 31.9899 131.909 32.1299C132.327 32.3399 132.886 32.5499 133.374 32.5499C135.815 32.6199 136.094 30.0999 135.048 29.4699C134.56 29.1199 134.071 29.2599 133.444 29.3299L133.792 27.5099ZM138.117 27.5099H137.001C136.862 28.3499 136.652 29.1899 136.443 29.9599C136.373 30.4499 135.885 32.0599 135.885 32.4799H137.001L138.117 27.5099Z" fill="white"/>
</g>
<defs>
<clipPath id="clip0_1_2109">
<rect width="143" height="35" fill="white"/>
</clipPath>
</defs>
</svg>
