<svg width="158" height="28" viewBox="0 0 158 28" fill="none" xmlns="http://www.w3.org/2000/svg">
<path fill-rule="evenodd" clip-rule="evenodd" d="M77.4555 3.78418C80.0222 3.78418 82.104 5.73896 82.104 8.14947C82.104 10.5597 80.0222 12.5145 77.4555 12.5145C74.8884 12.5145 72.8066 10.5597 72.8066 8.14947C72.8066 5.73896 74.8884 3.78418 77.4555 3.78418ZM77.4553 7.00228C78.0889 7.00228 78.6027 7.51593 78.6027 8.14919C78.6027 8.78259 78.0889 9.29624 77.4553 9.29624C76.8218 9.29624 76.308 8.78259 76.308 8.14919C76.308 7.51593 76.8218 7.00228 77.4553 7.00228Z" fill="white"/>
<path fill-rule="evenodd" clip-rule="evenodd" d="M69.8715 12.5147C67.3044 12.5147 65.2227 10.5601 65.2227 8.14971C65.2227 5.73934 67.3044 3.78442 69.8715 3.78442C70.962 3.78442 71.9793 4.02726 72.8406 4.4465L71.5315 7.38515C71.1535 7.19899 70.6412 7.08439 70.0767 7.08439C69.4797 7.08439 68.9955 7.56839 68.9955 8.16517C68.9955 8.76195 69.4797 9.24608 70.0767 9.24608C70.6471 9.24608 71.1643 9.1294 71.5431 8.9399L72.8406 11.8533C71.9793 12.2724 70.962 12.5147 69.8715 12.5147Z" fill="white"/>
<path fill-rule="evenodd" clip-rule="evenodd" d="M49.2368 3.78418C51.8035 3.78418 53.8853 5.73896 53.8853 8.14947C53.8853 10.5597 51.8035 12.5145 49.2368 12.5145C46.6697 12.5145 44.5879 10.5597 44.5879 8.14947C44.5879 5.73896 46.6697 3.78418 49.2368 3.78418ZM49.2365 7.00228C49.8701 7.00228 50.3839 7.51593 50.3839 8.14919C50.3839 8.78259 49.8701 9.29624 49.2365 9.29624C48.603 9.29624 48.0891 8.78259 48.0891 8.14919C48.0891 7.51593 48.603 7.00228 49.2365 7.00228Z" fill="white"/>
<path fill-rule="evenodd" clip-rule="evenodd" d="M126.414 12.5145C123.847 12.5145 121.766 10.5598 121.766 8.14947C121.766 5.73909 123.847 3.78418 126.414 3.78418C127.505 3.78418 128.522 4.02701 129.384 4.44626L128.074 7.3849C127.696 7.19874 127.184 7.08415 126.619 7.08415C126.023 7.08415 125.538 7.56815 125.538 8.16492C125.538 8.7617 126.023 9.24584 126.619 9.24584C127.19 9.24584 127.707 9.12915 128.086 8.93965L129.384 11.8531C128.522 12.2722 127.505 12.5145 126.414 12.5145Z" fill="white"/>
<path fill-rule="evenodd" clip-rule="evenodd" d="M92.62 3.99414H89.7925L87.9725 6.20944L86.1523 3.99414H82.9316V12.3039H86.2417V8.17272L87.632 9.80738L89.0432 8.14765V12.3039H92.62V3.99414Z" fill="white"/>
<path fill-rule="evenodd" clip-rule="evenodd" d="M111.802 3.99414H103.943L103.944 8.14416C103.944 9.0676 103.786 9.98895 102.93 10.0998V12.2399C103.264 12.3822 103.623 12.4602 103.999 12.4602C106.68 12.4602 107.155 10.401 107.155 8.34008V6.303H108.102V12.3035H111.802V3.99414Z" fill="white"/>
<path fill-rule="evenodd" clip-rule="evenodd" d="M116.58 3.99414H112.881V12.3035H117.457C120.001 12.3035 121.223 10.7038 121.223 8.81669C121.223 7.3913 120.066 6.2345 118.64 6.2345C117.855 6.2345 117.141 6.45408 116.58 6.81318V3.99414ZM117.08 8.42863C117.493 8.42863 117.828 8.76615 117.828 9.18234C117.828 9.59852 117.662 10.2478 117.08 10.2478C116.862 10.2478 116.7 10.2233 116.58 10.1814V8.62135C116.713 8.50132 116.888 8.42863 117.08 8.42863Z" fill="white"/>
<path fill-rule="evenodd" clip-rule="evenodd" d="M158 3.99414H152.048C150.721 3.99414 149.643 5.0706 149.643 6.39769C149.643 7.34897 150.197 8.17104 150.999 8.56063C150.028 9.44215 149.117 10.9142 149.117 12.3035H152.574C152.712 10.348 153.481 9.67872 154.3 9.62024V12.3035H158V3.99414ZM154.3 5.88125H153.98C153.466 5.88125 153.049 6.298 153.049 6.81179C153.049 7.32558 153.466 7.74232 153.98 7.74232H154.3V5.88125Z" fill="white"/>
<path fill-rule="evenodd" clip-rule="evenodd" d="M98.0454 3.78442C100.612 3.78442 102.694 5.7392 102.694 8.14971C102.694 10.5599 100.612 12.5147 98.0454 12.5147C95.4783 12.5147 93.3965 10.5599 93.3965 8.14971C93.3965 5.7392 95.4783 3.78442 98.0454 3.78442ZM98.0451 7.00252C98.6788 7.00252 99.1926 7.51617 99.1926 8.14944C99.1926 8.78283 98.6788 9.29649 98.0451 9.29649C97.4116 9.29649 96.8978 8.78283 96.8978 8.14944C96.8978 7.51617 97.4116 7.00252 98.0451 7.00252Z" fill="white"/>
<path fill-rule="evenodd" clip-rule="evenodd" d="M39.0587 9.02513V12.3045H35.3594V3.99512H39.0587V6.62967C40.2107 6.65807 40.7717 5.56699 40.7844 3.99512H44.1949C44.1797 5.7512 43.4474 7.22073 42.4173 7.79231C43.506 8.19444 44.508 10.3596 44.508 12.3045H41.0509C41.0509 10.3099 40.3182 8.97375 39.0587 9.02513Z" fill="white"/>
<path fill-rule="evenodd" clip-rule="evenodd" d="M133.677 9.02513V12.3045H129.979V3.99512H133.677V6.62967C134.829 6.65807 135.39 5.56699 135.403 3.99512H138.814C138.799 5.7512 138.066 7.22073 137.036 7.79231C138.125 8.19444 139.127 10.3596 139.127 12.3045H135.67C135.67 10.3099 134.937 8.97375 133.677 9.02513Z" fill="white"/>
<path fill-rule="evenodd" clip-rule="evenodd" d="M64.4162 3.99414H61.5893L59.7693 6.20944L57.9491 3.99414H54.7285V12.3039H58.0385V8.17272L59.4288 9.80738L60.84 8.14765V12.3039H64.4162V3.99414Z" fill="white"/>
<path fill-rule="evenodd" clip-rule="evenodd" d="M146.36 3.99414L149.386 12.3035H145.689L145.093 10.6652H142.349L141.752 12.3035H138.861L141.887 3.99414H146.36ZM144.435 8.85832L143.721 6.89686L143.006 8.85832H144.435Z" fill="white"/>
<path fill-rule="evenodd" clip-rule="evenodd" d="M67.9453 14.9805H59.8246C58.4814 17.5372 57.4602 20.3979 57.3281 24.0983H60.4637C60.5286 23.7196 60.6007 23.3449 60.6796 22.9761H63.4603V24.0983H67.9453V14.9805ZM63.4603 18.2466V20.6774H61.2956C61.5849 19.8023 61.9273 18.9845 62.3298 18.2466H63.4603Z" fill="white"/>
<path fill-rule="evenodd" clip-rule="evenodd" d="M68.793 14.9805V24.0983H76.9254C78.4554 24.0983 79.5158 23.3875 79.4999 21.8092C79.4884 20.6696 78.7048 19.7382 77.707 19.1083C78.586 18.5495 79.0213 17.8499 79.0175 16.7865C79.0126 15.5073 77.9846 15.0751 76.4168 14.9805H68.793ZM73.0063 21.7602H74.3528C74.8256 21.7602 75.2286 21.3453 75.2276 20.9547C75.227 20.7146 75.0573 20.4212 74.875 20.2529C74.3103 20.4234 73.6875 20.598 73.0063 20.7867V21.7602ZM73.0063 17.3909H73.5992C74.2702 17.3839 74.6983 17.5649 74.6969 17.8961C74.695 18.3441 74.0883 18.7573 73.0063 19.0309V17.3909Z" fill="white"/>
<path fill-rule="evenodd" clip-rule="evenodd" d="M47.0469 14.9805V24.0983H51.532V22.5578C55.8176 21.6546 57.8502 19.9782 57.8502 17.9925C57.8502 15.9903 56.4026 14.9805 54.0387 14.9805H47.0469ZM51.532 20.0728C52.5368 19.8202 53.113 19.403 53.1209 18.8619C53.1291 18.3016 52.5359 18.0839 51.8437 18.0839H51.532V20.0728Z" fill="white"/>
<path fill-rule="evenodd" clip-rule="evenodd" d="M39.8445 18.2466H41.6794V24.0979H46.1645V14.9805H35.3594V24.0979H39.8445V18.2466Z" fill="white"/>
<path fill-rule="evenodd" clip-rule="evenodd" d="M90.4732 14.9805H82.828C81.7646 16.8218 81.0441 18.9457 80.7782 21.4446H79.8379V25.7314H82.8694C83.2125 24.2395 84.4879 23.9698 85.8002 23.9954C87.0165 24.0191 88.166 24.3966 88.3105 25.7314H91.3566V21.4446H90.4732V14.9805ZM85.988 18.2466V21.4446H83.8396C84.0904 20.0219 84.5098 18.8884 85.1062 18.2466H85.988Z" fill="white"/>
<path fill-rule="evenodd" clip-rule="evenodd" d="M102.297 14.9805H94.1761C92.833 17.5372 91.8118 20.3979 91.6797 24.0983H94.8153C94.8802 23.7196 94.9522 23.3449 95.0311 22.9761H97.8118V24.0983H102.297V14.9805ZM97.8118 18.2466V20.6774H95.6473C95.9364 19.8023 96.2788 18.9845 96.6814 18.2466H97.8118Z" fill="white"/>
<mask id="mask0_1_1205" style="mask-type:alpha" maskUnits="userSpaceOnUse" x="0" y="0" width="31" height="28">
<path fill-rule="evenodd" clip-rule="evenodd" d="M3.96567 2.82326L0 0.646959C0 0.646959 10.9192 0.653058 16.1162 0.65915C17.8365 0.65915 19.4843 1.3541 20.6975 2.57941C20.939 2.2929 21.0718 2.14049 21.5064 1.74425C22.3937 0.939574 23.5828 0.0434491 25.6894 0.000777054C26.2809 -0.0114151 27.0777 0.116603 27.5062 0.616477C28.3995 0.610385 29.3412 0.701824 30.0957 0.793263L27.8684 2.65257C27.3915 5.58477 25.9791 6.66987 25.3393 7.24292C26.6008 8.49868 27.301 10.2178 27.295 12.0039C27.2889 17.2404 27.2768 28 27.2768 28C27.2768 28 23.8001 21.5138 22.2428 18.7462C21.4943 17.4172 20.9148 15.4238 20.2931 13.0281C20.0879 13.2658 8.06413 26.9271 8.06413 26.9271L13.6595 14.3814L1.23135 20.0507C1.23135 20.0507 14.5106 8.139 14.9995 7.69402C13.5871 7.24897 11.1787 6.78569 9.34982 5.76156C7.41224 4.68865 3.96567 2.82326 3.96567 2.82326Z" fill="#BC4038"/>
</mask>
<g mask="url(#mask0_1_1205)">
<path fill-rule="evenodd" clip-rule="evenodd" d="M3.96567 2.82326L0 0.646959C0 0.646959 10.9192 0.653058 16.1162 0.65915C17.8365 0.65915 19.4843 1.3541 20.6975 2.57941C20.939 2.2929 21.0718 2.14049 21.5064 1.74425C22.3937 0.939574 23.5828 0.0434491 25.6894 0.000777054C26.2809 -0.0114151 27.0777 0.116603 27.5062 0.616477C28.3995 0.610385 29.3412 0.701824 30.0957 0.793263L27.8684 2.65257C27.3915 5.58477 25.9791 6.66987 25.3393 7.24292C26.6008 8.49868 27.301 10.2178 27.295 12.0039C27.2889 17.2404 27.2768 28 27.2768 28C27.2768 28 23.8001 21.5138 22.2428 18.7462C21.4943 17.4172 20.9148 15.4238 20.2931 13.0281C20.0879 13.2658 8.06413 26.9271 8.06413 26.9271L13.6595 14.3814L1.23135 20.0507C1.23135 20.0507 14.5106 8.139 14.9995 7.69402C13.5871 7.24897 11.1787 6.78569 9.34982 5.76156C7.41224 4.68865 3.96567 2.82326 3.96567 2.82326Z" fill="#BC4038"/>
<path fill-rule="evenodd" clip-rule="evenodd" d="M13.6489 14.3749L0.925015 21.7023L0.550781 19.8491L4.78808 15.6246C5.65726 15.8074 6.56267 15.905 7.48619 15.905C9.71349 15.8989 11.814 15.3563 13.6489 14.3749Z" fill="#466A9E"/>
<path fill-rule="evenodd" clip-rule="evenodd" d="M13.6466 14.3768C14.3589 13.9988 15.0349 13.5538 15.6626 13.0479C15.8317 13.8952 15.9162 14.773 15.9162 15.6692C15.9162 23.0759 9.9586 29.0927 2.62482 29.0927C2.22041 29.0927 1.82203 29.0744 1.42969 29.0378L13.6466 14.3768Z" fill="#5C4998"/>
<path fill-rule="evenodd" clip-rule="evenodd" d="M0.228516 2.46824C1.00716 2.32803 1.80392 2.25488 2.62482 2.25488C4.72536 2.25488 6.71725 2.74867 8.4798 3.6265C7.70115 3.7728 6.89833 3.84596 6.07743 3.84596C3.97689 3.84596 1.99104 3.35217 0.228516 2.46824Z" fill="#F09A38"/>
<path fill-rule="evenodd" clip-rule="evenodd" d="M8.48047 3.63126C13.0859 2.77781 16.8585 -0.495778 18.4641 -4.83008C19.8705 -2.70865 20.6913 -0.160495 20.6913 2.57664C20.6913 6.8195 18.7236 10.6112 15.6633 13.0558C14.8485 8.91044 12.1383 5.44788 8.48047 3.63126Z" fill="#A93930"/>
<path fill-rule="evenodd" clip-rule="evenodd" d="M33.9764 15.125C38.4672 15.125 42.1129 18.807 42.1129 23.3425C42.1129 27.8779 38.4672 31.5599 33.9764 31.5599C29.4856 31.5599 25.8398 27.8779 25.8398 23.3425C25.8398 18.8131 29.4856 15.125 33.9764 15.125Z" fill="#F09A38"/>
<path fill-rule="evenodd" clip-rule="evenodd" d="M22.5965 10.9277C23.2182 14.0428 24.9083 16.7678 27.2744 18.688C26.369 20.0109 25.8379 21.6203 25.8379 23.3515C25.8379 27.887 29.4836 31.569 33.9744 31.569C34.1918 31.569 34.403 31.5629 34.6142 31.5447C33.0147 32.3554 31.21 32.8126 29.3026 32.8126C22.7474 32.8126 17.4297 27.442 17.4297 20.8216C17.4357 16.719 19.4819 13.0918 22.5965 10.9277Z" fill="#FBC338"/>
<path fill-rule="evenodd" clip-rule="evenodd" d="M22.4352 6.70691C22.3748 7.22508 22.3447 7.74936 22.3447 8.28582C22.3447 9.18803 22.4352 10.0719 22.6042 10.9254C20.3286 12.5043 18.6205 14.8635 17.866 17.625C17.8478 17.3568 17.8418 17.0946 17.8418 16.8203C17.8357 12.7786 19.6224 9.15753 22.4352 6.70691Z" fill="#ED7837"/>
<path fill-rule="evenodd" clip-rule="evenodd" d="M22.5977 10.9244C24.505 9.60155 26.8168 8.82739 29.3036 8.82739C35.7079 8.82739 40.9412 13.9602 41.1705 20.3794C39.4684 21.1902 37.561 21.6413 35.557 21.6413C29.1588 21.6352 23.8169 17.0327 22.5977 10.9244Z" fill="#F2B641"/>
<path fill-rule="evenodd" clip-rule="evenodd" d="M22.4349 6.70479C24.7528 4.68698 27.7648 3.46777 31.0604 3.46777C38.358 3.46777 44.2793 9.44802 44.2793 16.8182C44.2793 17.3546 44.2491 17.8789 44.1888 18.397C43.2834 19.1834 42.2693 19.854 41.1768 20.3722C40.9474 13.9591 35.7142 8.82014 29.31 8.82014C26.8232 8.82014 24.5114 9.5943 22.604 10.9172C22.4349 10.0637 22.3444 9.17975 22.3444 8.27755C22.3384 7.74721 22.3746 7.22293 22.4349 6.70479Z" fill="#E07037"/>
<path fill-rule="evenodd" clip-rule="evenodd" d="M22.4336 6.70705C23.2061 0.0806298 28.7955 -5.06445 35.5619 -5.06445C42.8595 -5.06445 48.7808 0.915787 48.7808 8.28596C48.7808 12.3276 47.0002 15.9548 44.1874 18.3993C44.2478 17.8811 44.2779 17.3569 44.2779 16.8204C44.2779 9.4503 38.3566 3.47004 31.0591 3.47004C27.7634 3.47004 24.7454 4.68926 22.4336 6.70705Z" fill="#96291F"/>
<path fill-rule="evenodd" clip-rule="evenodd" d="M0.227598 2.46975C-4.13646 0.293455 -7.14844 -4.25421 -7.14844 -9.50905C-7.14844 -16.8792 -1.22709 -22.8594 6.07048 -22.8594C13.3681 -22.8594 19.2894 -16.8792 19.2894 -9.50905C19.2894 -2.96794 14.6236 2.48194 8.47285 3.62191C6.70427 2.74407 4.71841 2.25029 2.61787 2.25029C1.80301 2.25639 1.00625 2.32954 0.227598 2.46975Z" fill="#E07037"/>
</g>
</svg>
