<svg width="126" height="37" viewBox="0 0 126 37" fill="none" xmlns="http://www.w3.org/2000/svg">
<path d="M85.1084 11.6441C84.41 11.6441 83.7855 11.5187 83.2349 11.2678C82.6843 11.0132 82.2483 10.6609 81.9268 10.2107C81.6053 9.76062 81.4353 9.24224 81.4169 8.65561H82.4645C82.483 9.06883 82.6104 9.4304 82.8469 9.74032C83.0834 10.0466 83.3975 10.2864 83.7892 10.4598C84.1809 10.6295 84.617 10.7144 85.0973 10.7144C85.6221 10.7144 86.084 10.6166 86.4831 10.421C86.8858 10.2255 87.1999 9.95801 87.4253 9.61857C87.6545 9.27545 87.769 8.88805 87.769 8.45637C87.769 7.99887 87.6526 7.59487 87.4198 7.24437C87.187 6.89386 86.8526 6.62084 86.4165 6.42529C85.9842 6.22975 85.4669 6.13198 84.8645 6.13198H84.1994V5.20222H84.8645C85.356 5.20222 85.7902 5.11367 86.1671 4.93657C86.5477 4.75579 86.847 4.50306 87.0651 4.17838C87.2831 3.8537 87.3921 3.47184 87.3921 3.03278C87.3921 2.61587 87.2979 2.24876 87.1094 1.93146C86.9209 1.61416 86.6549 1.36512 86.3112 1.18433C85.9713 1.00355 85.574 0.913155 85.1195 0.913155C84.6798 0.913155 84.277 0.998014 83.9112 1.16773C83.5453 1.33745 83.2497 1.57727 83.0243 1.88719C82.8026 2.19711 82.6843 2.56421 82.6696 2.98851H81.6663C81.6811 2.39819 81.8437 1.87981 82.1541 1.43338C82.4682 0.983256 82.8839 0.632752 83.4012 0.381865C83.9222 0.127288 84.4987 0 85.1306 0C85.7994 0 86.3777 0.136512 86.8655 0.409537C87.3533 0.682561 87.7302 1.04598 87.9963 1.49979C88.266 1.94991 88.4009 2.44615 88.4009 2.98851C88.4009 3.63417 88.2254 4.1876 87.8743 4.64879C87.5233 5.10629 87.0503 5.42359 86.4553 5.60069V5.67263C87.1796 5.81652 87.7487 6.13751 88.1625 6.6356C88.5801 7.12999 88.7889 7.73692 88.7889 8.45637C88.7889 9.06145 88.63 9.60566 88.3122 10.089C87.9944 10.5686 87.5584 10.9486 87.0041 11.229C86.4535 11.5058 85.8216 11.6441 85.1084 11.6441Z" fill="white"/>
<path d="M71.1163 11.4892V10.731L74.8245 6.56918C75.3086 6.02314 75.6984 5.55641 75.9941 5.16901C76.2897 4.78161 76.504 4.42373 76.637 4.09536C76.7738 3.767 76.8421 3.42572 76.8421 3.07152C76.8421 2.63985 76.7405 2.26352 76.5373 1.94253C76.3377 1.61785 76.0624 1.36512 75.7114 1.18433C75.3603 1.00355 74.9649 0.913155 74.5252 0.913155C74.0596 0.913155 73.6513 1.01277 73.3002 1.21201C72.9529 1.41124 72.6831 1.68426 72.491 2.03108C72.2988 2.37789 72.2027 2.77636 72.2027 3.22648H71.2106C71.2106 2.59926 71.3547 2.04399 71.6429 1.56067C71.9348 1.07365 72.3321 0.691784 72.8346 0.41507C73.3409 0.138357 73.9136 0 74.5529 0C75.1848 0 75.7465 0.136512 76.2379 0.409537C76.7294 0.678871 77.1156 1.04598 77.3964 1.51086C77.6772 1.97574 77.8177 2.49596 77.8177 3.07152C77.8177 3.48844 77.7438 3.89244 77.596 4.28353C77.4518 4.67462 77.2024 5.10998 76.8477 5.58962C76.4929 6.06925 76.0015 6.65589 75.3733 7.34952L72.5575 10.4875V10.5594H78.1724V11.4892H71.1163Z" fill="white"/>
<path d="M64.2873 11.6441C63.4891 11.6441 62.8073 11.4154 62.242 10.9579C61.6803 10.4967 61.248 9.83072 60.9449 8.95999C60.6456 8.08927 60.496 7.04329 60.496 5.82206C60.496 4.60452 60.6456 3.56223 60.9449 2.69519C61.248 1.82447 61.6821 1.15851 62.2475 0.697318C62.8166 0.232439 63.4965 0 64.2873 0C65.0781 0 65.7562 0.232439 66.3215 0.697318C66.8906 1.15851 67.3248 1.82447 67.6241 2.69519C67.9271 3.56223 68.0786 4.60452 68.0786 5.82206C68.0786 7.04329 67.9271 8.08927 67.6241 8.95999C67.3248 9.83072 66.8924 10.4967 66.3271 10.9579C65.7654 11.4154 65.0855 11.6441 64.2873 11.6441ZM64.2873 10.7144C65.1631 10.7144 65.8467 10.2882 66.3382 9.43594C66.8296 8.57997 67.0754 7.37534 67.0754 5.82206C67.0754 4.78899 66.9627 3.9072 66.7372 3.17667C66.5155 2.44246 66.1959 1.88165 65.7783 1.49425C65.3645 1.10686 64.8675 0.913155 64.2873 0.913155C63.4189 0.913155 62.7371 1.34483 62.242 2.20818C61.7468 3.06783 61.4992 4.27246 61.4992 5.82206C61.4992 6.85512 61.6101 7.73692 61.8318 8.46744C62.0572 9.19797 62.3769 9.75508 62.7907 10.1388C63.2083 10.5225 63.7071 10.7144 64.2873 10.7144Z" fill="white"/>
<path d="M50.4564 11.4892V10.731L54.1645 6.56918C54.6486 6.02314 55.0385 5.55641 55.3341 5.16901C55.6297 4.78161 55.844 4.42373 55.9771 4.09536C56.1138 3.767 56.1821 3.42572 56.1821 3.07152C56.1821 2.63985 56.0805 2.26352 55.8773 1.94253C55.6777 1.61785 55.4025 1.36512 55.0514 1.18433C54.7004 1.00355 54.305 0.913155 53.8652 0.913155C53.3996 0.913155 52.9913 1.01277 52.6403 1.21201C52.2929 1.41124 52.0231 1.68426 51.831 2.03108C51.6388 2.37789 51.5428 2.77636 51.5428 3.22648H50.5506C50.5506 2.59926 50.6947 2.04399 50.9829 1.56067C51.2749 1.07365 51.6721 0.691784 52.1747 0.41507C52.6809 0.138357 53.2537 0 53.8929 0C54.5248 0 55.0865 0.136512 55.578 0.409537C56.0694 0.678871 56.4556 1.04598 56.7364 1.51086C57.0173 1.97574 57.1577 2.49596 57.1577 3.07152C57.1577 3.48844 57.0838 3.89244 56.936 4.28353C56.7919 4.67462 56.5424 5.10998 56.1877 5.58962C55.8329 6.06925 55.3415 6.65589 54.7133 7.34952L51.8975 10.4875V10.5594H57.5124V11.4892H50.4564Z" fill="white"/>
<path d="M85.7705 16.4921H87.3565C87.7548 16.4921 88.0906 16.5572 88.364 16.6873C88.6392 16.8175 88.8474 17.001 88.9887 17.2378C89.1317 17.4746 89.2032 17.7539 89.2032 18.0757C89.2032 18.3974 89.1317 18.6813 88.9887 18.9271C88.8474 19.173 88.6392 19.3655 88.364 19.5047C88.0906 19.6439 87.7548 19.7135 87.3565 19.7135H85.2708V14.1602H85.9443V19.1278H87.3565C87.6099 19.1278 87.8245 19.0771 88.0001 18.9759C88.1775 18.8729 88.3115 18.7409 88.4021 18.58C88.4944 18.4173 88.5406 18.2456 88.5406 18.0648C88.5406 17.7991 88.4383 17.5704 88.2337 17.3788C88.0291 17.1854 87.7367 17.0887 87.3565 17.0887H85.7705V16.4921ZM90.4199 14.1602V19.7135H89.7464V14.1602H90.4199Z" fill="white"/>
<path d="M78.2854 21.0584V19.1169H78.6439C78.767 19.0048 78.8829 18.8467 78.9915 18.6424C79.1019 18.4363 79.1952 18.1615 79.2712 17.8181C79.3491 17.4728 79.4007 17.0344 79.426 16.503L79.5455 14.1602H82.8479V19.1169H83.4888V21.0476H82.8479V19.7135H78.9263V21.0584H78.2854ZM79.4478 19.1169H82.207V14.7567H80.1539L80.067 16.503C80.0452 16.9079 80.0072 17.2748 79.9529 17.6039C79.8986 17.9311 79.8289 18.2212 79.7438 18.4743C79.6587 18.7255 79.56 18.9398 79.4478 19.1169Z" fill="white"/>
<path d="M73.1428 19.7135V14.1602H75.0221C75.4585 14.1602 75.8152 14.2388 76.0922 14.3961C76.371 14.5515 76.5774 14.7621 76.7114 15.0279C76.8453 15.2936 76.9123 15.5901 76.9123 15.9173C76.9123 16.2445 76.8453 16.5418 76.7114 16.8094C76.5792 17.0769 76.3746 17.2902 76.0976 17.4493C75.8206 17.6066 75.4657 17.6852 75.033 17.6852H73.686V17.0887H75.0113C75.31 17.0887 75.5499 17.0371 75.731 16.9341C75.912 16.8311 76.0433 16.6919 76.1248 16.5165C76.208 16.3394 76.2497 16.1396 76.2497 15.9173C76.2497 15.6949 76.208 15.4961 76.1248 15.3207C76.0433 15.1454 75.9111 15.008 75.7283 14.9086C75.5454 14.8073 75.3028 14.7567 75.0004 14.7567H73.8163V19.7135H73.1428Z" fill="white"/>
<path d="M71.2473 16.9368C71.2473 17.5225 71.1414 18.0287 70.9296 18.4553C70.7177 18.8819 70.4271 19.2109 70.0578 19.4423C69.6884 19.6737 69.2666 19.7894 68.7922 19.7894C68.3179 19.7894 67.896 19.6737 67.5267 19.4423C67.1573 19.2109 66.8667 18.8819 66.6549 18.4553C66.4431 18.0287 66.3372 17.5225 66.3372 16.9368C66.3372 16.3511 66.4431 15.8449 66.6549 15.4183C66.8667 14.9917 67.1573 14.6627 67.5267 14.4313C67.896 14.1999 68.3179 14.0842 68.7922 14.0842C69.2666 14.0842 69.6884 14.1999 70.0578 14.4313C70.4271 14.6627 70.7177 14.9917 70.9296 15.4183C71.1414 15.8449 71.2473 16.3511 71.2473 16.9368ZM70.5955 16.9368C70.5955 16.456 70.5149 16.0501 70.3538 15.7193C70.1945 15.3885 69.9781 15.1381 69.7047 14.9682C69.4332 14.7983 69.129 14.7133 68.7922 14.7133C68.4555 14.7133 68.1504 14.7983 67.877 14.9682C67.6054 15.1381 67.3891 15.3885 67.2279 15.7193C67.0686 16.0501 66.9889 16.456 66.9889 16.9368C66.9889 17.4177 67.0686 17.8235 67.2279 18.1543C67.3891 18.4851 67.6054 18.7355 67.877 18.9054C68.1504 19.0753 68.4555 19.1603 68.7922 19.1603C69.129 19.1603 69.4332 19.0753 69.7047 18.9054C69.9781 18.7355 70.1945 18.4851 70.3538 18.1543C70.5149 17.8235 70.5955 17.4177 70.5955 16.9368Z" fill="white"/>
<path d="M64.3731 19.7135L62.4612 17.1646H61.7768V19.7135H61.1033V14.1602H61.7768V16.568H62.0702L64.2971 14.1602H65.101L62.8523 16.6006L65.177 19.7135H64.3731Z" fill="white"/>
<path d="M55.7701 19.7135V14.1602H59.1269V14.7567H56.4437V16.6331H58.953V17.2297H56.4437V19.1169H59.1703V19.7135H55.7701Z" fill="white"/>
<path d="M50.1515 19.7135V14.1602H52.0308C52.4671 14.1602 52.8238 14.2388 53.1008 14.3961C53.3797 14.5515 53.5861 14.7621 53.72 15.0279C53.854 15.2936 53.921 15.5901 53.921 15.9173C53.921 16.2445 53.854 16.5418 53.72 16.8094C53.5879 17.0769 53.3833 17.2902 53.1063 17.4493C52.8293 17.6066 52.4744 17.6852 52.0417 17.6852H50.6946V17.0887H52.0199C52.3187 17.0887 52.5586 17.0371 52.7396 16.9341C52.9207 16.8311 53.0519 16.6919 53.1334 16.5165C53.2167 16.3394 53.2583 16.1396 53.2583 15.9173C53.2583 15.6949 53.2167 15.4961 53.1334 15.3207C53.0519 15.1454 52.9198 15.008 52.7369 14.9086C52.5541 14.8073 52.3114 14.7567 52.0091 14.7567H50.825V19.7135H50.1515Z" fill="white"/>
<path d="M75.3945 27.6137H74.6884L76.7306 22.0604H77.4259L79.4681 27.6137H78.762L77.1 22.939H77.0565L75.3945 27.6137ZM75.6552 25.4445H78.5013V26.041H75.6552V25.4445Z" fill="white"/>
<path d="M72.7307 27.6137L70.8188 25.0648H70.1344V27.6137H69.4609V22.0604H70.1344V24.4683H70.4277L72.6546 22.0604H73.4585L71.2098 24.5008L73.5346 27.6137H72.7307Z" fill="white"/>
<path d="M63.0319 27.6137V22.0604H63.7054V24.5334H66.6711V22.0604H67.3446V27.6137H66.6711V25.1299H63.7054V27.6137H63.0319Z" fill="white"/>
<path d="M56.2698 24.3924H57.8559C58.2542 24.3924 58.59 24.4575 58.8634 24.5876C59.1386 24.7178 59.3468 24.9012 59.4881 25.1381C59.6311 25.3749 59.7026 25.6542 59.7026 25.9759C59.7026 26.2977 59.6311 26.5815 59.4881 26.8274C59.3468 27.0732 59.1386 27.2657 58.8634 27.4049C58.59 27.5441 58.2542 27.6137 57.8559 27.6137H55.7701V22.0604H56.4437V27.028H57.8559C58.1093 27.028 58.3239 26.9774 58.4995 26.8762C58.6769 26.7731 58.8109 26.6412 58.9014 26.4803C58.9938 26.3176 59.0399 26.1459 59.0399 25.9651C59.0399 25.6994 58.9377 25.4707 58.7331 25.2791C58.5285 25.0856 58.2361 24.9889 57.8559 24.9889H56.2698V24.3924ZM60.9193 22.0604V27.6137H60.2458V22.0604H60.9193Z" fill="white"/>
<path d="M50.1515 27.6137V22.0604H52.0308C52.4671 22.0604 52.8238 22.1391 53.1008 22.2963C53.3797 22.4518 53.5861 22.6624 53.72 22.9281C53.854 23.1939 53.921 23.4903 53.921 23.8175C53.921 24.1447 53.854 24.4421 53.72 24.7096C53.5879 24.9772 53.3833 25.1905 53.1063 25.3496C52.8293 25.5068 52.4744 25.5855 52.0417 25.5855H50.6946V24.9889H52.0199C52.3187 24.9889 52.5586 24.9374 52.7396 24.8344C52.9207 24.7313 53.0519 24.5921 53.1334 24.4168C53.2167 24.2396 53.2583 24.0399 53.2583 23.8175C53.2583 23.5952 53.2167 23.3963 53.1334 23.221C53.0519 23.0456 52.9198 22.9082 52.7369 22.8088C52.5541 22.7076 52.3114 22.657 52.0091 22.657H50.825V27.6137H50.1515Z" fill="white"/>
<path d="M121.389 30.1014H122.052V34.4725H122.106L125.148 30.1014H125.8V35.6547H125.126V31.2945H125.072L122.041 35.6547H121.389V30.1014Z" fill="white"/>
<path d="M115.413 30.698V30.1014H119.584V30.698H117.835V35.6547H117.162V30.698H115.413Z" fill="white"/>
<path d="M113.862 31.8368H113.188C113.149 31.6434 113.079 31.4735 112.979 31.3271C112.881 31.1806 112.762 31.0577 112.621 30.9583C112.481 30.8571 112.327 30.7811 112.156 30.7305C111.986 30.6799 111.809 30.6546 111.624 30.6546C111.287 30.6546 110.982 30.7396 110.709 30.9095C110.437 31.0794 110.221 31.3298 110.06 31.6606C109.9 31.9914 109.821 32.3972 109.821 32.8781C109.821 33.3589 109.9 33.7648 110.06 34.0956C110.221 34.4264 110.437 34.6768 110.709 34.8467C110.982 35.0166 111.287 35.1016 111.624 35.1016C111.809 35.1016 111.986 35.0763 112.156 35.0257C112.327 34.975 112.481 34.9 112.621 34.8006C112.762 34.6994 112.881 34.5755 112.979 34.4291C113.079 34.2809 113.149 34.1109 113.188 33.9193H113.862C113.811 34.2031 113.719 34.4571 113.585 34.6813C113.451 34.9054 113.284 35.0962 113.085 35.2534C112.886 35.4089 112.662 35.5273 112.414 35.6086C112.168 35.69 111.905 35.7307 111.624 35.7307C111.15 35.7307 110.728 35.615 110.359 35.3836C109.989 35.1522 109.699 34.8232 109.487 34.3966C109.275 33.9699 109.169 33.4638 109.169 32.8781C109.169 32.2924 109.275 31.7862 109.487 31.3596C109.699 30.933 109.989 30.604 110.359 30.3726C110.728 30.1412 111.15 30.0255 111.624 30.0255C111.905 30.0255 112.168 30.0662 112.414 30.1475C112.662 30.2289 112.886 30.3482 113.085 30.5055C113.284 30.6609 113.451 30.8507 113.585 31.0749C113.719 31.2972 113.811 31.5512 113.862 31.8368Z" fill="white"/>
<path d="M107.489 32.8781C107.489 33.4638 107.384 33.9699 107.172 34.3966C106.96 34.8232 106.669 35.1522 106.3 35.3836C105.931 35.615 105.509 35.7307 105.034 35.7307C104.56 35.7307 104.138 35.615 103.769 35.3836C103.399 35.1522 103.109 34.8232 102.897 34.3966C102.685 33.9699 102.579 33.4638 102.579 32.8781C102.579 32.2924 102.685 31.7862 102.897 31.3596C103.109 30.933 103.399 30.604 103.769 30.3726C104.138 30.1412 104.56 30.0255 105.034 30.0255C105.509 30.0255 105.931 30.1412 106.3 30.3726C106.669 30.604 106.96 30.933 107.172 31.3596C107.384 31.7862 107.489 32.2924 107.489 32.8781ZM106.838 32.8781C106.838 32.3972 106.757 31.9914 106.596 31.6606C106.437 31.3298 106.22 31.0794 105.947 30.9095C105.675 30.7396 105.371 30.6546 105.034 30.6546C104.698 30.6546 104.393 30.7396 104.119 30.9095C103.848 31.0794 103.631 31.3298 103.47 31.6606C103.311 31.9914 103.231 32.3972 103.231 32.8781C103.231 33.3589 103.311 33.7648 103.47 34.0956C103.631 34.4264 103.848 34.6768 104.119 34.8467C104.393 35.0166 104.698 35.1016 105.034 35.1016C105.371 35.1016 105.675 35.0166 105.947 34.8467C106.22 34.6768 106.437 34.4264 106.596 34.0956C106.757 33.7648 106.838 33.3589 106.838 32.8781Z" fill="white"/>
<path d="M95.2281 30.1014H96.032L97.9222 34.7111H97.9873L99.8775 30.1014H100.681V35.6547H100.051V31.4355H99.997L98.2589 35.6547H97.6506L95.9125 31.4355H95.8582V35.6547H95.2281V30.1014Z" fill="white"/>
<path d="M88.707 30.1014H89.3697V34.4725H89.424L92.4657 30.1014H93.1175V35.6547H92.4439V31.2945H92.3896L89.3588 35.6547H88.707V30.1014Z" fill="white"/>
<path d="M83.9745 30.1014V35.6547H83.301V30.1014H83.9745ZM80.2158 35.6547L82.0191 32.7588L80.3679 30.1014H81.1826L82.6274 32.5635H84.6588L86.1036 30.1014H86.9184L85.2563 32.7696L87.0596 35.6547H86.2883L84.7783 33.1926H82.4971L80.9762 35.6547H80.2158Z" fill="white"/>
<path d="M74.1608 30.1014H74.8235V34.4725H74.8778L77.9195 30.1014H78.5713V35.6547H77.8977V31.2945H77.8434L74.8126 35.6547H74.1608V30.1014Z" fill="white"/>
<path d="M68.4221 35.6547V30.1014H70.3666C70.754 30.1014 71.0736 30.1683 71.3252 30.3021C71.5769 30.4341 71.7643 30.6121 71.8874 30.8363C72.0105 31.0586 72.0721 31.3054 72.0721 31.5765C72.0721 31.8152 72.0295 32.0122 71.9444 32.1677C71.8611 32.3231 71.7507 32.446 71.6131 32.5364C71.4773 32.6268 71.3298 32.6937 71.1704 32.7371V32.7913C71.3406 32.8022 71.5117 32.8618 71.6837 32.9703C71.8557 33.0787 71.9997 33.2342 72.1155 33.4367C72.2314 33.6391 72.2893 33.8868 72.2893 34.1796C72.2893 34.458 72.226 34.7084 72.0992 34.9308C71.9725 35.1531 71.7724 35.3294 71.499 35.4595C71.2257 35.5897 70.8699 35.6547 70.4317 35.6547H68.4221ZM69.0956 35.0582H70.4317C70.8717 35.0582 71.184 34.9732 71.3687 34.8033C71.5552 34.6316 71.6484 34.4237 71.6484 34.1796C71.6484 33.9916 71.6004 33.8181 71.5045 33.659C71.4085 33.4981 71.2718 33.3698 71.0944 33.274C70.917 33.1764 70.7069 33.1276 70.4643 33.1276H69.0956V35.0582ZM69.0956 32.5419H70.3448C70.5476 32.5419 70.7305 32.5021 70.8934 32.4225C71.0582 32.343 71.1885 32.2309 71.2845 32.0863C71.3823 31.9417 71.4312 31.7718 71.4312 31.5765C71.4312 31.3325 71.3461 31.1255 71.1759 30.9556C71.0057 30.7839 70.7359 30.698 70.3666 30.698H69.0956V32.5419Z" fill="white"/>
<path d="M61.4321 36.9997V35.0582H61.7906C61.9137 34.9461 62.0296 34.7879 62.1382 34.5837C62.2487 34.3776 62.3419 34.1028 62.418 33.7594C62.4958 33.4141 62.5474 32.9757 62.5728 32.4442L62.6923 30.1014H65.9947V35.0582H66.6356V36.9888H65.9947V35.6547H62.0731V36.9997H61.4321ZM62.5945 35.0582H65.3537V30.698H63.3006L63.2137 32.4442C63.192 32.8492 63.1539 33.2161 63.0996 33.5451C63.0453 33.8723 62.9756 34.1625 62.8905 34.4156C62.8054 34.6668 62.7067 34.881 62.5945 35.0582Z" fill="white"/>
<path d="M56.5768 35.6547V30.1014H59.9335V30.698H57.2503V32.5744H59.7597V33.1709H57.2503V35.0582H59.9769V35.6547H56.5768Z" fill="white"/>
<path d="M50.1515 35.6547V30.1014H50.825V32.5744H53.7906V30.1014H54.4642V35.6547H53.7906V33.1709H50.825V35.6547H50.1515Z" fill="white"/>
<path d="M0 14.1984H5.52064L12.1724 24.8582V14.1984H18.334V35.5194H13.1486L6.16155 24.4321V35.5194H0V14.1984ZM18.8953 21.6459C18.8953 17.3638 21.7699 13.9004 26.2437 13.9004C30.6695 13.9004 33.5461 17.3638 33.5461 21.5091C33.5461 25.7932 30.5788 29.2564 26.1976 29.2564C21.8162 29.2564 18.8953 25.8392 18.8953 21.6459ZM19.3525 30.1404H33.135V35.4723H19.3525V30.1404ZM28.5241 21.5553C28.5241 19.7773 27.5209 18.3654 26.1976 18.3654C24.8276 18.3654 23.915 19.733 23.915 21.6016C23.915 23.4238 24.9203 24.7914 26.2437 24.7914C27.5672 24.7914 28.5241 23.4238 28.5241 21.5553Z" fill="#FF0000"/>
<path d="M34.2096 9.19116L28.2718 10.5475L26.4095 3.01036L36.7259 0.0958252H45.2196V35.5201H34.2096V9.19116Z" fill="#FF0000"/>
</svg>
