<svg width="161" height="35" viewBox="0 0 161 35" fill="none" xmlns="http://www.w3.org/2000/svg">
<g clip-path="url(#clip0_1_1608)">
<path d="M12.01 0.0128204L20.6446 25.7519L18.1637 25.7505L17.4062 28.2662H21.4891L23.7514 34.9997H36.5574L24.3673 0L12.01 0.0128204Z" fill="#A71C20"/>
<path d="M0 34.97L11.9986 0.0129828L24.1058 0.00158691L12.6317 34.9999L0 34.97Z" fill="#C4161C"/>
<path d="M40.106 5.9928L31.5518 25.9371H35.3792L37.728 20.3602H45.1978L47.5738 25.9371H51.5296L42.9754 5.9928H40.106ZM43.7234 16.8316H39.2254L41.4751 11.512L43.7234 16.8316Z" fill="white"/>
<path d="M75.0754 5.99277L67.5695 23.4898L66.0578 20.6579L65.3851 21.1976C64.1803 22.1792 62.6647 22.7019 61.109 22.6722C60.2414 22.7091 59.3755 22.5676 58.5652 22.2565C57.7548 21.9454 57.0174 21.4713 56.3989 20.8638C55.7926 20.2154 55.3227 19.4526 55.017 18.6203C54.7113 17.7881 54.5759 16.9032 54.6188 16.0179C54.574 15.139 54.7042 14.2599 55.002 13.4314C55.2997 12.6029 55.7591 11.8414 56.3535 11.1907C56.9136 10.5873 57.5979 10.1117 58.3596 9.79649C59.1212 9.48123 59.9422 9.33378 60.7664 9.36423C62.2436 9.31315 63.6972 9.74394 64.9064 10.5912L65.5351 11.0565L67.2894 8.18724L66.8239 7.79354C65.0997 6.42999 62.9386 5.73451 60.7399 5.83558C59.39 5.77551 58.043 6.00681 56.7911 6.51364C55.5392 7.02047 54.4119 7.79088 53.4863 8.77216C51.6838 10.7488 50.7253 13.348 50.8144 16.0177C50.7612 17.3755 50.9817 18.7301 51.4629 20.0014C51.9441 21.2727 52.6763 22.4348 53.6161 23.4191C54.5815 24.3447 55.7235 25.0677 56.9743 25.5454C58.2252 26.0231 59.5595 26.2456 60.8983 26.1999C62.1101 26.2046 63.3139 26.0042 64.4584 25.6073C65.5049 25.2728 66.4585 24.6993 67.2433 23.9324L67.4867 23.6828L66.5197 25.937H70.3485L72.6973 20.3601H80.1671L82.5424 25.937H86.4989L77.9447 5.99277H75.0754ZM78.6928 16.8316H74.1948L76.4445 11.512L78.6928 16.8316Z" fill="white"/>
<path d="M102.113 8.96428C101.126 7.97182 99.9192 7.22502 98.5891 6.78441C96.9902 6.24966 95.3113 5.99114 93.625 6.02C93.4826 6.02 92.65 6.03739 91.127 6.07216C90.3943 6.08956 89.6523 6.09814 88.901 6.0979H87.8696V25.9371H88.8744C89.7648 25.9371 90.5505 25.9459 91.2316 25.9636C91.9391 25.9816 92.6667 25.9904 93.4143 25.99C94.9219 26.0807 96.4326 25.8724 97.8589 25.3772C99.2853 24.882 100.599 24.1096 101.724 23.1048C102.704 22.1572 103.476 21.0167 103.99 19.7558C104.504 18.495 104.75 17.1413 104.712 15.7807C104.722 14.5168 104.506 13.2612 104.072 12.0734C103.636 10.9158 102.97 9.8582 102.113 8.96428ZM93.4938 22.4608L93.1505 22.4482C92.937 22.4399 92.6117 22.4302 92.1736 22.4218C91.9656 22.4176 91.7548 22.4149 91.5414 22.4121V9.61114C91.7214 9.60487 91.9294 9.59699 92.1652 9.58749C92.7918 9.56105 93.2621 9.54853 93.572 9.54853C95.5524 9.41256 97.5108 10.0313 99.0511 11.2798C99.6696 11.8508 100.156 12.5492 100.477 13.3264C100.797 14.1037 100.944 14.9411 100.907 15.7807C100.949 16.6774 100.8 17.5728 100.471 18.4082C100.141 19.2436 99.6383 20.0003 98.9952 20.6287C97.4678 21.925 95.4962 22.5815 93.4938 22.4608Z" fill="white"/>
<path d="M111.044 17.6765H118.434V14.1481H111.044V9.62673H119.226V6.09827H107.373V25.9371H119.49V22.4072H111.044V17.6765Z" fill="white"/>
<path d="M132.461 15.0327L125.893 6.09827H122.547V25.9371H126.218V12.6039L131.763 20.2036H132.841L138.303 12.5626V25.9371H141.976V6.09827H138.752L132.461 15.0327Z" fill="white"/>
<path d="M156.855 6.09827L152.056 13.8674L147.283 6.09827H143.011L150.125 17.5369V25.9371H153.798V17.5383L160.999 6.09827H156.855Z" fill="white"/>
<path d="M40.2414 34.1969H40.0308V33.4471H40.3342C40.4676 33.234 40.5661 33.0012 40.6261 32.7573C40.7445 32.3134 40.8109 31.8574 40.824 31.3982L40.8521 30.8331H42.4466V33.4471H42.8313V34.1969H42.6206V33.6565H40.2414V34.1969ZM41.0666 31.0432L41.0348 31.5589C41.0132 31.9839 40.9481 32.4056 40.8406 32.8174C40.7912 33.0406 40.7036 33.2536 40.5817 33.4471H42.2246V31.0432H41.0666Z" fill="white"/>
<path d="M47.1035 33.6527V30.8375C47.4781 30.8269 47.7269 30.8212 47.8475 30.8212C48.4441 30.8212 48.7425 31.0538 48.7425 31.519C48.7475 31.6758 48.6942 31.8288 48.5928 31.9487C48.4868 32.066 48.3464 32.1471 48.1915 32.1803V32.1885C48.3738 32.2 48.5463 32.2748 48.6791 32.3999C48.7375 32.4623 48.7829 32.5356 48.8126 32.6157C48.8422 32.6958 48.8555 32.7809 48.8517 32.8662C48.8588 32.9802 48.8381 33.0942 48.7912 33.1985C48.7443 33.3028 48.6727 33.3941 48.5826 33.4647C48.3654 33.6116 48.1057 33.6832 47.8436 33.6686C47.5465 33.6685 47.3003 33.6634 47.1035 33.6527ZM47.8399 31.0305C47.7232 31.0305 47.553 31.0349 47.3257 31.0432V32.1157H47.8754C48.0412 32.1227 48.204 32.0697 48.3337 31.9664C48.3941 31.9184 48.4424 31.8569 48.4746 31.7869C48.5068 31.7169 48.5221 31.6404 48.5192 31.5634C48.5192 31.2083 48.2928 31.0306 47.8399 31.0305ZM47.8641 32.3131H47.3257V33.4426C47.5948 33.4534 47.7713 33.4591 47.8514 33.4591C48.0556 33.4722 48.2584 33.4182 48.4289 33.3053C48.4961 33.2516 48.5493 33.1826 48.584 33.1041C48.6188 33.0255 48.6339 32.9398 48.6282 32.8541C48.6317 32.7763 48.6154 32.6989 48.5808 32.629C48.5461 32.5592 48.4943 32.4993 48.4301 32.4548C48.2607 32.3504 48.0629 32.3009 47.8641 32.3131Z" fill="white"/>
<path d="M54.8921 33.6565H53.2861V30.8331H54.8516V31.0432H53.5082V32.1197H54.7309V32.3298H53.5082V33.4471H54.8921V33.6565Z" fill="white"/>
<path d="M59.521 32.5233V33.6565H59.2988V30.8331C59.4094 30.8331 59.5236 30.8318 59.6429 30.8294C59.761 30.8269 59.8779 30.8249 59.9909 30.8249C60.1564 30.8217 60.3211 30.8463 60.4784 30.8977C60.5979 30.9361 60.7058 31.004 60.7919 31.0951C60.8616 31.1734 60.9151 31.2646 60.9494 31.3635C60.9828 31.4642 60.9991 31.5699 60.9976 31.676C61.0004 31.7902 60.9793 31.9037 60.9356 32.0092C60.8919 32.1148 60.8265 32.2101 60.7438 32.2891C60.5359 32.4684 60.2652 32.5583 59.9909 32.5391C59.8042 32.5391 59.6481 32.534 59.521 32.5233ZM60.0112 31.035C59.9222 31.035 59.7588 31.0377 59.521 31.0432V32.3093C59.7154 32.3227 59.869 32.3295 59.9819 32.3297C60.1898 32.3426 60.3953 32.2794 60.5597 32.1519C60.6273 32.0921 60.6807 32.018 60.7158 31.935C60.751 31.852 60.767 31.7622 60.7628 31.6721C60.7676 31.5853 60.7532 31.4984 60.7208 31.4176C60.6883 31.3369 60.6385 31.2642 60.5748 31.2046C60.4147 31.0802 60.2137 31.0197 60.0112 31.035Z" fill="white"/>
<path d="M67.4561 31.1964L65.5502 33.6565H65.3523V30.8331H65.5745V33.2932L67.4801 30.8331H67.6781V33.6565H67.4561V31.1964Z" fill="white"/>
<path d="M79.0041 31.1964L77.0985 33.6565H76.9004V30.8331H77.1226V33.2932L79.0282 30.8331H79.2262V33.6565H79.0041V31.1964Z" fill="white"/>
<path d="M90.6486 33.6565H90.425V31.0432H88.6692V33.6565H88.447V30.8331H90.6485L90.6486 33.6565Z" fill="white"/>
<path d="M96.839 33.6565H95.2332V30.8331H96.7984V31.0432H95.4552V32.1197H96.6778V32.3298H95.4552V33.4471H96.839V33.6565Z" fill="white"/>
<path d="M101.468 32.5233V33.6565H101.246V30.8331C101.356 30.8331 101.47 30.8318 101.59 30.8294C101.708 30.8269 101.825 30.8249 101.938 30.8249C102.103 30.8217 102.268 30.8463 102.425 30.8977C102.545 30.9361 102.652 31.004 102.739 31.0951C102.808 31.1734 102.862 31.2646 102.896 31.3635C102.929 31.4642 102.946 31.5699 102.944 31.676C102.947 31.7902 102.926 31.9037 102.882 32.0092C102.839 32.1148 102.773 32.2101 102.69 32.2891C102.483 32.4684 102.212 32.5583 101.938 32.5391C101.751 32.5391 101.595 32.534 101.468 32.5233ZM101.958 31.035C101.869 31.035 101.705 31.0375 101.468 31.0432V32.3093C101.662 32.3227 101.816 32.3295 101.929 32.3297C102.137 32.3426 102.342 32.2794 102.506 32.1519C102.574 32.0922 102.627 32.0181 102.663 31.935C102.698 31.852 102.714 31.7622 102.71 31.6721C102.714 31.5853 102.7 31.4984 102.667 31.4176C102.635 31.3369 102.585 31.2642 102.522 31.2046C102.361 31.0802 102.16 31.0197 101.958 31.035Z" fill="white"/>
<path d="M108.905 33.6565H107.299V30.8331H108.864V31.0432H107.521V32.1197H108.744V32.3298H107.521V33.4471H108.905L108.905 33.6565Z" fill="white"/>
<path d="M113.534 33.6565H113.312V30.8331H114.873V31.0432H113.534V33.6565Z" fill="white"/>
<path d="M118.688 32.2447C118.683 32.0543 118.716 31.8648 118.786 31.6874C118.855 31.5101 118.96 31.3484 119.093 31.2121C119.363 30.9468 119.727 30.7977 120.106 30.797C120.486 30.7963 120.85 30.944 121.121 31.2082C121.256 31.3443 121.362 31.5064 121.432 31.6846C121.502 31.8628 121.535 32.0534 121.528 32.2447C121.533 32.4358 121.5 32.626 121.43 32.804C121.36 32.982 121.255 33.1442 121.121 33.2812C120.99 33.4157 120.832 33.5218 120.658 33.5925C120.484 33.6633 120.297 33.6973 120.109 33.6924C119.921 33.6974 119.734 33.6638 119.559 33.5939C119.384 33.5239 119.226 33.419 119.093 33.2856C118.959 33.1485 118.853 32.9855 118.784 32.8066C118.714 32.6277 118.682 32.4365 118.688 32.2447ZM118.923 32.2447C118.919 32.407 118.947 32.5686 119.005 32.7201C119.063 32.8717 119.151 33.0103 119.263 33.128C119.372 33.243 119.503 33.334 119.648 33.3951C119.794 33.4563 119.951 33.4862 120.109 33.483C120.268 33.488 120.426 33.4589 120.572 33.3976C120.719 33.3364 120.851 33.2444 120.958 33.128C121.182 32.8889 121.303 32.5717 121.295 32.2447C121.3 32.082 121.272 31.9198 121.213 31.768C121.154 31.6162 121.065 31.4779 120.951 31.3614C120.841 31.2491 120.71 31.1598 120.565 31.0989C120.42 31.0379 120.264 31.0065 120.107 31.0065C119.95 31.0065 119.794 31.0379 119.649 31.0989C119.504 31.1598 119.373 31.2491 119.263 31.3614C119.151 31.4786 119.062 31.6171 119.004 31.7688C118.945 31.9205 118.918 32.0823 118.923 32.2447Z" fill="white"/>
<path d="M126.105 32.5233V33.6565H125.883V30.8331C125.994 30.8331 126.108 30.8318 126.227 30.8294C126.345 30.8269 126.462 30.8249 126.575 30.8249C126.741 30.8217 126.905 30.8463 127.063 30.8977C127.182 30.9362 127.29 31.0041 127.376 31.0951C127.446 31.1734 127.499 31.2646 127.534 31.3635C127.567 31.4642 127.583 31.5699 127.582 31.676C127.585 31.7902 127.563 31.9037 127.52 32.0092C127.476 32.1148 127.411 32.2101 127.328 32.2891C127.12 32.4685 126.849 32.5584 126.575 32.5391C126.388 32.5391 126.232 32.534 126.105 32.5233ZM126.595 31.035C126.506 31.035 126.343 31.0375 126.105 31.0432V32.3093C126.3 32.3227 126.453 32.3295 126.566 32.3297C126.774 32.3426 126.979 32.2794 127.144 32.1519C127.211 32.0922 127.265 32.018 127.3 31.935C127.335 31.852 127.351 31.7622 127.347 31.6721C127.352 31.5853 127.337 31.4984 127.305 31.4177C127.272 31.3369 127.223 31.2642 127.159 31.2046C126.999 31.0802 126.798 31.0197 126.595 31.035Z" fill="white"/>
<path d="M131.652 32.2447C131.647 32.0543 131.68 31.8648 131.749 31.6874C131.819 31.51 131.924 31.3484 132.057 31.2121C132.327 30.9468 132.691 30.7977 133.07 30.797C133.449 30.7963 133.814 30.944 134.085 31.2082C134.22 31.3443 134.326 31.5063 134.396 31.6846C134.466 31.8628 134.499 32.0534 134.492 32.2447C134.497 32.4358 134.464 32.626 134.394 32.804C134.324 32.982 134.218 33.1443 134.085 33.2812C133.954 33.4157 133.796 33.5218 133.622 33.5925C133.448 33.6633 133.261 33.6973 133.073 33.6924C132.884 33.6974 132.697 33.6638 132.523 33.5939C132.348 33.5239 132.19 33.419 132.057 33.2856C131.922 33.1485 131.817 32.9855 131.747 32.8066C131.678 32.6277 131.645 32.4365 131.652 32.2447ZM131.887 32.2447C131.883 32.407 131.91 32.5686 131.969 32.7201C132.027 32.8717 132.115 33.0103 132.227 33.128C132.335 33.243 132.466 33.334 132.612 33.3951C132.758 33.4563 132.915 33.4862 133.073 33.483C133.231 33.488 133.39 33.4589 133.536 33.3976C133.683 33.3364 133.814 33.2444 133.922 33.128C134.146 32.8889 134.267 32.5717 134.259 32.2447C134.264 32.082 134.236 31.9198 134.177 31.768C134.118 31.6162 134.029 31.4779 133.915 31.3614C133.805 31.2491 133.674 31.1598 133.529 31.0989C133.384 31.0379 133.228 31.0065 133.071 31.0065C132.914 31.0065 132.758 31.0379 132.613 31.0989C132.468 31.1598 132.337 31.2491 132.227 31.3614C132.114 31.4786 132.026 31.6171 131.968 31.7688C131.909 31.9205 131.882 32.0823 131.887 32.2447Z" fill="white"/>
<path d="M138.519 34.1969H138.308V33.4471H138.612C138.745 33.2341 138.844 33.0012 138.904 32.7573C139.022 32.3134 139.088 31.8574 139.102 31.3982L139.13 30.8331H140.724V33.4471H141.109V34.1969H140.898V33.6565H138.519V34.1969ZM139.344 31.0432L139.312 31.5589C139.291 31.9839 139.226 32.4056 139.118 32.8174C139.069 33.0406 138.981 33.2536 138.859 33.4471H140.502V31.0432H139.344Z" fill="white"/>
<path d="M145.603 33.6565H145.381V30.8331H145.603V33.6565ZM147.068 30.8331H147.339L145.999 32.1683L147.396 33.6565H147.109L145.737 32.1841L147.068 30.8331Z" fill="white"/>
<path d="M153.749 31.1964L151.843 33.6565H151.645V30.8331H151.867V33.2932L153.773 30.8331H153.971V33.6565H153.749V31.1964Z" fill="white"/>
</g>
<defs>
<clipPath id="clip0_1_1608">
<rect width="161" height="35" fill="white"/>
</clipPath>
</defs>
</svg>
