<svg width="24" height="24" viewBox="0 0 24 24" fill="none" xmlns="http://www.w3.org/2000/svg">
<path fill-rule="evenodd" clip-rule="evenodd" d="M9.40039 8.50002C9.40039 7.34065 10.341 6.40002 11.5004 6.40002C12.661 6.40002 13.6004 7.34091 13.6004 8.50002V12C13.6004 12.3314 13.3318 12.6 13.0004 12.6C12.669 12.6 12.4004 12.3314 12.4004 12V8.50002C12.4004 8.00313 11.9978 7.60002 11.5004 7.60002C11.0038 7.60002 10.6004 8.0034 10.6004 8.50002C10.6004 8.8314 10.3318 9.10002 10.0004 9.10002C9.66902 9.10002 9.40039 8.8314 9.40039 8.50002Z" fill="#9B9B9B"/>
<path fill-rule="evenodd" clip-rule="evenodd" d="M14.5004 8.60002C14.0038 8.60002 13.6004 9.0034 13.6004 9.50002C13.6004 9.8314 13.3318 10.1 13.0004 10.1C12.669 10.1 12.4004 9.8314 12.4004 9.50002C12.4004 8.34065 13.341 7.40002 14.5004 7.40002C15.661 7.40002 16.6004 8.34091 16.6004 9.50002V13C16.6004 13.3314 16.3318 13.6 16.0004 13.6C15.669 13.6 15.4004 13.3314 15.4004 13V9.50002C15.4004 9.00313 14.9978 8.60002 14.5004 8.60002Z" fill="#9B9B9B"/>
<path fill-rule="evenodd" clip-rule="evenodd" d="M6.40047 3.50002C6.40047 2.34065 7.34109 1.40002 8.50047 1.40002C9.6611 1.40002 10.6005 2.34091 10.6005 3.50002V12C10.6005 12.3314 10.3318 12.6 10.0005 12.6C9.6691 12.6 9.40047 12.3314 9.40047 12V3.50002C9.40047 3.00313 8.99783 2.60002 8.50047 2.60002C8.00384 2.60002 7.60047 3.0034 7.60047 3.50002V14C7.60047 14.2427 7.45428 14.4615 7.23008 14.5544C7.00587 14.6472 6.7478 14.5959 6.5762 14.4243L4.6922 12.5403C4.30952 12.1576 3.69042 12.1576 3.30773 12.5403C2.99587 12.8521 2.94754 13.3401 3.19244 13.7068L6.71865 18.9951C7.72042 20.4973 9.40616 21.4 11.2125 21.4H13.0005C15.9831 21.4 18.4005 18.9827 18.4005 16V10.5C18.4005 10.0031 17.9978 9.60002 17.5005 9.60002C17.0038 9.60002 16.6005 10.0034 16.6005 10.5C16.6005 10.8314 16.3318 11.1 16.0005 11.1C15.6691 11.1 15.4005 10.8314 15.4005 10.5C15.4005 9.34065 16.3411 8.40002 17.5005 8.40002C18.6611 8.40002 19.6005 9.34091 19.6005 10.5V16C19.6005 19.6454 16.6458 22.6 13.0005 22.6H11.2125C9.00478 22.6 6.94451 21.4967 5.72028 19.6609L2.19449 14.3732C2.19441 14.3731 2.19456 14.3733 2.19449 14.3732C1.63165 13.53 1.74316 12.4078 2.4592 11.6918C3.31052 10.8404 4.68942 10.8404 5.54073 11.6918L6.40047 12.5515V3.50002Z" fill="#9B9B9B"/>
<path fill-rule="evenodd" clip-rule="evenodd" d="M17.3392 0.634751C17.1049 0.400436 16.725 0.400436 16.4907 0.634751L14.5767 2.54875C14.3424 2.78307 14.3424 3.16296 14.5767 3.39728L16.6037 5.42428C16.838 5.65859 17.2179 5.65859 17.4522 5.42428C17.6865 5.18996 17.6865 4.81007 17.4522 4.57575L15.8495 2.97302L17.3392 1.48328C17.5735 1.24896 17.5735 0.869065 17.3392 0.634751Z" fill="#9B9B9B"/>
<path fill-rule="evenodd" clip-rule="evenodd" d="M14.4004 2.97003C14.4004 2.63865 14.669 2.37003 15.0004 2.37003H21.0004C21.3318 2.37003 21.6004 2.63865 21.6004 2.97003C21.6004 3.3014 21.3318 3.57003 21.0004 3.57003H15.0004C14.669 3.57003 14.4004 3.3014 14.4004 2.97003Z" fill="#9B9B9B"/>
</svg>
