<svg aria-hidden="true" xmlns="http://www.w3.org/2000/svg" xmlns:xlink="http://www.w3.org/1999/xlink"><symbol viewBox="0 0 19 16" id="arrow-right" xmlns="http://www.w3.org/2000/svg">
<path fill-rule="evenodd" clip-rule="evenodd" d="M12.3431 0.92888L18.7071 7.29284C19.0976 7.68336 19.0976 8.31653 18.7071 8.70705L12.3431 15.071C11.9526 15.4615 11.3195 15.4615 10.9289 15.071C10.5384 14.6805 10.5384 14.0473 10.9289 13.6568L15.5858 8.99995H0V6.99995H15.5858L10.9289 2.34309C10.5384 1.95257 10.5384 1.3194 10.9289 0.92888C11.3195 0.538355 11.9526 0.538355 12.3431 0.92888Z"/>
</symbol><symbol viewBox="0 0 16 12" id="check" xmlns="http://www.w3.org/2000/svg">
<path fill-rule="evenodd" clip-rule="evenodd" d="M15.0769 0.955782C15.6536 1.55051 15.6389 2.50015 15.0442 3.07685L6.79422 11.0769C6.21239 11.6411 5.28761 11.6411 4.70578 11.0769L0.955782 7.44049C0.361054 6.86378 0.346444 5.91415 0.923151 5.31942C1.49986 4.72469 2.44949 4.71008 3.04422 5.28679L5.75 7.91057L12.9558 0.923151C13.5505 0.346444 14.5001 0.361054 15.0769 0.955782Z"/>
</symbol><symbol viewBox="0 0 12 12" id="close" xmlns="http://www.w3.org/2000/svg">
<path d="M0.229219 10.6641C-0.0764063 10.9697 -0.0764063 11.4651 0.229219 11.7708C0.534844 12.0764 1.03037 12.0764 1.336 11.7708L0.229219 10.6641ZM6.55337 6.55337C6.85901 6.24773 6.85901 5.75229 6.55337 5.44665C6.24773 5.14102 5.75229 5.14102 5.44665 5.44665L6.55337 6.55337ZM5.44665 5.44665C5.14102 5.75229 5.14102 6.24773 5.44665 6.55337C5.75229 6.85901 6.24773 6.85901 6.55337 6.55337L5.44665 5.44665ZM11.7708 1.336C12.0764 1.03037 12.0764 0.534844 11.7708 0.229219C11.4651 -0.0764063 10.9697 -0.0764063 10.6641 0.229219L11.7708 1.336ZM6.55337 5.44665C6.24773 5.14102 5.75229 5.14102 5.44665 5.44665C5.14102 5.75229 5.14102 6.24773 5.44665 6.55337L6.55337 5.44665ZM10.6641 11.7708C10.9697 12.0764 11.4651 12.0764 11.7708 11.7708C12.0764 11.4651 12.0764 10.9697 11.7708 10.6641L10.6641 11.7708ZM5.44665 6.55337C5.75229 6.85901 6.24773 6.85901 6.55337 6.55337C6.85901 6.24773 6.85901 5.75229 6.55337 5.44665L5.44665 6.55337ZM1.336 0.229219C1.03037 -0.0764063 0.534844 -0.0764063 0.229219 0.229219C-0.0764063 0.534844 -0.0764063 1.03037 0.229219 1.336L1.336 0.229219ZM1.336 11.7708L6.55337 6.55337L5.44665 5.44665L0.229219 10.6641L1.336 11.7708ZM6.55337 6.55337L11.7708 1.336L10.6641 0.229219L5.44665 5.44665L6.55337 6.55337ZM5.44665 6.55337L10.6641 11.7708L11.7708 10.6641L6.55337 5.44665L5.44665 6.55337ZM6.55337 5.44665L1.336 0.229219L0.229219 1.336L5.44665 6.55337L6.55337 5.44665Z"/>
</symbol><symbol viewBox="0 0 13 13" id="star" xmlns="http://www.w3.org/2000/svg">
<path d="M6.03378 0L8.0098 3.81025L12.0676 4.60894L9.23127 7.7628L9.7625 12.0676L6.03378 10.206L2.30507 12.0676L2.83629 7.7628L0 4.60894L4.05777 3.81025L6.03378 0Z"/>
</symbol><symbol viewBox="0 0 24 24" id="swipe-right" xmlns="http://www.w3.org/2000/svg">
<path fill-rule="evenodd" clip-rule="evenodd" d="M9.40039 8.50002C9.40039 7.34065 10.341 6.40002 11.5004 6.40002C12.661 6.40002 13.6004 7.34091 13.6004 8.50002V12C13.6004 12.3314 13.3318 12.6 13.0004 12.6C12.669 12.6 12.4004 12.3314 12.4004 12V8.50002C12.4004 8.00313 11.9978 7.60002 11.5004 7.60002C11.0038 7.60002 10.6004 8.0034 10.6004 8.50002C10.6004 8.8314 10.3318 9.10002 10.0004 9.10002C9.66902 9.10002 9.40039 8.8314 9.40039 8.50002Z"/>
<path fill-rule="evenodd" clip-rule="evenodd" d="M14.5004 8.60002C14.0038 8.60002 13.6004 9.0034 13.6004 9.50002C13.6004 9.8314 13.3318 10.1 13.0004 10.1C12.669 10.1 12.4004 9.8314 12.4004 9.50002C12.4004 8.34065 13.341 7.40002 14.5004 7.40002C15.661 7.40002 16.6004 8.34091 16.6004 9.50002V13C16.6004 13.3314 16.3318 13.6 16.0004 13.6C15.669 13.6 15.4004 13.3314 15.4004 13V9.50002C15.4004 9.00313 14.9978 8.60002 14.5004 8.60002Z"/>
<path fill-rule="evenodd" clip-rule="evenodd" d="M6.40047 3.50002C6.40047 2.34065 7.34109 1.40002 8.50047 1.40002C9.6611 1.40002 10.6005 2.34091 10.6005 3.50002V12C10.6005 12.3314 10.3318 12.6 10.0005 12.6C9.6691 12.6 9.40047 12.3314 9.40047 12V3.50002C9.40047 3.00313 8.99783 2.60002 8.50047 2.60002C8.00384 2.60002 7.60047 3.0034 7.60047 3.50002V14C7.60047 14.2427 7.45428 14.4615 7.23008 14.5544C7.00587 14.6472 6.7478 14.5959 6.5762 14.4243L4.6922 12.5403C4.30952 12.1576 3.69042 12.1576 3.30773 12.5403C2.99587 12.8521 2.94754 13.3401 3.19244 13.7068L6.71865 18.9951C7.72042 20.4973 9.40616 21.4 11.2125 21.4H13.0005C15.9831 21.4 18.4005 18.9827 18.4005 16V10.5C18.4005 10.0031 17.9978 9.60002 17.5005 9.60002C17.0038 9.60002 16.6005 10.0034 16.6005 10.5C16.6005 10.8314 16.3318 11.1 16.0005 11.1C15.6691 11.1 15.4005 10.8314 15.4005 10.5C15.4005 9.34065 16.3411 8.40002 17.5005 8.40002C18.6611 8.40002 19.6005 9.34091 19.6005 10.5V16C19.6005 19.6454 16.6458 22.6 13.0005 22.6H11.2125C9.00478 22.6 6.94451 21.4967 5.72028 19.6609L2.19449 14.3732C2.19441 14.3731 2.19456 14.3733 2.19449 14.3732C1.63165 13.53 1.74316 12.4078 2.4592 11.6918C3.31052 10.8404 4.68942 10.8404 5.54073 11.6918L6.40047 12.5515V3.50002Z"/>
<path fill-rule="evenodd" clip-rule="evenodd" d="M17.3392 0.634751C17.1049 0.400436 16.725 0.400436 16.4907 0.634751L14.5767 2.54875C14.3424 2.78307 14.3424 3.16296 14.5767 3.39728L16.6037 5.42428C16.838 5.65859 17.2179 5.65859 17.4522 5.42428C17.6865 5.18996 17.6865 4.81007 17.4522 4.57575L15.8495 2.97302L17.3392 1.48328C17.5735 1.24896 17.5735 0.869065 17.3392 0.634751Z"/>
<path fill-rule="evenodd" clip-rule="evenodd" d="M14.4004 2.97003C14.4004 2.63865 14.669 2.37003 15.0004 2.37003H21.0004C21.3318 2.37003 21.6004 2.63865 21.6004 2.97003C21.6004 3.3014 21.3318 3.57003 21.0004 3.57003H15.0004C14.669 3.57003 14.4004 3.3014 14.4004 2.97003Z"/>
</symbol><symbol viewBox="0 0 12 14" id="user" xmlns="http://www.w3.org/2000/svg">
<path d="M8.96765 4.63581C8.96765 6.68336 7.52882 8.34322 5.80008 8.34322C4.07134 8.34322 2.66992 6.68336 2.66992 4.63581C2.66992 2.58827 3.43064 0.928406 5.80008 0.928406C8.38153 0.985268 8.96765 2.58827 8.96765 4.63581Z"/>
<path d="M11.1251 12.1277C11.1251 13.0824 8.75216 13.0716 5.82501 13.0716C2.89786 13.0716 0.5 12.9573 0.5 12.0026C0.5 11.048 1.79696 9.39836 5.82501 9.51208C10.1773 9.36423 11.1251 11.173 11.1251 12.1277Z"/>
</symbol></svg>