<svg width="46" height="45" viewBox="0 0 46 45" fill="none" xmlns="http://www.w3.org/2000/svg">
<g clip-path="url(#clip0_1_111)">
<path d="M12.3483 44.8409C9.67216 44.7191 8.21839 44.2738 7.25144 43.8966C5.97019 43.3978 5.05674 42.804 4.09514 41.8437C3.13354 40.8834 2.53839 39.97 2.0422 38.6887C1.66505 37.7218 1.21969 36.268 1.09799 33.5919C0.964248 30.699 0.9375 29.831 0.9375 22.502C0.9375 15.173 0.966923 14.3063 1.09665 11.4108C1.21836 8.73466 1.66639 7.28356 2.04087 6.31394C2.53972 5.03269 3.13487 4.11924 4.0938 3.1563C5.05406 2.19604 5.96752 1.59955 7.2501 1.10337C8.21705 0.726216 9.67082 0.280857 12.347 0.159152C15.2412 0.0267483 16.1105 0 23.4368 0C30.7659 0 31.6325 0.0294231 34.528 0.159152C37.2042 0.280857 38.6553 0.728891 39.6249 1.10337C40.9061 1.59955 41.8196 2.19604 42.7812 3.1563C43.7428 4.11656 44.3353 5.03135 44.8341 6.3126C45.2113 7.27955 45.6566 8.73332 45.7784 11.4095C45.9108 14.305 45.9375 15.1716 45.9375 22.5007C45.9375 29.827 45.9108 30.6963 45.7784 33.5919C45.6566 36.268 45.2086 37.7218 44.8341 38.6887C44.3353 39.97 43.7415 40.8834 42.7812 41.8437C41.8209 42.804 40.9061 43.3978 39.6249 43.8966C38.658 44.2738 37.2042 44.7191 34.528 44.8409C31.6352 44.9733 30.7659 45 23.4368 45C16.1105 45 15.2412 44.9746 12.3483 44.8409Z" fill="url(#paint0_radial_1_111)"/>
<path d="M12.3483 44.8409C9.67216 44.7191 8.21839 44.2738 7.25144 43.8966C5.97019 43.3978 5.05674 42.804 4.09514 41.8437C3.13354 40.8834 2.53839 39.97 2.0422 38.6887C1.66505 37.7218 1.21969 36.268 1.09799 33.5919C0.964248 30.699 0.9375 29.831 0.9375 22.502C0.9375 15.173 0.966923 14.3063 1.09665 11.4108C1.21836 8.73466 1.66639 7.28356 2.04087 6.31394C2.53972 5.03269 3.13487 4.11924 4.0938 3.1563C5.05406 2.19604 5.96752 1.59955 7.2501 1.10337C8.21705 0.726216 9.67082 0.280857 12.347 0.159152C15.2412 0.0267483 16.1105 0 23.4368 0C30.7659 0 31.6325 0.0294231 34.528 0.159152C37.2042 0.280857 38.6553 0.728891 39.6249 1.10337C40.9061 1.59955 41.8196 2.19604 42.7812 3.1563C43.7428 4.11656 44.3353 5.03135 44.8341 6.3126C45.2113 7.27955 45.6566 8.73332 45.7784 11.4095C45.9108 14.305 45.9375 15.1716 45.9375 22.5007C45.9375 29.827 45.9108 30.6963 45.7784 33.5919C45.6566 36.268 45.2086 37.7218 44.8341 38.6887C44.3353 39.97 43.7415 40.8834 42.7812 41.8437C41.8209 42.804 40.9061 43.3978 39.6249 43.8966C38.658 44.2738 37.2042 44.7191 34.528 44.8409C31.6352 44.9733 30.7659 45 23.4368 45C16.1105 45 15.2412 44.9746 12.3483 44.8409Z" fill="url(#paint1_radial_1_111)"/>
<path d="M17.9126 22.5956C17.9126 19.5181 20.4068 17.0226 23.4843 17.0226C26.5618 17.0226 29.0573 19.5181 29.0573 22.5956C29.0573 25.6731 26.5618 28.1686 23.4843 28.1686C20.4068 28.1686 17.9126 25.6731 17.9126 22.5956ZM14.9 22.5956C14.9 27.3368 18.7432 31.1799 23.4843 31.1799C28.2254 31.1799 32.0686 27.3368 32.0686 22.5956C32.0686 17.8545 28.2254 14.0113 23.4843 14.0113C18.7432 14.0113 14.9001 17.8542 14.9001 22.5956M30.4025 13.6709C30.4023 14.0677 30.5198 14.4556 30.7401 14.7856C30.9604 15.1156 31.2736 15.3728 31.6401 15.5248C32.0067 15.6768 32.41 15.7167 32.7992 15.6394C33.1884 15.5622 33.5459 15.3713 33.8266 15.0908C34.1072 14.8104 34.2984 14.453 34.376 14.0639C34.4536 13.6748 34.414 13.2714 34.2623 12.9047C34.1106 12.5381 33.8536 12.2247 33.5238 12.0041C33.194 11.7836 32.8062 11.6658 32.4094 11.6656H32.4086C31.8767 11.6658 31.3668 11.8772 30.9906 12.2532C30.6145 12.6292 30.4029 13.1391 30.4025 13.6709ZM16.7303 36.2035C15.1004 36.1293 14.2145 35.8578 13.6258 35.6285C12.8453 35.3246 12.2884 34.9627 11.7029 34.378C11.1173 33.7933 10.7549 33.2369 10.4524 32.4564C10.2229 31.8679 9.95139 30.9817 9.8773 29.3518C9.79625 27.5897 9.78006 27.0603 9.78006 22.5959C9.78006 18.1315 9.79759 17.6036 9.8773 15.8399C9.95152 14.21 10.225 13.3256 10.4524 12.7354C10.7562 11.9549 11.1181 11.398 11.7029 10.8125C12.2876 10.2269 12.8439 9.8645 13.6258 9.56197C14.2143 9.33247 15.1004 9.06098 16.7303 8.98688C18.4925 8.90584 19.0219 8.88965 23.4843 8.88965C27.9467 8.88965 28.4766 8.90691 30.2402 8.98715C31.8701 9.06138 32.7546 9.33488 33.3448 9.56224C34.1253 9.86476 34.6822 10.228 35.2677 10.8127C35.8532 11.3974 36.2143 11.9551 36.5182 12.7357C36.7477 13.3241 37.0192 14.2103 37.0933 15.8402C37.1743 17.6038 37.1905 18.1317 37.1905 22.5962C37.1905 27.0606 37.1743 27.5885 37.0933 29.3521C37.0191 30.982 36.7462 31.8679 36.5182 32.4566C36.2143 33.2372 35.8524 33.7941 35.2677 34.3782C34.683 34.9624 34.1253 35.3249 33.3448 35.6287C32.7563 35.8582 31.8701 36.1297 30.2402 36.2038C28.4781 36.2849 27.9487 36.301 23.4843 36.301C19.0199 36.301 18.492 36.2849 16.7303 36.2038M16.5919 5.97917C14.8122 6.06022 13.5961 6.34241 12.5341 6.75568C11.4348 7.18244 10.5031 7.75499 9.57263 8.68396C8.64219 9.61293 8.07112 10.5448 7.64435 11.6454C7.23109 12.7081 6.94889 13.9236 6.86784 15.7032C6.78546 17.4858 6.7666 18.0556 6.7666 22.5956C6.7666 27.1356 6.78546 27.7055 6.86784 29.488C6.94889 31.2678 7.23109 32.4831 7.64435 33.5458C8.07112 34.6451 8.64233 35.5787 9.57263 36.5073C10.5029 37.4358 11.4335 38.0076 12.5341 38.4356C13.5981 38.8488 14.8122 39.131 16.5919 39.2121C18.3754 39.2931 18.9443 39.3133 23.4843 39.3133C28.0243 39.3133 28.5942 39.2944 30.3767 39.2121C32.1565 39.131 33.3718 38.8488 34.4345 38.4356C35.5337 38.0076 36.4655 37.4362 37.3959 36.5073C38.3264 35.5783 38.8963 34.6451 39.3242 33.5458C39.7375 32.4831 40.021 31.2677 40.1007 29.488C40.1818 27.7041 40.2006 27.1356 40.2006 22.5956C40.2006 18.0556 40.1818 17.4858 40.1007 15.7032C40.0197 13.9234 39.7375 12.7074 39.3242 11.6454C38.8963 10.5462 38.3249 9.6144 37.3959 8.68396C36.467 7.75352 35.5337 7.18244 34.4358 6.75568C33.3718 6.34241 32.1564 6.05888 30.378 5.97917C28.5952 5.89772 28.0256 5.87793 23.4863 5.87793C18.947 5.87793 18.376 5.89679 16.5926 5.97917" fill="white"/>
</g>
<defs>
<radialGradient id="paint0_radial_1_111" cx="0" cy="0" r="1" gradientUnits="userSpaceOnUse" gradientTransform="translate(3.84985 44.0142) scale(57.1333)">
<stop offset="0.09" stop-color="#FA8F21"/>
<stop offset="0.78" stop-color="#D82D7E"/>
</radialGradient>
<radialGradient id="paint1_radial_1_111" cx="0" cy="0" r="1" gradientUnits="userSpaceOnUse" gradientTransform="translate(32.1074 42.5692) scale(50.2778)">
<stop offset="0.64" stop-color="#8C3AAA" stop-opacity="0"/>
<stop offset="1" stop-color="#8C3AAA"/>
</radialGradient>
<clipPath id="clip0_1_111">
<rect width="45" height="45" fill="white" transform="translate(0.9375)"/>
</clipPath>
</defs>
</svg>
