<svg width="46" height="45" viewBox="0 0 46 45" fill="none" xmlns="http://www.w3.org/2000/svg">
<circle cx="22.75" cy="22.5" r="22.5" fill="white"/>
<path fill-rule="evenodd" clip-rule="evenodd" d="M22.3383 0.0031789C19.5542 0.0486807 16.7718 0.623416 14.1827 1.68778C13.182 2.09918 12.0765 2.65443 11.1634 3.20426C9.97508 3.91979 8.76676 4.81202 7.72084 5.74628C6.75117 6.61242 5.68354 7.76432 4.89244 8.79788C2.26803 12.2267 0.701687 16.2367 0.323458 20.495C0.255772 21.2572 0.242438 21.6783 0.253442 22.7084C0.263595 23.6586 0.281977 24.0433 0.350015 24.729C0.686078 28.1158 1.77189 31.352 3.54223 34.2433C4.67673 36.0961 6.09874 37.8004 7.73772 39.2715C9.14661 40.5362 10.7577 41.6469 12.4443 42.5165C13.0417 42.8244 14.1768 43.3417 14.1881 43.3112C14.1911 43.3031 14.1727 43.1062 14.1472 42.8736C13.9873 41.4149 13.9619 39.8852 14.0728 38.3925C14.1804 36.9452 14.3952 35.5329 14.7562 33.8996C15.0342 32.6419 15.2567 31.779 15.8315 29.7303C16.3316 27.9478 16.4299 27.5936 16.5755 27.0494C16.7586 26.3651 16.9715 25.5077 17.1016 24.9309L17.2 24.495L17.1549 24.4317C17.0483 24.2819 16.8138 23.7622 16.7083 23.4418C16.4637 22.6996 16.3799 22.0873 16.3984 21.1791C16.4158 20.3234 16.5408 19.6025 16.8072 18.819C17.1299 17.8705 17.5774 17.1135 18.1752 16.5047C18.7286 15.9412 19.3031 15.6119 20.0082 15.4543C20.2675 15.3962 20.778 15.3753 21.093 15.4097C21.7366 15.4801 22.4803 15.7703 22.9209 16.123C23.4178 16.5207 23.7059 17.0648 23.8017 17.7863C23.8413 18.0851 23.8269 18.7484 23.7727 19.1175C23.6395 20.0242 23.4565 20.6928 22.7887 22.7137C22.3721 23.9742 22.215 24.4783 22.0693 25.0221C21.5795 26.8513 21.6068 28.0394 22.1578 28.869C22.4999 29.3841 23.098 29.7638 23.8918 29.9699C24.192 30.0478 24.6321 30.1215 24.944 30.1461C25.8006 30.2134 26.6375 30.065 27.4288 29.7053C29.351 28.8316 30.9015 26.7029 31.7402 23.786C31.9839 22.9386 32.1585 21.9787 32.2547 20.9572C32.3014 20.4617 32.3013 18.9968 32.2545 18.5351C32.0807 16.8184 31.6647 15.4773 30.9613 14.3664C30.5485 13.7144 30.0185 13.1684 29.1994 12.5513C28.1715 11.7769 26.837 11.1885 25.5007 10.9202C24.0877 10.6366 22.5139 10.6589 21.051 10.9833C19.0353 11.4303 17.2196 12.3339 15.6714 13.6606C15.389 13.9027 14.713 14.585 14.4692 14.8743C13.0718 16.5321 12.3251 18.3704 12.2113 20.4332C12.1708 21.1683 12.2571 22.1662 12.4007 22.6212C12.5833 23.2005 13.2543 24.141 14.1234 25.0358L14.4097 25.3307L14.3745 25.6076C14.3247 25.9993 14.2414 26.4949 14.1362 27.025C14.0492 27.4633 13.8412 28.4093 13.8283 28.4253C13.8022 28.4576 12.9212 28.2133 12.5049 28.0583C10.8353 27.4365 9.57697 26.3327 8.82327 24.8288C8.33236 23.8492 8.06748 22.824 7.95676 21.4749C7.92959 21.1439 7.93078 19.9084 7.95857 19.5798C8.14484 17.3774 8.91067 15.3379 10.2357 13.5153C11.534 11.7296 13.4049 10.1723 15.5214 9.11552C17.1822 8.28621 18.8861 7.76609 20.6369 7.55393C21.5622 7.44179 22.0661 7.41424 23.189 7.41435C24.2219 7.41447 24.6113 7.43399 25.4175 7.52607C29.1058 7.94734 32.2787 9.35169 34.4333 11.5165C36.2929 13.3849 37.2922 15.5705 37.5577 18.3502C37.6539 19.3573 37.6539 20.5083 37.5576 21.5673C37.3807 23.5153 36.8448 25.4742 36.0301 27.1511C35.1143 29.0361 33.9229 30.5414 32.4358 31.6924C31.1291 32.7038 29.5566 33.3949 27.9419 33.6675C26.793 33.8615 25.4889 33.8725 24.497 33.6964C23.5429 33.5271 22.8066 33.1941 21.5339 32.3563C20.7545 31.8433 20.1526 31.4652 20.1386 31.48C20.1351 31.4837 20.0808 31.7364 20.018 32.0415C19.1656 36.1823 18.374 38.5746 17.2005 40.5557C16.5054 41.729 15.6799 42.6894 14.693 43.4726L14.6485 43.5079L14.9612 43.6241C16.7651 44.2941 18.8145 44.7501 20.7756 44.9179C21.5333 44.9827 21.9476 45 22.7452 45C23.5338 45 23.947 44.9828 24.6983 44.9188C28.0717 44.6315 31.31 43.5924 34.2191 41.8641C36.5437 40.483 38.6032 38.6984 40.2846 36.6083C41.6546 34.9051 42.7571 33.0423 43.5827 31.0352C44.4391 28.9534 44.9815 26.7126 45.1763 24.4517C45.2377 23.7392 45.2502 23.4344 45.25 22.6582C45.2497 21.8213 45.2291 21.2987 45.168 20.5782C44.8879 17.2791 43.9078 14.1521 42.25 11.2689C40.3124 7.89901 37.4945 5.06266 34.1002 3.06578C33.2694 2.57698 32.2243 2.05952 31.3206 1.68941C28.4512 0.514275 25.4572 -0.0477957 22.3383 0.0031789Z" fill="#CC2127"/>
</svg>
