<svg width="46" height="45" viewBox="0 0 46 45" fill="none" xmlns="http://www.w3.org/2000/svg">
<path d="M44.3091 11.4961C44.0547 10.5299 43.5533 9.64798 42.8551 8.93875C42.1569 8.22951 41.2864 7.71781 40.3307 7.45484C36.8125 6.5 22.75 6.5 22.75 6.5C22.75 6.5 8.6875 6.5 5.16932 7.45484C4.21362 7.71781 3.34311 8.22951 2.64491 8.93875C1.94672 9.64798 1.44532 10.5299 1.19091 11.4961C0.25 15.0626 0.25 22.5 0.25 22.5C0.25 22.5 0.25 29.9374 1.19091 33.5039C1.44532 34.4701 1.94672 35.352 2.64491 36.0613C3.34311 36.7705 4.21362 37.2822 5.16932 37.5452C8.6875 38.5 22.75 38.5 22.75 38.5C22.75 38.5 36.8125 38.5 40.3307 37.5452C41.2864 37.2822 42.1569 36.7705 42.8551 36.0613C43.5533 35.352 44.0547 34.4701 44.3091 33.5039C45.25 29.9374 45.25 22.5 45.25 22.5C45.25 22.5 45.25 15.0626 44.3091 11.4961Z" fill="#F70000"/>
<path d="M20.0059 29.3448V15L29.8839 22.1724L20.0059 29.3448Z" fill="white"/>
</svg>
