<svg width="555" height="111" viewBox="0 0 555 111" fill="none" xmlns="http://www.w3.org/2000/svg">
<path d="M442.865 54.8241C442.865 39.203 448.112 26.1854 458.606 15.7713C469.1 5.2571 482.542 0 498.932 0C515.323 0 528.765 5.2571 539.259 15.7713C549.753 26.1854 555 39.203 555 54.8241C555 70.8457 549.753 84.2138 539.259 94.9283C528.765 105.643 515.323 111 498.932 111C482.542 111 469.1 105.643 458.606 94.9283C448.112 84.2138 442.865 70.8457 442.865 54.8241ZM469.999 54.8241C469.999 64.0365 472.698 71.6969 478.095 77.8051C483.591 83.9134 490.537 86.9675 498.932 86.9675C507.328 86.9675 514.224 83.9134 519.62 77.8051C525.117 71.6969 527.866 64.0365 527.866 54.8241C527.866 46.0122 525.117 38.7023 519.62 32.8945C514.224 26.9865 507.328 24.0325 498.932 24.0325C490.537 24.0325 483.591 26.9865 478.095 32.8945C472.698 38.7023 469.999 46.0122 469.999 54.8241Z" fill="white" fill-opacity="0.15"/>
<path d="M442.865 54.8241C442.865 39.203 448.112 26.1854 458.606 15.7713C469.1 5.2571 482.542 0 498.932 0C515.323 0 528.765 5.2571 539.259 15.7713C549.753 26.1854 555 39.203 555 54.8241C555 70.8457 549.753 84.2138 539.259 94.9283C528.765 105.643 515.323 111 498.932 111C482.542 111 469.1 105.643 458.606 94.9283C448.112 84.2138 442.865 70.8457 442.865 54.8241ZM469.999 54.8241C469.999 64.0365 472.698 71.6969 478.095 77.8051C483.591 83.9134 490.537 86.9675 498.932 86.9675C507.328 86.9675 514.224 83.9134 519.62 77.8051C525.117 71.6969 527.866 64.0365 527.866 54.8241C527.866 46.0122 525.117 38.7023 519.62 32.8945C514.224 26.9865 507.328 24.0325 498.932 24.0325C490.537 24.0325 483.591 26.9865 478.095 32.8945C472.698 38.7023 469.999 46.0122 469.999 54.8241Z" fill="url(#paint0_linear_1_46)" fill-opacity="0.6"/>
<path d="M364.533 109.197V1.80225H431.694V24.3327H390.768V43.8591H423.449V66.3895H390.768V86.6669H433.793V109.197H364.533Z" fill="white" fill-opacity="0.15"/>
<path d="M364.533 109.197V1.80225H431.694V24.3327H390.768V43.8591H423.449V66.3895H390.768V86.6669H433.793V109.197H364.533Z" fill="url(#paint1_linear_1_46)" fill-opacity="0.6"/>
<path d="M229.309 109.197L238.153 1.80225H266.637L282.228 47.1635L287.624 64.8875H287.924C289.923 57.6778 291.722 51.7698 293.321 47.1635L308.912 1.80225H337.395L346.09 109.197H319.856L316.558 60.832C316.358 58.4288 316.258 55.7251 316.258 52.7211C316.258 49.717 316.308 47.3137 316.408 45.5113L316.558 42.8077H316.258C313.859 50.3178 311.86 56.3259 310.261 60.832L299.018 91.924H276.531L265.288 60.832L259.291 42.8077H258.991C259.391 49.4166 259.391 55.4247 258.991 60.832L255.693 109.197H229.309Z" fill="white" fill-opacity="0.15"/>
<path d="M229.309 109.197L238.153 1.80225H266.637L282.228 47.1635L287.624 64.8875H287.924C289.923 57.6778 291.722 51.7698 293.321 47.1635L308.912 1.80225H337.395L346.09 109.197H319.856L316.558 60.832C316.358 58.4288 316.258 55.7251 316.258 52.7211C316.258 49.717 316.308 47.3137 316.408 45.5113L316.558 42.8077H316.258C313.859 50.3178 311.86 56.3259 310.261 60.832L299.018 91.924H276.531L265.288 60.832L259.291 42.8077H258.991C259.391 49.4166 259.391 55.4247 258.991 60.832L255.693 109.197H229.309Z" fill="url(#paint2_linear_1_46)" fill-opacity="0.6"/>
<path d="M104.685 54.8241C104.685 39.203 109.931 26.1854 120.425 15.7713C130.919 5.2571 144.361 0 160.752 0C177.142 0 190.584 5.2571 201.078 15.7713C211.572 26.1854 216.819 39.203 216.819 54.8241C216.819 70.8457 211.572 84.2138 201.078 94.9283C190.584 105.643 177.142 111 160.752 111C144.361 111 130.919 105.643 120.425 94.9283C109.931 84.2138 104.685 70.8457 104.685 54.8241ZM131.819 54.8241C131.819 64.0365 134.517 71.6969 139.914 77.8051C145.411 83.9134 152.357 86.9675 160.752 86.9675C169.147 86.9675 176.043 83.9134 181.44 77.8051C186.936 71.6969 189.685 64.0365 189.685 54.8241C189.685 46.0122 186.936 38.7023 181.44 32.8945C176.043 26.9865 169.147 24.0325 160.752 24.0325C152.357 24.0325 145.411 26.9865 139.914 32.8945C134.517 38.7023 131.819 46.0122 131.819 54.8241Z" fill="white" fill-opacity="0.15"/>
<path d="M104.685 54.8241C104.685 39.203 109.931 26.1854 120.425 15.7713C130.919 5.2571 144.361 0 160.752 0C177.142 0 190.584 5.2571 201.078 15.7713C211.572 26.1854 216.819 39.203 216.819 54.8241C216.819 70.8457 211.572 84.2138 201.078 94.9283C190.584 105.643 177.142 111 160.752 111C144.361 111 130.919 105.643 120.425 94.9283C109.931 84.2138 104.685 70.8457 104.685 54.8241ZM131.819 54.8241C131.819 64.0365 134.517 71.6969 139.914 77.8051C145.411 83.9134 152.357 86.9675 160.752 86.9675C169.147 86.9675 176.043 83.9134 181.44 77.8051C186.936 71.6969 189.685 64.0365 189.685 54.8241C189.685 46.0122 186.936 38.7023 181.44 32.8945C176.043 26.9865 169.147 24.0325 160.752 24.0325C152.357 24.0325 145.411 26.9865 139.914 32.8945C134.517 38.7023 131.819 46.0122 131.819 54.8241Z" fill="url(#paint3_linear_1_46)" fill-opacity="0.6"/>
<path d="M0 109.197V1.80225H38.0777C55.0678 1.80225 68.5099 6.55867 78.4042 16.0715C88.3983 25.4842 93.3954 38.5519 93.3954 55.2745C93.3954 72.0972 88.3983 85.3151 78.4042 94.9281C68.5099 104.441 55.0678 109.197 38.0777 109.197H0ZM26.2347 86.6669H37.0283C46.223 86.6669 53.3688 83.9633 58.4658 78.556C63.6628 73.1487 66.2613 65.3882 66.2613 55.2745C66.2613 45.261 63.6628 37.6006 58.4658 32.2934C53.2689 26.9863 46.123 24.3327 37.0283 24.3327H26.2347V86.6669Z" fill="white" fill-opacity="0.15"/>
<path d="M0 109.197V1.80225H38.0777C55.0678 1.80225 68.5099 6.55867 78.4042 16.0715C88.3983 25.4842 93.3954 38.5519 93.3954 55.2745C93.3954 72.0972 88.3983 85.3151 78.4042 94.9281C68.5099 104.441 55.0678 109.197 38.0777 109.197H0ZM26.2347 86.6669H37.0283C46.223 86.6669 53.3688 83.9633 58.4658 78.556C63.6628 73.1487 66.2613 65.3882 66.2613 55.2745C66.2613 45.261 63.6628 37.6006 58.4658 32.2934C53.2689 26.9863 46.123 24.3327 37.0283 24.3327H26.2347V86.6669Z" fill="url(#paint4_linear_1_46)" fill-opacity="0.6"/>
<defs>
<linearGradient id="paint0_linear_1_46" x1="369.479" y1="97.1813" x2="369.479" y2="-120.613" gradientUnits="userSpaceOnUse">
<stop/>
<stop offset="1" stop-color="#666666"/>
</linearGradient>
<linearGradient id="paint1_linear_1_46" x1="369.48" y1="97.1811" x2="369.48" y2="-120.613" gradientUnits="userSpaceOnUse">
<stop/>
<stop offset="1" stop-color="#666666"/>
</linearGradient>
<linearGradient id="paint2_linear_1_46" x1="369.48" y1="97.1811" x2="369.48" y2="-120.613" gradientUnits="userSpaceOnUse">
<stop/>
<stop offset="1" stop-color="#666666"/>
</linearGradient>
<linearGradient id="paint3_linear_1_46" x1="369.48" y1="97.1813" x2="369.48" y2="-120.613" gradientUnits="userSpaceOnUse">
<stop/>
<stop offset="1" stop-color="#666666"/>
</linearGradient>
<linearGradient id="paint4_linear_1_46" x1="369.48" y1="97.1811" x2="369.48" y2="-120.613" gradientUnits="userSpaceOnUse">
<stop/>
<stop offset="1" stop-color="#666666"/>
</linearGradient>
</defs>
</svg>
