<svg width="84" height="53" viewBox="0 0 84 53" fill="none" xmlns="http://www.w3.org/2000/svg">
<g clip-path="url(#clip0_1_11)">
<path d="M49.9141 29.8318C49.9355 27.9787 49.9141 26.1143 49.9141 24.2612C49.9141 22.9084 49.6136 20.5665 51.7278 20.6574C53.7239 20.737 53.4556 22.9766 53.4556 24.3181C53.4556 26.1598 53.4342 28.0128 53.4556 29.8432H55.4411C55.4625 28.0015 55.4411 26.1598 55.4411 24.3181C55.4411 22.9766 55.162 20.6802 57.2441 20.6574C59.3261 20.6347 58.9934 22.9652 58.9934 24.3863C58.9934 26.2053 58.9719 28.0356 58.9934 29.8545H61.0647C61.0861 28.2061 61.0647 26.5349 61.0647 24.8865C61.0647 23.2608 61.1827 21.7829 60.4744 20.5437C59.3797 18.6225 56.0635 17.9062 54.4645 20.7143C54.2391 20.4983 54.0781 19.9867 53.4771 19.5433C52.039 18.486 49.9141 18.8839 47.832 18.8839V29.8886L49.9141 29.8318Z" fill="white"/>
<path d="M81.8649 25.2496C81.779 26.2955 81.4571 27.1595 80.9312 27.6711C79.4824 29.0694 76.091 28.717 76.574 23.6012C76.7457 21.7254 77.8833 20.0087 79.9546 20.6226C81.5751 21.0887 82.0473 23.1123 81.8649 25.2496ZM74.4276 25.1246C74.6208 28.1486 76.6598 30.4223 79.7507 30.104C82.9488 29.7743 84.1294 26.8753 83.9899 23.8286C83.6572 16.871 73.891 16.9165 74.4276 25.1246Z" fill="white"/>
<path d="M39.6137 20.5539C41.6421 20.156 42.6402 21.9636 42.7368 23.8963C42.8334 25.6925 42.5329 27.9776 40.5367 28.33C38.4976 28.6824 37.4888 26.9999 37.4029 25.0104C37.3171 22.8163 37.7786 20.9177 39.6137 20.5539ZM44.8617 24.999C45.3017 19.2806 39.9035 17.1093 36.8127 20.1219C36.0078 20.9063 35.4175 22.2251 35.2994 23.8508C35.0419 27.1931 36.7161 29.7851 39.5064 30.1035C41.3201 30.3081 42.8226 29.5464 43.6812 28.4437C43.9799 28.0619 44.2256 27.637 44.411 27.1818C44.6761 26.4862 44.8285 25.7483 44.8617 24.999Z" fill="white"/>
<path d="M26.0498 20.7023C28.7436 20.4977 30.3641 21.3617 30.4715 24.1356C30.5788 27.0345 29.3231 28.1828 26.6723 28.1828H26.2645L26.0391 28.1714L26.0498 20.7023ZM24.0215 29.8426C25.7493 29.9563 28.7007 30.0245 30.1817 29.1377C31.5769 28.3078 32.6071 26.8185 32.6071 24.4539C32.6071 20.7705 30.2676 19.2471 27.3806 19.0993C26.5543 19.0539 24.8264 18.9856 24.0215 19.0993V29.8426Z" fill="white"/>
<path d="M66.4991 20.7485H71.5861C71.6075 20.3733 71.6612 19.3388 71.5539 19.0659H65.1361C64.8785 19.0659 64.4707 18.975 64.4707 19.2251V29.8319L71.7471 29.8433L71.7792 28.1153H66.5205V25.1253L71.35 25.114V23.4542H66.5205L66.4991 20.7485Z" fill="white"/>
<path d="M1.03028 0H49.9042V16.5071H47.8544V2.17139H2.04983V50.8172H47.8544V32.4003H49.9042V53H0V0H1.03028Z" fill="#FFD800"/>
</g>
<defs>
<clipPath id="clip0_1_11">
<rect width="84" height="53" fill="white"/>
</clipPath>
</defs>
</svg>
