<svg width="46" height="45" viewBox="0 0 46 45" fill="none" xmlns="http://www.w3.org/2000/svg">
<path fill-rule="evenodd" clip-rule="evenodd" d="M17.239 0.0397766C13.2572 0.116481 10.5639 0.381346 8.46639 0.902566C6.40273 1.41535 4.76664 2.26168 3.73222 3.35151C2.31215 4.84765 1.42154 7.22896 0.989733 10.6846C0.720969 12.8353 0.623571 14.9225 0.586906 19.3166L0.562612 22.2314H0.861518C1.60483 22.2314 5.20099 22.0823 6.77935 21.986C10.5411 21.7566 12.9316 21.3537 14.8209 20.6308C16.4729 19.9987 18.0331 18.9488 19.0721 17.7701C21.3107 15.2308 22.1933 12.3001 22.5609 6.18581C22.6535 4.64618 22.8062 0.964911 22.8062 0.274088V0L20.7349 0.00618581C19.5957 0.00955989 18.0225 0.0247057 17.239 0.0397766ZM23.3312 0.290546C23.3314 1.06613 23.4834 4.77473 23.5774 6.29828C23.9552 12.4224 24.858 15.3274 27.185 17.906C27.9351 18.7372 29.0898 19.5804 30.2854 20.1701C32.4964 21.2607 35.0633 21.7466 40.0703 22.0227C41.5845 22.1062 44.7008 22.2306 45.2907 22.2312L45.5625 22.2314L45.5618 20.5163C45.5595 14.8512 45.3468 11.3053 44.8642 8.88507C44.1948 5.5279 43.0193 3.47984 41.0699 2.27398C38.9531 0.964536 36.1594 0.34888 31.2602 0.112094C30.1035 0.0561597 27.0497 0.00119967 25.065 0.000562346L23.3311 0L23.3312 0.290546ZM0.586868 25.6654C0.623571 30.0655 0.720857 32.1516 0.989733 34.3031C1.48805 38.291 2.60067 40.8609 4.4389 42.2699C6.52806 43.8713 9.54962 44.6254 14.8771 44.8752C16.0853 44.9318 19.0847 44.9859 21.0723 44.9869L22.8062 44.9877L22.806 44.6972C22.8054 44.1043 22.6823 40.9886 22.5981 39.4392C22.3284 34.4742 21.81 31.7954 20.6922 29.5906C19.613 27.4619 18.0214 25.8894 15.8519 24.8085C13.2172 23.4959 9.85827 23.0215 1.42154 22.7705L0.5625 22.7449L0.586868 25.6654ZM43.838 22.7965C37.0831 23.0488 34.6853 23.3106 32.1538 24.0722C29.9665 24.7303 28.0844 25.9569 26.7369 27.6024C24.942 29.7943 24.0779 32.5125 23.6893 37.1898C23.5537 38.8227 23.3311 43.5017 23.3311 44.7204V45L26.3021 44.9754C29.3765 44.9499 30.6694 44.9156 32.2719 44.8174C35.926 44.5932 38.2826 44.1124 40.1452 43.2107C40.7652 42.9105 41.1846 42.6617 41.6114 42.3404C43.6148 40.8326 44.7389 38.1316 45.2215 33.6658C45.445 31.5985 45.5601 28.4868 45.5618 24.4714L45.5625 22.7563L45.0845 22.7621C44.8216 22.7652 44.2607 22.7807 43.838 22.7965Z" fill="white"/>
</svg>
