<svg width="46" height="45" viewBox="0 0 46 45" fill="none" xmlns="http://www.w3.org/2000/svg">
<g clip-path="url(#clip0_1_155)">
<path d="M0.9375 21.6192C0.9375 11.7079 0.9375 6.75193 3.97973 3.68218C7.04948 0.598633 11.9642 0.598633 21.8065 0.598633H23.5547C33.397 0.598633 38.3252 0.598633 41.3815 3.68218C44.4375 6.76573 44.4375 11.7214 44.4375 21.6192V23.3812C44.4375 33.2925 44.4375 38.2485 41.3815 41.3182C38.3255 44.4018 33.397 44.4018 23.5547 44.4018H21.8065C11.9642 44.4018 7.04948 44.4018 3.97973 41.3182C0.9375 38.2347 0.9375 33.279 0.9375 23.3812V21.6192Z" fill="#FF7700"/>
<path d="M27.9041 19.6918C27.2218 20.382 26.4093 20.9298 25.5137 21.3038C24.6181 21.6777 23.6573 21.8702 22.6868 21.8702C21.7163 21.8702 20.7554 21.6777 19.8598 21.3038C18.9642 20.9298 18.1517 20.382 17.4694 19.6918C16.4407 18.6533 15.741 17.3346 15.4579 15.9005C15.1748 14.4664 15.3207 12.9807 15.8775 11.6292C16.4343 10.2776 17.3772 9.12021 18.5883 8.30171C19.7994 7.48321 21.2249 7.03994 22.6866 7.02734C24.1511 7.03734 25.5799 7.47969 26.7939 8.29887C28.0078 9.11805 28.9528 10.2775 29.5101 11.6318C30.0674 12.9861 30.2123 14.4749 29.9265 15.9112C29.6407 17.3476 28.9371 18.6675 27.9038 19.7053L27.9041 19.6918ZM22.6731 11.0743C21.7832 11.0785 20.9312 11.435 20.3034 12.0657C19.6756 12.6965 19.3232 13.5502 19.3232 14.4401C19.3232 15.33 19.6756 16.1837 20.3034 16.8144C20.9312 17.4452 21.7832 17.8016 22.6731 17.8058C23.563 17.8016 24.415 17.4452 25.0428 16.8144C25.6706 16.1837 26.023 15.33 26.023 14.4401C26.023 13.5502 25.6706 12.6965 25.0428 12.0657C24.415 11.435 23.563 11.0785 22.6731 11.0743ZM30.4371 21.8946L32.5983 24.868C32.7084 25.0195 32.6809 25.226 32.5432 25.3361C30.7532 26.7957 28.6532 27.8268 26.4037 28.3508L30.5747 36.4448C30.6034 36.4973 30.618 36.5563 30.6169 36.6161C30.6158 36.6759 30.5992 36.7344 30.5686 36.7859C30.538 36.8373 30.4946 36.8798 30.4426 36.9093C30.3905 36.9388 30.3317 36.9543 30.2719 36.9541H25.798C25.6603 36.9541 25.5364 36.8715 25.4814 36.7476L22.6869 30.0712L19.8786 36.7476C19.8518 36.8092 19.8075 36.8615 19.7512 36.8982C19.695 36.9349 19.6292 36.9543 19.562 36.9541H15.0881C14.8266 36.9541 14.6751 36.6788 14.7853 36.4448L18.97 28.3508C16.7675 27.8277 14.6476 26.8365 12.8305 25.3361C12.7613 25.2817 12.7157 25.2028 12.7029 25.1158C12.6901 25.0287 12.7111 24.9401 12.7616 24.868L14.9366 21.9084C14.9651 21.8698 15.001 21.8373 15.0423 21.8129C15.0835 21.7885 15.1292 21.7726 15.1767 21.7662C15.2242 21.7597 15.2725 21.7629 15.3188 21.7755C15.365 21.7882 15.4083 21.8099 15.446 21.8396C17.4357 23.6388 20.005 24.6645 22.6868 24.7304C25.3711 24.7304 27.8765 23.6015 29.9276 21.8396C30.0652 21.7019 30.313 21.7294 30.4369 21.8946L30.4371 21.8946Z" fill="white"/>
</g>
<defs>
<clipPath id="clip0_1_155">
<rect width="45" height="45" fill="white" transform="translate(0.1875)"/>
</clipPath>
</defs>
</svg>
