<svg width="46" height="45" viewBox="0 0 46 45" fill="none" xmlns="http://www.w3.org/2000/svg">
<path d="M23.3125 45C35.7389 45 45.8125 34.9264 45.8125 22.5C45.8125 10.0736 35.7389 0 23.3125 0C10.8861 0 0.8125 10.0736 0.8125 22.5C0.8125 34.9264 10.8861 45 23.3125 45Z" fill="url(#paint0_linear_1_102)"/>
<path d="M34.5404 13.1952C34.7406 11.9007 33.5099 10.8789 32.3589 11.3843L9.43397 21.4495C8.60856 21.8119 8.66894 23.0623 9.52501 23.3348L14.2526 24.8404C15.155 25.1278 16.132 24.9791 16.92 24.4348L27.5789 17.0708C27.9003 16.8487 28.2507 17.3058 27.976 17.5888L20.3035 25.4992C19.5593 26.2666 19.707 27.5669 20.6023 28.1283L29.1925 33.5151C30.156 34.1193 31.3954 33.5124 31.5755 32.348L34.5404 13.1952Z" fill="white"/>
<defs>
<linearGradient id="paint0_linear_1_102" x1="23.3125" y1="0" x2="23.3125" y2="45" gradientUnits="userSpaceOnUse">
<stop stop-color="#37BBFE"/>
<stop offset="1" stop-color="#007DBB"/>
</linearGradient>
</defs>
</svg>
