<svg width="46" height="45" viewBox="0 0 46 45" fill="none" xmlns="http://www.w3.org/2000/svg">
<path d="M0.25 21.6C0.25 11.4177 0.25 6.3265 3.41325 3.16325C6.5765 0 11.6677 0 21.85 0H23.65C33.8323 0 38.9235 0 42.0868 3.16325C45.25 6.3265 45.25 11.4177 45.25 21.6V23.4C45.25 33.5823 45.25 38.6735 42.0868 41.8368C38.9235 45 33.8323 45 23.65 45H21.85C11.6677 45 6.5765 45 3.41325 41.8368C0.25 38.6735 0.25 33.5823 0.25 23.4V21.6Z" fill="#0077FF"/>
<path d="M24.1937 32.4189C13.9374 32.4189 8.08747 25.3876 7.84375 13.6876H12.9812C13.15 22.2751 16.9374 25.9126 19.9374 26.6626V13.6876H24.775V21.0938C27.7375 20.7751 30.8497 17.4001 31.8997 13.6876H36.7373C35.931 18.2626 32.556 21.6376 30.1561 23.0251C32.556 24.1501 36.4 27.0938 37.8625 32.4189H32.5373C31.3936 28.8564 28.5438 26.1001 24.775 25.7251V32.4189H24.1937Z" fill="white"/>
</svg>
