<svg width="50" height="82" viewBox="0 0 50 82" fill="none" xmlns="http://www.w3.org/2000/svg">
<path d="M47.2153 79.8588L45.2121 78.999L42.7622 77.867C41.8948 77.424 40.9254 76.981 39.9474 76.4417C39.4264 76.1694 38.8936 75.8817 38.349 75.5785C38.3543 75.5218 38.3608 75.45 38.3683 75.3654C38.3812 75.2614 38.379 75.1346 38.3855 75.0019C38.4796 75.0015 38.5729 74.9884 38.6614 74.963C39.1521 74.8171 39.6082 74.6073 40.0108 74.3425C40.4394 74.0729 40.8212 73.7603 41.1466 73.4125C42.2491 72.3135 42.9007 70.6573 43.1863 68.6326C43.197 68.5649 43.2078 68.4981 43.2164 68.4305C43.4396 66.4658 42.219 64.5856 41.3581 63.2202C41.0178 62.7265 40.7236 62.2996 40.4703 61.9521C40.1299 61.4846 39.8659 61.1625 39.6651 61.0221C39.6124 60.9749 39.5394 60.9448 39.4601 60.9376C39.1584 60.9232 38.4874 61.318 37.8573 62.0113C37.6048 62.2926 37.3846 62.5911 37.1992 62.9032C36.4059 64.1358 35.9743 65.8621 35.7478 67.7136C35.7413 67.7838 35.7349 67.8531 35.7306 67.9233C35.6093 69.6986 36.32 71.3979 36.861 72.6745C37.0328 73.0439 37.1831 73.3779 37.3366 73.6695C37.6587 74.3002 37.9238 74.7365 38.1836 74.9157C38.1836 74.9402 38.175 74.9639 38.1718 74.9875C38.1482 75.1169 38.1332 75.2352 38.1053 75.3392C38.0978 75.3714 38.0913 75.4009 38.0849 75.4297C36.6292 74.6105 35.1058 73.6831 33.5449 72.6398C32.0731 71.6583 30.5744 70.5711 29.0897 69.3774C29.1019 69.3334 29.1159 69.2835 29.1316 69.2277C29.1627 69.1263 29.1842 69.0003 29.2143 68.8701C29.3071 68.8811 29.4017 68.8785 29.4934 68.8625C30.0059 68.7737 30.4958 68.6176 30.9427 68.4009C31.4138 68.1833 31.8469 67.9181 32.2309 67.6121C33.5191 66.6492 34.4681 65.0835 35.1219 63.112C35.1445 63.0469 35.167 62.981 35.1885 62.915C35.7682 60.9968 34.9029 58.9974 34.2985 57.5492C34.0516 57.0225 33.8391 56.566 33.6544 56.1965C33.4043 55.6952 33.2003 55.3511 33.0275 55.182C32.9832 55.1306 32.9162 55.0942 32.8396 55.0797C32.5433 55.0315 31.8079 55.346 31.0575 55.9615C30.7562 56.2102 30.4832 56.4792 30.2416 56.7655C29.2325 57.8958 28.4918 59.5553 27.9293 61.3628C27.9099 61.4313 27.8906 61.4998 27.8734 61.5674C27.4311 63.3098 27.823 65.0734 28.1268 66.3973C28.2341 66.7828 28.3232 67.1311 28.4156 67.4363C28.6152 68.0957 28.802 68.5582 29.0275 68.7653L29.0017 68.8355C28.9545 68.9597 28.918 69.0747 28.8718 69.1736C28.8718 69.1821 28.8654 69.1905 28.8611 69.199C28.159 68.6292 27.4619 68.0349 26.7698 67.416C24.7514 65.5982 22.9151 63.6598 21.2776 61.6182L21.3281 61.5192C21.3807 61.4229 21.4279 61.302 21.4848 61.1811C21.5743 61.2035 21.6681 61.2132 21.7618 61.2098C22.2895 61.1873 22.8085 61.0946 23.297 60.9359C23.8087 60.7826 24.2927 60.5771 24.7366 60.3247C26.2116 59.541 27.4709 58.119 28.5261 56.2582C28.5626 56.1974 28.5991 56.1356 28.6335 56.0731C29.5997 54.2546 29.1703 52.1723 28.8729 50.6624C28.7387 50.1112 28.6238 49.6344 28.5165 49.243C28.3737 48.7154 28.2449 48.3452 28.1085 48.1634C28.0758 48.1067 28.0171 48.0617 27.9443 48.0374C27.6619 47.9529 26.8708 48.1676 26.0033 48.6774C25.6536 48.8834 25.3281 49.1137 25.0307 49.3656C23.7994 50.3505 22.7237 51.8883 21.7929 53.6019C21.7597 53.6662 21.7264 53.7321 21.6953 53.7972C20.8955 55.4576 20.9159 57.2474 20.9384 58.5941C20.9599 58.9864 20.9792 59.3423 21.0071 59.656C21.0662 60.3323 21.1553 60.8125 21.3292 61.0458C21.3152 61.0678 21.3023 61.0898 21.2895 61.1109C21.224 61.2166 21.1692 61.3155 21.1102 61.4017C20.9212 61.1622 20.7337 60.9215 20.5476 60.6797C19.6126 59.4345 18.7387 58.1325 17.9282 56.7866C17.137 55.434 16.4135 54.0348 15.7812 52.5984C15.7608 52.5519 15.7414 52.5054 15.7221 52.4589L15.7876 52.3803C15.8638 52.2958 15.9422 52.1833 16.0302 52.07C16.1115 52.1069 16.2006 52.1318 16.2932 52.1436C16.8119 52.2061 17.3402 52.1998 17.8563 52.125C18.3973 52.057 18.9246 51.9333 19.4247 51.7572C21.0705 51.2263 22.6711 50.0368 24.1858 48.384C24.2374 48.3299 24.2932 48.2758 24.3383 48.22C25.7596 46.596 25.8702 44.4867 25.9722 42.9632C25.984 42.4019 25.9937 41.9166 25.9905 41.5167C25.9905 40.9765 25.9572 40.5944 25.8702 40.3932C25.8528 40.3328 25.8072 40.2797 25.7425 40.2444C25.488 40.1151 24.6582 40.1987 23.6759 40.5589C23.2804 40.7046 22.9021 40.8777 22.5455 41.0763C21.0855 41.8431 19.6341 43.1754 18.2793 44.704C18.2299 44.7623 18.1805 44.8206 18.1333 44.8798C16.9202 46.377 16.4779 48.133 16.1515 49.4552C16.071 49.8424 15.998 50.1941 15.9443 50.5052C15.8273 51.1764 15.7898 51.6617 15.9046 51.9187L15.8488 51.9762C15.764 52.0607 15.6888 52.1453 15.6148 52.2172C14.4272 49.4258 13.6 46.5472 13.1456 43.6252C13.0741 43.1405 13.0111 42.6552 12.9567 42.1694L13.2176 41.9581C13.3045 41.8904 13.4001 41.8 13.5042 41.7087C13.5703 41.7529 13.6459 41.7876 13.7275 41.811C14.1848 41.9369 14.6655 42.002 15.1499 42.0037C15.6557 42.0142 16.1609 41.9724 16.6529 41.8794C18.2632 41.6182 19.9722 40.7533 21.6985 39.4565C21.7575 39.415 21.8155 39.3719 21.8724 39.328C23.5127 38.0446 24.0699 36.145 24.4907 34.7763C24.6228 34.269 24.7376 33.8294 24.8192 33.4659C24.933 32.9755 24.9888 32.6247 24.9534 32.4302C24.9509 32.373 24.921 32.3186 24.8697 32.2781C24.6668 32.1267 23.896 32.0912 22.9266 32.2865C22.5381 32.366 22.1591 32.4721 21.794 32.6035C20.3029 33.104 18.698 34.1194 17.1381 35.3241C17.0812 35.3697 17.0243 35.4171 16.9685 35.4644C15.5439 36.6615 14.7624 38.1943 14.1773 39.3533C14.0195 39.6915 13.8789 40.0035 13.7618 40.2791C13.5106 40.8708 13.3722 41.3079 13.4215 41.5565L13.3582 41.6013C13.2444 41.6816 13.1435 41.7577 13.0458 41.8186L12.9213 41.9031C12.6704 39.4072 12.6571 36.9 12.8816 34.4026C12.9531 33.5572 13.0562 32.7185 13.1907 31.8866L13.4645 31.7581C13.5718 31.7125 13.6856 31.6474 13.8112 31.5831C13.8593 31.6375 13.9193 31.6848 13.9884 31.7226C14.373 31.9309 14.7994 32.0867 15.2498 32.1834C15.7171 32.2932 16.2008 32.3543 16.6883 32.3651C18.2696 32.4395 20.1376 31.9729 22.1633 31.1072C22.2309 31.0801 22.2986 31.0514 22.3662 31.0226C24.2986 30.1527 25.4268 28.4931 26.2556 27.3028C26.5401 26.8564 26.7859 26.4701 26.9792 26.148C27.2411 25.7143 27.4086 25.3981 27.4344 25.2104C27.4501 25.1566 27.4394 25.1001 27.4043 25.0523C27.2637 24.8705 26.5573 24.6854 25.5922 24.6761C25.2034 24.6727 24.815 24.6967 24.4317 24.748C22.8847 24.917 21.0672 25.5469 19.2304 26.3602C19.1617 26.3914 19.0941 26.4244 19.0265 26.4565C17.3195 27.2901 16.1032 28.5633 15.1929 29.5245C14.9374 29.812 14.7076 30.0715 14.5112 30.3049C14.0882 30.8079 13.8198 31.1858 13.7865 31.4267L13.7135 31.4563C13.5815 31.5087 13.4634 31.5595 13.3528 31.5967L13.2272 31.6423C13.5586 29.5963 14.0541 27.5689 14.7109 25.5722C15.0415 24.5696 15.4069 23.5886 15.8069 22.6293L15.9347 22.5829C16.042 22.5457 16.1676 22.4899 16.3018 22.4366C16.3423 22.4944 16.3958 22.546 16.4596 22.5888C16.8149 22.8274 17.2189 23.0169 17.6545 23.1493C18.105 23.2966 18.5782 23.3964 19.0619 23.446C20.6249 23.6481 22.5444 23.3344 24.6722 22.637C24.743 22.6158 24.8139 22.5922 24.8869 22.5685C26.9266 21.8592 28.2599 20.2994 29.24 19.1809C29.5814 18.7582 29.8766 18.3955 30.1107 18.0912C30.4274 17.6803 30.6313 17.3793 30.685 17.195C30.7077 17.1427 30.7043 17.0856 30.6754 17.0352C30.5594 16.8433 29.8809 16.6024 28.9223 16.5145C28.536 16.4799 28.1465 16.4726 27.7586 16.4925C26.1976 16.5373 24.3072 17.0158 22.3737 17.6761C22.3018 17.7014 22.2299 17.7285 22.159 17.7555C20.3523 18.4462 18.976 19.6154 17.9465 20.4972C17.6556 20.7627 17.3925 21.0045 17.166 21.2184C16.6808 21.685 16.3652 22.0384 16.2997 22.276L16.2224 22.2988C16.1075 22.3343 16.0077 22.3673 15.9003 22.3935C16.5805 20.7839 17.3652 19.2028 18.2514 17.6566C19.1424 16.0951 20.1032 14.625 21.0962 13.252L21.4043 13.203C21.5117 13.1895 21.6276 13.1616 21.7554 13.1379C21.7743 13.194 21.8059 13.247 21.8488 13.2943C22.091 13.5545 22.3867 13.7811 22.7237 13.9647C23.0694 14.1632 23.447 14.3247 23.8466 14.4449C25.1273 14.8676 26.8461 14.9124 28.8428 14.6605C28.9083 14.6537 28.9749 14.6461 29.0414 14.6368C30.9663 14.3604 32.51 13.2461 33.6372 12.4506C34.0377 12.1462 34.3887 11.8833 34.6635 11.6601C35.0414 11.3617 35.2937 11.1385 35.3871 10.9897C35.4202 10.9485 35.4325 10.899 35.4214 10.851C35.3721 10.6693 34.8546 10.3539 34.0602 10.1248C33.74 10.0323 33.4098 9.96297 33.0736 9.9177C31.7306 9.70381 29.9937 9.80611 28.1719 10.058L27.9679 10.091C26.2502 10.3886 24.7688 11.1638 23.6609 11.7506C23.3388 11.9289 23.0565 12.0887 22.8074 12.2392C22.2707 12.5588 21.91 12.8099 21.7929 13.0001L21.721 13.0077C21.5922 13.0212 21.4763 13.0364 21.371 13.0415L21.2411 13.0508C21.7489 12.3559 22.2642 11.6829 22.7827 11.0396C23.765 9.82217 24.7559 8.70284 25.7285 7.67736C25.9636 7.7619 26.4972 7.69257 27.2315 7.50827C27.527 7.43557 27.8527 7.34567 28.2084 7.23859C29.415 6.85308 30.919 6.26213 32.0334 5.24003C32.0763 5.1986 32.1203 5.15549 32.1633 5.11744C33.2765 4.0015 34.2448 2.89908 34.7891 1.95982C34.93 1.73054 35.0495 1.49348 35.1466 1.25052C35.3839 0.658728 35.3935 0.201359 35.2336 0.0728558C35.1883 0.0384869 35.1289 0.0180823 35.0661 0.0153677C34.8514 -0.0150672 34.4499 0.000995621 33.9088 0.0584838C33.5063 0.0982182 33.0275 0.16247 32.4875 0.246166C31.0318 0.511626 29.1252 0.948705 27.94 2.12468C27.8992 2.16526 27.8595 2.20922 27.8208 2.24726C26.6249 3.48579 25.8187 4.65415 25.5439 5.68049C25.4478 5.99094 25.4006 6.30951 25.4032 6.62904C25.3947 6.92847 25.4536 7.22671 25.5771 7.50996C25.5897 7.53496 25.6044 7.55925 25.6212 7.58267C24.626 8.60647 23.6104 9.72664 22.6035 10.9457C22.0409 11.6263 21.4816 12.339 20.9309 13.0779C20.9309 13.0669 20.9234 13.0559 20.918 13.0432C20.8869 12.9646 20.8622 12.8741 20.8311 12.7744C20.8311 12.7566 20.8203 12.738 20.815 12.7194C20.9985 12.5638 21.1649 12.2079 21.3517 11.6981C21.4376 11.4623 21.5246 11.1909 21.6212 10.895C21.9132 9.86867 22.2932 8.50248 22.0205 7.13206C22.0098 7.07796 21.9991 7.02385 21.9862 6.96974C21.6233 5.54184 21.1145 4.22976 20.3759 3.32178C20.1998 3.09184 19.9979 2.87482 19.7726 2.67335C19.2132 2.17286 18.6518 1.91248 18.4188 1.93784C18.3587 1.94748 18.3051 1.97427 18.2685 2.01308C18.1268 2.13651 17.9529 2.40197 17.7318 2.78748C17.5697 3.07323 17.3839 3.42408 17.1703 3.82819C16.6335 4.94329 15.8821 6.48109 16.2514 7.99354C16.2643 8.04511 16.2782 8.09668 16.2943 8.14825C16.7237 9.7055 17.3947 10.9508 18.363 11.7362C18.6505 11.9858 18.9786 12.2044 19.3389 12.3863C19.6785 12.5668 20.054 12.7014 20.45 12.7845C20.5201 12.7985 20.5928 12.8025 20.6647 12.7963C20.6818 12.8986 20.6947 12.9984 20.714 13.0779C20.7355 13.1742 20.7527 13.2512 20.7634 13.2977C19.7865 14.625 18.8386 16.0427 17.954 17.5476C17.0052 19.1618 16.1663 20.8147 15.4409 22.4992C15.4379 22.4948 15.4354 22.4903 15.4333 22.4856C15.385 22.4011 15.3432 22.2988 15.2916 22.1897C15.283 22.1694 15.2734 22.15 15.2637 22.1297C15.4484 21.9353 15.5783 21.5151 15.7039 20.9191C15.7629 20.6426 15.8187 20.3273 15.881 19.9815C16.0474 18.7903 16.2589 17.206 15.7307 15.6792C15.7103 15.62 15.6878 15.5592 15.6652 15.5C15.0211 13.919 14.2385 12.4827 13.2541 11.5265C13.018 11.283 12.7547 11.0566 12.4672 10.8502C11.7522 10.3429 11.0716 10.0961 10.8161 10.1536C10.7485 10.1695 10.6913 10.2052 10.6561 10.2533C10.5155 10.4055 10.362 10.7251 10.1784 11.1833C10.041 11.5215 9.8864 11.9374 9.70819 12.4167C9.27878 13.7339 8.67116 15.5515 9.3346 17.2272C9.35822 17.2846 9.38291 17.3421 9.40868 17.3962C10.1419 19.1167 11.1059 20.4609 12.3276 21.2547C12.6935 21.5114 13.101 21.7286 13.5396 21.9006C13.9529 22.0709 14.3997 22.1853 14.8611 22.2388C14.944 22.2482 15.0284 22.2459 15.1102 22.232C15.1478 22.347 15.1768 22.4577 15.2122 22.5465C15.2584 22.6699 15.2938 22.7646 15.311 22.812C14.9449 23.6802 14.6014 24.5653 14.29 25.4699C13.5925 27.4983 13.0604 29.5597 12.6969 31.6415C12.6379 31.5831 12.5788 31.5197 12.5123 31.4512L12.4629 31.3997C12.5702 31.1714 12.5359 30.7394 12.436 30.1417C12.3888 29.8636 12.3287 29.5499 12.2568 29.205C11.9733 28.0324 11.589 26.4658 10.5219 25.1301C10.4801 25.0768 10.436 25.0244 10.3931 24.9728C9.18968 23.6075 7.90573 22.4155 6.6089 21.7315C6.29272 21.5536 5.95719 21.398 5.60623 21.2665C4.73344 20.9427 3.99593 20.865 3.76834 20.9799C3.70992 21.0094 3.66805 21.0554 3.65132 21.1084C3.57188 21.2877 3.54397 21.6275 3.53753 22.1077C3.53216 22.4636 3.53753 22.8965 3.54612 23.3961C3.62878 24.753 3.71574 26.6324 4.97284 28.0831C5.01686 28.1322 5.06195 28.1812 5.10811 28.2294C6.4468 29.7063 7.86601 30.7707 9.32924 31.2483C9.77359 31.4077 10.2429 31.5197 10.7248 31.5814C11.1852 31.6499 11.6569 31.6573 12.1204 31.6034C12.2031 31.593 12.2828 31.571 12.3555 31.5383C12.4339 31.6389 12.5026 31.7387 12.5702 31.8148C12.6014 31.8511 12.6282 31.8841 12.6529 31.9145C12.5176 32.7227 12.4071 33.538 12.3212 34.3603C12.0612 36.8443 12.034 39.3399 12.2396 41.827L12.1215 41.7425L12.0582 41.6977C12.1075 41.4491 11.968 41.0137 11.7168 40.4202C11.6008 40.1446 11.4591 39.8361 11.3024 39.4945C10.7205 38.338 9.939 36.8053 8.5112 35.6056C8.45538 35.5591 8.40385 35.5126 8.34159 35.467C6.78067 34.2614 5.17574 33.2461 3.68568 32.7456C3.3192 32.6135 2.9388 32.5069 2.54881 32.4269C1.58263 32.2316 0.808611 32.2671 0.605713 32.4184C0.553989 32.4588 0.523678 32.5132 0.520904 32.5706C0.486551 32.765 0.541301 33.1159 0.655096 33.6062C0.744199 33.9714 0.86014 34.4127 0.990038 34.92C1.41194 36.2887 1.9691 38.1884 3.60838 39.4717C3.66635 39.5148 3.72432 39.5562 3.78229 39.6002C5.5139 40.8971 7.22404 41.7619 8.8279 42.0231C9.31986 42.116 9.82512 42.1578 10.3308 42.1474C10.8151 42.146 11.2955 42.0806 11.7522 41.9538C11.834 41.9308 11.91 41.8964 11.9766 41.8524C12.0839 41.942 12.173 42.0316 12.26 42.0984C12.3086 42.6293 12.3684 43.1597 12.4393 43.6895C12.8519 46.6255 13.6352 49.5218 14.7774 52.3355L14.698 52.2975C14.684 52.0252 14.4199 51.5865 13.9948 50.9972C13.7973 50.7233 13.5654 50.419 13.3056 50.0825C12.3791 48.9505 11.1392 47.4507 9.30669 46.4151C9.23477 46.3745 9.16177 46.3305 9.09198 46.295C7.11239 45.2738 5.13602 44.4605 3.41944 44.1764C2.99645 44.0966 2.56538 44.0463 2.1312 44.0259C1.04908 43.9794 0.238565 44.1451 0.0635794 44.3396C0.0163706 44.3887 -0.00583715 44.4499 0.00131455 44.5112C0.0152705 44.7226 0.168786 45.0861 0.419992 45.5883C0.605713 45.9602 0.849405 46.4083 1.11994 46.9266C1.93367 48.3105 3.03297 50.2363 5.11884 51.3278C5.19077 51.365 5.26377 51.4005 5.33355 51.436C7.52033 52.5266 9.56863 53.1623 11.3453 53.1725C11.8924 53.1901 12.44 53.1506 12.9739 53.055C13.4882 52.9728 13.9815 52.824 14.4339 52.6145C14.514 52.5761 14.5848 52.5269 14.6432 52.4691C14.728 52.5181 14.8075 52.568 14.8826 52.612C14.9105 52.6787 14.9374 52.7464 14.9653 52.8132C15.5901 54.2766 16.3029 55.7036 17.0866 57.0867C17.8885 58.4631 18.7581 59.7921 19.691 61.0712C19.8756 61.3203 20.0624 61.5669 20.2514 61.8109L20.1805 61.7915L20.0946 61.7661C20.013 61.5015 19.6459 61.1109 19.0833 60.5986C18.8225 60.3602 18.5187 60.0964 18.1827 59.8064C16.9943 58.8376 15.4076 57.5559 13.3518 56.8204C13.2712 56.7908 13.1897 56.7629 13.1081 56.7359C10.9148 56.0359 8.77529 55.5405 7.02114 55.5244C6.58495 55.5103 6.14803 55.5273 5.71573 55.5751C4.64219 55.6943 3.89072 55.9801 3.76512 56.1974C3.73611 56.2552 3.73611 56.3196 3.76512 56.3774C3.83168 56.5829 4.07107 56.9168 4.44144 57.3699C4.71519 57.7081 5.0598 58.1105 5.45808 58.5755C6.5971 59.8098 8.14942 61.5345 10.465 62.2826C10.5455 62.308 10.6261 62.3317 10.7066 62.3554C13.1199 63.0909 15.2852 63.402 17.0329 63.1399C17.5739 63.073 18.1016 62.9508 18.6024 62.7764C19.0863 62.6167 19.5332 62.395 19.925 62.1203C19.9949 62.0706 20.0527 62.0113 20.0957 61.9453C20.2277 61.9944 20.3512 62.0459 20.4628 62.084C22.0867 64.1588 23.9118 66.1317 25.9217 67.985C26.6861 68.6861 27.4587 69.3571 28.2395 69.9979L28.0108 69.9801L27.9185 69.9725C27.7575 69.7316 27.2808 69.423 26.5766 69.0341C26.2545 68.8532 25.8745 68.6562 25.4591 68.4423C24.0194 67.7305 22.0839 66.7921 19.8617 66.4708L19.5986 66.4353C17.2551 66.1817 15.0275 66.1073 13.3196 66.4277C12.8923 66.4984 12.4738 66.5985 12.0689 66.727C11.0705 67.0457 10.4275 67.4684 10.3738 67.7051C10.3624 67.7666 10.3812 67.8292 10.4264 67.8801C10.5541 68.067 10.8902 68.3443 11.3926 68.7129C11.7629 68.9876 12.2213 69.3123 12.7517 69.6876C14.2385 70.6658 16.2761 72.0379 18.7538 72.3236C18.8397 72.3329 18.9245 72.3397 19.0103 72.3465C21.5782 72.6001 23.7747 72.4843 25.3893 71.8959C25.8935 71.7277 26.3675 71.508 26.7988 71.2424C27.2191 70.9946 27.5844 70.6938 27.8799 70.3521C27.9308 70.2904 27.9672 70.222 27.9872 70.1501C28.1525 70.1763 28.3093 70.2067 28.4403 70.2211L28.5326 70.2329C29.9378 71.3751 31.3527 72.4217 32.7451 73.3728C34.3758 74.4854 35.9646 75.4736 37.4783 76.3453L37.4408 76.3503C37.3076 76.3689 37.1573 76.3791 36.9931 76.3943L36.9008 76.4028C36.6785 76.1939 36.131 75.9716 35.3377 75.7087C34.9706 75.5861 34.5497 75.4551 34.0849 75.3122C32.4746 74.8582 30.3275 74.2622 28.0731 74.3188C27.984 74.3188 27.8949 74.3239 27.8069 74.329C25.4451 74.4659 23.2497 74.7686 21.6673 75.3654C21.2691 75.506 20.8873 75.6738 20.5262 75.8668C19.6308 76.3478 19.1156 76.8677 19.1306 77.1053C19.1367 77.1673 19.1714 77.2253 19.2283 77.2685C19.4033 77.4299 19.8058 77.6447 20.3931 77.922C20.8225 78.1291 21.3592 78.37 21.983 78.649C23.7006 79.3575 26.0624 80.3593 28.5573 80.2249C28.6432 80.2198 28.729 80.213 28.8138 80.2063C31.3903 80.0237 33.5084 79.546 34.933 78.7023C35.3806 78.4536 35.7849 78.1597 36.1353 77.8281C36.4799 77.5166 36.756 77.162 36.9523 76.779C36.9864 76.7102 37.0046 76.6372 37.006 76.5634C37.1745 76.5634 37.3366 76.5634 37.4687 76.5575L37.8261 76.5439C38.2931 76.8086 38.7548 77.063 39.2056 77.3048C40.1933 77.8636 41.1702 78.3193 42.0462 78.7809L44.5207 79.956L46.5604 80.8556C47.1541 81.1168 47.6629 81.3112 48.073 81.4837L49.3344 82.0002L50 80.9773L48.7311 80.47C48.3199 80.3027 47.7982 80.1082 47.2153 79.8588Z" fill="white" fill-opacity="0.15"/>
<path d="M47.2153 79.8588L45.2121 78.999L42.7622 77.867C41.8948 77.424 40.9254 76.981 39.9474 76.4417C39.4264 76.1694 38.8936 75.8817 38.349 75.5785C38.3543 75.5218 38.3608 75.45 38.3683 75.3654C38.3812 75.2614 38.379 75.1346 38.3855 75.0019C38.4796 75.0015 38.5729 74.9884 38.6614 74.963C39.1521 74.8171 39.6082 74.6073 40.0108 74.3425C40.4394 74.0729 40.8212 73.7603 41.1466 73.4125C42.2491 72.3135 42.9007 70.6573 43.1863 68.6326C43.197 68.5649 43.2078 68.4981 43.2164 68.4305C43.4396 66.4658 42.219 64.5856 41.3581 63.2202C41.0178 62.7265 40.7236 62.2996 40.4703 61.9521C40.1299 61.4846 39.8659 61.1625 39.6651 61.0221C39.6124 60.9749 39.5394 60.9448 39.4601 60.9376C39.1584 60.9232 38.4874 61.318 37.8573 62.0113C37.6048 62.2926 37.3846 62.5911 37.1992 62.9032C36.4059 64.1358 35.9743 65.8621 35.7478 67.7136C35.7413 67.7838 35.7349 67.8531 35.7306 67.9233C35.6093 69.6986 36.32 71.3979 36.861 72.6745C37.0328 73.0439 37.1831 73.3779 37.3366 73.6695C37.6587 74.3002 37.9238 74.7365 38.1836 74.9157C38.1836 74.9402 38.175 74.9639 38.1718 74.9875C38.1482 75.1169 38.1332 75.2352 38.1053 75.3392C38.0978 75.3714 38.0913 75.4009 38.0849 75.4297C36.6292 74.6105 35.1058 73.6831 33.5449 72.6398C32.0731 71.6583 30.5744 70.5711 29.0897 69.3774C29.1019 69.3334 29.1159 69.2835 29.1316 69.2277C29.1627 69.1263 29.1842 69.0003 29.2143 68.8701C29.3071 68.8811 29.4017 68.8785 29.4934 68.8625C30.0059 68.7737 30.4958 68.6176 30.9427 68.4009C31.4138 68.1833 31.8469 67.9181 32.2309 67.6121C33.5191 66.6492 34.4681 65.0835 35.1219 63.112C35.1445 63.0469 35.167 62.981 35.1885 62.915C35.7682 60.9968 34.9029 58.9974 34.2985 57.5492C34.0516 57.0225 33.8391 56.566 33.6544 56.1965C33.4043 55.6952 33.2003 55.3511 33.0275 55.182C32.9832 55.1306 32.9162 55.0942 32.8396 55.0797C32.5433 55.0315 31.8079 55.346 31.0575 55.9615C30.7562 56.2102 30.4832 56.4792 30.2416 56.7655C29.2325 57.8958 28.4918 59.5553 27.9293 61.3628C27.9099 61.4313 27.8906 61.4998 27.8734 61.5674C27.4311 63.3098 27.823 65.0734 28.1268 66.3973C28.2341 66.7828 28.3232 67.1311 28.4156 67.4363C28.6152 68.0957 28.802 68.5582 29.0275 68.7653L29.0017 68.8355C28.9545 68.9597 28.918 69.0747 28.8718 69.1736C28.8718 69.1821 28.8654 69.1905 28.8611 69.199C28.159 68.6292 27.4619 68.0349 26.7698 67.416C24.7514 65.5982 22.9151 63.6598 21.2776 61.6182L21.3281 61.5192C21.3807 61.4229 21.4279 61.302 21.4848 61.1811C21.5743 61.2035 21.6681 61.2132 21.7618 61.2098C22.2895 61.1873 22.8085 61.0946 23.297 60.9359C23.8087 60.7826 24.2927 60.5771 24.7366 60.3247C26.2116 59.541 27.4709 58.119 28.5261 56.2582C28.5626 56.1974 28.5991 56.1356 28.6335 56.0731C29.5997 54.2546 29.1703 52.1723 28.8729 50.6624C28.7387 50.1112 28.6238 49.6344 28.5165 49.243C28.3737 48.7154 28.2449 48.3452 28.1085 48.1634C28.0758 48.1067 28.0171 48.0617 27.9443 48.0374C27.6619 47.9529 26.8708 48.1676 26.0033 48.6774C25.6536 48.8834 25.3281 49.1137 25.0307 49.3656C23.7994 50.3505 22.7237 51.8883 21.7929 53.6019C21.7597 53.6662 21.7264 53.7321 21.6953 53.7972C20.8955 55.4576 20.9159 57.2474 20.9384 58.5941C20.9599 58.9864 20.9792 59.3423 21.0071 59.656C21.0662 60.3323 21.1553 60.8125 21.3292 61.0458C21.3152 61.0678 21.3023 61.0898 21.2895 61.1109C21.224 61.2166 21.1692 61.3155 21.1102 61.4017C20.9212 61.1622 20.7337 60.9215 20.5476 60.6797C19.6126 59.4345 18.7387 58.1325 17.9282 56.7866C17.137 55.434 16.4135 54.0348 15.7812 52.5984C15.7608 52.5519 15.7414 52.5054 15.7221 52.4589L15.7876 52.3803C15.8638 52.2958 15.9422 52.1833 16.0302 52.07C16.1115 52.1069 16.2006 52.1318 16.2932 52.1436C16.8119 52.2061 17.3402 52.1998 17.8563 52.125C18.3973 52.057 18.9246 51.9333 19.4247 51.7572C21.0705 51.2263 22.6711 50.0368 24.1858 48.384C24.2374 48.3299 24.2932 48.2758 24.3383 48.22C25.7596 46.596 25.8702 44.4867 25.9722 42.9632C25.984 42.4019 25.9937 41.9166 25.9905 41.5167C25.9905 40.9765 25.9572 40.5944 25.8702 40.3932C25.8528 40.3328 25.8072 40.2797 25.7425 40.2444C25.488 40.1151 24.6582 40.1987 23.6759 40.5589C23.2804 40.7046 22.9021 40.8777 22.5455 41.0763C21.0855 41.8431 19.6341 43.1754 18.2793 44.704C18.2299 44.7623 18.1805 44.8206 18.1333 44.8798C16.9202 46.377 16.4779 48.133 16.1515 49.4552C16.071 49.8424 15.998 50.1941 15.9443 50.5052C15.8273 51.1764 15.7898 51.6617 15.9046 51.9187L15.8488 51.9762C15.764 52.0607 15.6888 52.1453 15.6148 52.2172C14.4272 49.4258 13.6 46.5472 13.1456 43.6252C13.0741 43.1405 13.0111 42.6552 12.9567 42.1694L13.2176 41.9581C13.3045 41.8904 13.4001 41.8 13.5042 41.7087C13.5703 41.7529 13.6459 41.7876 13.7275 41.811C14.1848 41.9369 14.6655 42.002 15.1499 42.0037C15.6557 42.0142 16.1609 41.9724 16.6529 41.8794C18.2632 41.6182 19.9722 40.7533 21.6985 39.4565C21.7575 39.415 21.8155 39.3719 21.8724 39.328C23.5127 38.0446 24.0699 36.145 24.4907 34.7763C24.6228 34.269 24.7376 33.8294 24.8192 33.4659C24.933 32.9755 24.9888 32.6247 24.9534 32.4302C24.9509 32.373 24.921 32.3186 24.8697 32.2781C24.6668 32.1267 23.896 32.0912 22.9266 32.2865C22.5381 32.366 22.1591 32.4721 21.794 32.6035C20.3029 33.104 18.698 34.1194 17.1381 35.3241C17.0812 35.3697 17.0243 35.4171 16.9685 35.4644C15.5439 36.6615 14.7624 38.1943 14.1773 39.3533C14.0195 39.6915 13.8789 40.0035 13.7618 40.2791C13.5106 40.8708 13.3722 41.3079 13.4215 41.5565L13.3582 41.6013C13.2444 41.6816 13.1435 41.7577 13.0458 41.8186L12.9213 41.9031C12.6704 39.4072 12.6571 36.9 12.8816 34.4026C12.9531 33.5572 13.0562 32.7185 13.1907 31.8866L13.4645 31.7581C13.5718 31.7125 13.6856 31.6474 13.8112 31.5831C13.8593 31.6375 13.9193 31.6848 13.9884 31.7226C14.373 31.9309 14.7994 32.0867 15.2498 32.1834C15.7171 32.2932 16.2008 32.3543 16.6883 32.3651C18.2696 32.4395 20.1376 31.9729 22.1633 31.1072C22.2309 31.0801 22.2986 31.0514 22.3662 31.0226C24.2986 30.1527 25.4268 28.4931 26.2556 27.3028C26.5401 26.8564 26.7859 26.4701 26.9792 26.148C27.2411 25.7143 27.4086 25.3981 27.4344 25.2104C27.4501 25.1566 27.4394 25.1001 27.4043 25.0523C27.2637 24.8705 26.5573 24.6854 25.5922 24.6761C25.2034 24.6727 24.815 24.6967 24.4317 24.748C22.8847 24.917 21.0672 25.5469 19.2304 26.3602C19.1617 26.3914 19.0941 26.4244 19.0265 26.4565C17.3195 27.2901 16.1032 28.5633 15.1929 29.5245C14.9374 29.812 14.7076 30.0715 14.5112 30.3049C14.0882 30.8079 13.8198 31.1858 13.7865 31.4267L13.7135 31.4563C13.5815 31.5087 13.4634 31.5595 13.3528 31.5967L13.2272 31.6423C13.5586 29.5963 14.0541 27.5689 14.7109 25.5722C15.0415 24.5696 15.4069 23.5886 15.8069 22.6293L15.9347 22.5829C16.042 22.5457 16.1676 22.4899 16.3018 22.4366C16.3423 22.4944 16.3958 22.546 16.4596 22.5888C16.8149 22.8274 17.2189 23.0169 17.6545 23.1493C18.105 23.2966 18.5782 23.3964 19.0619 23.446C20.6249 23.6481 22.5444 23.3344 24.6722 22.637C24.743 22.6158 24.8139 22.5922 24.8869 22.5685C26.9266 21.8592 28.2599 20.2994 29.24 19.1809C29.5814 18.7582 29.8766 18.3955 30.1107 18.0912C30.4274 17.6803 30.6313 17.3793 30.685 17.195C30.7077 17.1427 30.7043 17.0856 30.6754 17.0352C30.5594 16.8433 29.8809 16.6024 28.9223 16.5145C28.536 16.4799 28.1465 16.4726 27.7586 16.4925C26.1976 16.5373 24.3072 17.0158 22.3737 17.6761C22.3018 17.7014 22.2299 17.7285 22.159 17.7555C20.3523 18.4462 18.976 19.6154 17.9465 20.4972C17.6556 20.7627 17.3925 21.0045 17.166 21.2184C16.6808 21.685 16.3652 22.0384 16.2997 22.276L16.2224 22.2988C16.1075 22.3343 16.0077 22.3673 15.9003 22.3935C16.5805 20.7839 17.3652 19.2028 18.2514 17.6566C19.1424 16.0951 20.1032 14.625 21.0962 13.252L21.4043 13.203C21.5117 13.1895 21.6276 13.1616 21.7554 13.1379C21.7743 13.194 21.8059 13.247 21.8488 13.2943C22.091 13.5545 22.3867 13.7811 22.7237 13.9647C23.0694 14.1632 23.447 14.3247 23.8466 14.4449C25.1273 14.8676 26.8461 14.9124 28.8428 14.6605C28.9083 14.6537 28.9749 14.6461 29.0414 14.6368C30.9663 14.3604 32.51 13.2461 33.6372 12.4506C34.0377 12.1462 34.3887 11.8833 34.6635 11.6601C35.0414 11.3617 35.2937 11.1385 35.3871 10.9897C35.4202 10.9485 35.4325 10.899 35.4214 10.851C35.3721 10.6693 34.8546 10.3539 34.0602 10.1248C33.74 10.0323 33.4098 9.96297 33.0736 9.9177C31.7306 9.70381 29.9937 9.80611 28.1719 10.058L27.9679 10.091C26.2502 10.3886 24.7688 11.1638 23.6609 11.7506C23.3388 11.9289 23.0565 12.0887 22.8074 12.2392C22.2707 12.5588 21.91 12.8099 21.7929 13.0001L21.721 13.0077C21.5922 13.0212 21.4763 13.0364 21.371 13.0415L21.2411 13.0508C21.7489 12.3559 22.2642 11.6829 22.7827 11.0396C23.765 9.82217 24.7559 8.70284 25.7285 7.67736C25.9636 7.7619 26.4972 7.69257 27.2315 7.50827C27.527 7.43557 27.8527 7.34567 28.2084 7.23859C29.415 6.85308 30.919 6.26213 32.0334 5.24003C32.0763 5.1986 32.1203 5.15549 32.1633 5.11744C33.2765 4.0015 34.2448 2.89908 34.7891 1.95982C34.93 1.73054 35.0495 1.49348 35.1466 1.25052C35.3839 0.658728 35.3935 0.201359 35.2336 0.0728558C35.1883 0.0384869 35.1289 0.0180823 35.0661 0.0153677C34.8514 -0.0150672 34.4499 0.000995621 33.9088 0.0584838C33.5063 0.0982182 33.0275 0.16247 32.4875 0.246166C31.0318 0.511626 29.1252 0.948705 27.94 2.12468C27.8992 2.16526 27.8595 2.20922 27.8208 2.24726C26.6249 3.48579 25.8187 4.65415 25.5439 5.68049C25.4478 5.99094 25.4006 6.30951 25.4032 6.62904C25.3947 6.92847 25.4536 7.22671 25.5771 7.50996C25.5897 7.53496 25.6044 7.55925 25.6212 7.58267C24.626 8.60647 23.6104 9.72664 22.6035 10.9457C22.0409 11.6263 21.4816 12.339 20.9309 13.0779C20.9309 13.0669 20.9234 13.0559 20.918 13.0432C20.8869 12.9646 20.8622 12.8741 20.8311 12.7744C20.8311 12.7566 20.8203 12.738 20.815 12.7194C20.9985 12.5638 21.1649 12.2079 21.3517 11.6981C21.4376 11.4623 21.5246 11.1909 21.6212 10.895C21.9132 9.86867 22.2932 8.50248 22.0205 7.13206C22.0098 7.07796 21.9991 7.02385 21.9862 6.96974C21.6233 5.54184 21.1145 4.22976 20.3759 3.32178C20.1998 3.09184 19.9979 2.87482 19.7726 2.67335C19.2132 2.17286 18.6518 1.91248 18.4188 1.93784C18.3587 1.94748 18.3051 1.97427 18.2685 2.01308C18.1268 2.13651 17.9529 2.40197 17.7318 2.78748C17.5697 3.07323 17.3839 3.42408 17.1703 3.82819C16.6335 4.94329 15.8821 6.48109 16.2514 7.99354C16.2643 8.04511 16.2782 8.09668 16.2943 8.14825C16.7237 9.7055 17.3947 10.9508 18.363 11.7362C18.6505 11.9858 18.9786 12.2044 19.3389 12.3863C19.6785 12.5668 20.054 12.7014 20.45 12.7845C20.5201 12.7985 20.5928 12.8025 20.6647 12.7963C20.6818 12.8986 20.6947 12.9984 20.714 13.0779C20.7355 13.1742 20.7527 13.2512 20.7634 13.2977C19.7865 14.625 18.8386 16.0427 17.954 17.5476C17.0052 19.1618 16.1663 20.8147 15.4409 22.4992C15.4379 22.4948 15.4354 22.4903 15.4333 22.4856C15.385 22.4011 15.3432 22.2988 15.2916 22.1897C15.283 22.1694 15.2734 22.15 15.2637 22.1297C15.4484 21.9353 15.5783 21.5151 15.7039 20.9191C15.7629 20.6426 15.8187 20.3273 15.881 19.9815C16.0474 18.7903 16.2589 17.206 15.7307 15.6792C15.7103 15.62 15.6878 15.5592 15.6652 15.5C15.0211 13.919 14.2385 12.4827 13.2541 11.5265C13.018 11.283 12.7547 11.0566 12.4672 10.8502C11.7522 10.3429 11.0716 10.0961 10.8161 10.1536C10.7485 10.1695 10.6913 10.2052 10.6561 10.2533C10.5155 10.4055 10.362 10.7251 10.1784 11.1833C10.041 11.5215 9.8864 11.9374 9.70819 12.4167C9.27878 13.7339 8.67116 15.5515 9.3346 17.2272C9.35822 17.2846 9.38291 17.3421 9.40868 17.3962C10.1419 19.1167 11.1059 20.4609 12.3276 21.2547C12.6935 21.5114 13.101 21.7286 13.5396 21.9006C13.9529 22.0709 14.3997 22.1853 14.8611 22.2388C14.944 22.2482 15.0284 22.2459 15.1102 22.232C15.1478 22.347 15.1768 22.4577 15.2122 22.5465C15.2584 22.6699 15.2938 22.7646 15.311 22.812C14.9449 23.6802 14.6014 24.5653 14.29 25.4699C13.5925 27.4983 13.0604 29.5597 12.6969 31.6415C12.6379 31.5831 12.5788 31.5197 12.5123 31.4512L12.4629 31.3997C12.5702 31.1714 12.5359 30.7394 12.436 30.1417C12.3888 29.8636 12.3287 29.5499 12.2568 29.205C11.9733 28.0324 11.589 26.4658 10.5219 25.1301C10.4801 25.0768 10.436 25.0244 10.3931 24.9728C9.18968 23.6075 7.90573 22.4155 6.6089 21.7315C6.29272 21.5536 5.95719 21.398 5.60623 21.2665C4.73344 20.9427 3.99593 20.865 3.76834 20.9799C3.70992 21.0094 3.66805 21.0554 3.65132 21.1084C3.57188 21.2877 3.54397 21.6275 3.53753 22.1077C3.53216 22.4636 3.53753 22.8965 3.54612 23.3961C3.62878 24.753 3.71574 26.6324 4.97284 28.0831C5.01686 28.1322 5.06195 28.1812 5.10811 28.2294C6.4468 29.7063 7.86601 30.7707 9.32924 31.2483C9.77359 31.4077 10.2429 31.5197 10.7248 31.5814C11.1852 31.6499 11.6569 31.6573 12.1204 31.6034C12.2031 31.593 12.2828 31.571 12.3555 31.5383C12.4339 31.6389 12.5026 31.7387 12.5702 31.8148C12.6014 31.8511 12.6282 31.8841 12.6529 31.9145C12.5176 32.7227 12.4071 33.538 12.3212 34.3603C12.0612 36.8443 12.034 39.3399 12.2396 41.827L12.1215 41.7425L12.0582 41.6977C12.1075 41.4491 11.968 41.0137 11.7168 40.4202C11.6008 40.1446 11.4591 39.8361 11.3024 39.4945C10.7205 38.338 9.939 36.8053 8.5112 35.6056C8.45538 35.5591 8.40385 35.5126 8.34159 35.467C6.78067 34.2614 5.17574 33.2461 3.68568 32.7456C3.3192 32.6135 2.9388 32.5069 2.54881 32.4269C1.58263 32.2316 0.808611 32.2671 0.605713 32.4184C0.553989 32.4588 0.523678 32.5132 0.520904 32.5706C0.486551 32.765 0.541301 33.1159 0.655096 33.6062C0.744199 33.9714 0.86014 34.4127 0.990038 34.92C1.41194 36.2887 1.9691 38.1884 3.60838 39.4717C3.66635 39.5148 3.72432 39.5562 3.78229 39.6002C5.5139 40.8971 7.22404 41.7619 8.8279 42.0231C9.31986 42.116 9.82512 42.1578 10.3308 42.1474C10.8151 42.146 11.2955 42.0806 11.7522 41.9538C11.834 41.9308 11.91 41.8964 11.9766 41.8524C12.0839 41.942 12.173 42.0316 12.26 42.0984C12.3086 42.6293 12.3684 43.1597 12.4393 43.6895C12.8519 46.6255 13.6352 49.5218 14.7774 52.3355L14.698 52.2975C14.684 52.0252 14.4199 51.5865 13.9948 50.9972C13.7973 50.7233 13.5654 50.419 13.3056 50.0825C12.3791 48.9505 11.1392 47.4507 9.30669 46.4151C9.23477 46.3745 9.16177 46.3305 9.09198 46.295C7.11239 45.2738 5.13602 44.4605 3.41944 44.1764C2.99645 44.0966 2.56538 44.0463 2.1312 44.0259C1.04908 43.9794 0.238565 44.1451 0.0635794 44.3396C0.0163706 44.3887 -0.00583715 44.4499 0.00131455 44.5112C0.0152705 44.7226 0.168786 45.0861 0.419992 45.5883C0.605713 45.9602 0.849405 46.4083 1.11994 46.9266C1.93367 48.3105 3.03297 50.2363 5.11884 51.3278C5.19077 51.365 5.26377 51.4005 5.33355 51.436C7.52033 52.5266 9.56863 53.1623 11.3453 53.1725C11.8924 53.1901 12.44 53.1506 12.9739 53.055C13.4882 52.9728 13.9815 52.824 14.4339 52.6145C14.514 52.5761 14.5848 52.5269 14.6432 52.4691C14.728 52.5181 14.8075 52.568 14.8826 52.612C14.9105 52.6787 14.9374 52.7464 14.9653 52.8132C15.5901 54.2766 16.3029 55.7036 17.0866 57.0867C17.8885 58.4631 18.7581 59.7921 19.691 61.0712C19.8756 61.3203 20.0624 61.5669 20.2514 61.8109L20.1805 61.7915L20.0946 61.7661C20.013 61.5015 19.6459 61.1109 19.0833 60.5986C18.8225 60.3602 18.5187 60.0964 18.1827 59.8064C16.9943 58.8376 15.4076 57.5559 13.3518 56.8204C13.2712 56.7908 13.1897 56.7629 13.1081 56.7359C10.9148 56.0359 8.77529 55.5405 7.02114 55.5244C6.58495 55.5103 6.14803 55.5273 5.71573 55.5751C4.64219 55.6943 3.89072 55.9801 3.76512 56.1974C3.73611 56.2552 3.73611 56.3196 3.76512 56.3774C3.83168 56.5829 4.07107 56.9168 4.44144 57.3699C4.71519 57.7081 5.0598 58.1105 5.45808 58.5755C6.5971 59.8098 8.14942 61.5345 10.465 62.2826C10.5455 62.308 10.6261 62.3317 10.7066 62.3554C13.1199 63.0909 15.2852 63.402 17.0329 63.1399C17.5739 63.073 18.1016 62.9508 18.6024 62.7764C19.0863 62.6167 19.5332 62.395 19.925 62.1203C19.9949 62.0706 20.0527 62.0113 20.0957 61.9453C20.2277 61.9944 20.3512 62.0459 20.4628 62.084C22.0867 64.1588 23.9118 66.1317 25.9217 67.985C26.6861 68.6861 27.4587 69.3571 28.2395 69.9979L28.0108 69.9801L27.9185 69.9725C27.7575 69.7316 27.2808 69.423 26.5766 69.0341C26.2545 68.8532 25.8745 68.6562 25.4591 68.4423C24.0194 67.7305 22.0839 66.7921 19.8617 66.4708L19.5986 66.4353C17.2551 66.1817 15.0275 66.1073 13.3196 66.4277C12.8923 66.4984 12.4738 66.5985 12.0689 66.727C11.0705 67.0457 10.4275 67.4684 10.3738 67.7051C10.3624 67.7666 10.3812 67.8292 10.4264 67.8801C10.5541 68.067 10.8902 68.3443 11.3926 68.7129C11.7629 68.9876 12.2213 69.3123 12.7517 69.6876C14.2385 70.6658 16.2761 72.0379 18.7538 72.3236C18.8397 72.3329 18.9245 72.3397 19.0103 72.3465C21.5782 72.6001 23.7747 72.4843 25.3893 71.8959C25.8935 71.7277 26.3675 71.508 26.7988 71.2424C27.2191 70.9946 27.5844 70.6938 27.8799 70.3521C27.9308 70.2904 27.9672 70.222 27.9872 70.1501C28.1525 70.1763 28.3093 70.2067 28.4403 70.2211L28.5326 70.2329C29.9378 71.3751 31.3527 72.4217 32.7451 73.3728C34.3758 74.4854 35.9646 75.4736 37.4783 76.3453L37.4408 76.3503C37.3076 76.3689 37.1573 76.3791 36.9931 76.3943L36.9008 76.4028C36.6785 76.1939 36.131 75.9716 35.3377 75.7087C34.9706 75.5861 34.5497 75.4551 34.0849 75.3122C32.4746 74.8582 30.3275 74.2622 28.0731 74.3188C27.984 74.3188 27.8949 74.3239 27.8069 74.329C25.4451 74.4659 23.2497 74.7686 21.6673 75.3654C21.2691 75.506 20.8873 75.6738 20.5262 75.8668C19.6308 76.3478 19.1156 76.8677 19.1306 77.1053C19.1367 77.1673 19.1714 77.2253 19.2283 77.2685C19.4033 77.4299 19.8058 77.6447 20.3931 77.922C20.8225 78.1291 21.3592 78.37 21.983 78.649C23.7006 79.3575 26.0624 80.3593 28.5573 80.2249C28.6432 80.2198 28.729 80.213 28.8138 80.2063C31.3903 80.0237 33.5084 79.546 34.933 78.7023C35.3806 78.4536 35.7849 78.1597 36.1353 77.8281C36.4799 77.5166 36.756 77.162 36.9523 76.779C36.9864 76.7102 37.0046 76.6372 37.006 76.5634C37.1745 76.5634 37.3366 76.5634 37.4687 76.5575L37.8261 76.5439C38.2931 76.8086 38.7548 77.063 39.2056 77.3048C40.1933 77.8636 41.1702 78.3193 42.0462 78.7809L44.5207 79.956L46.5604 80.8556C47.1541 81.1168 47.6629 81.3112 48.073 81.4837L49.3344 82.0002L50 80.9773L48.7311 80.47C48.3199 80.3027 47.7982 80.1082 47.2153 79.8588Z" fill="url(#paint0_linear_1_55)" fill-opacity="0.6"/>
<defs>
<linearGradient id="paint0_linear_1_55" x1="33.284" y1="58.7669" x2="33.284" y2="-40.3164" gradientUnits="userSpaceOnUse">
<stop/>
<stop offset="1" stop-color="#666666"/>
</linearGradient>
</defs>
</svg>
